<?xml version="1.0" encoding="utf-8" standalone="no"?>
<!DOCTYPE svg PUBLIC "-//W3C//DTD SVG 1.1//EN"
  "http://www.w3.org/Graphics/SVG/1.1/DTD/svg11.dtd">
<!-- Created with matplotlib (https://matplotlib.org/) -->
<svg height="262.19625pt" version="1.1" viewBox="0 0 276.372813 262.19625" width="276.372813pt" xmlns="http://www.w3.org/2000/svg" xmlns:xlink="http://www.w3.org/1999/xlink">
 <metadata>
  <rdf:RDF xmlns:cc="http://creativecommons.org/ns#" xmlns:dc="http://purl.org/dc/elements/1.1/" xmlns:rdf="http://www.w3.org/1999/02/22-rdf-syntax-ns#">
   <cc:Work>
    <dc:type rdf:resource="http://purl.org/dc/dcmitype/StillImage"/>
    <dc:date>2020-11-27T02:06:45.189009</dc:date>
    <dc:format>image/svg+xml</dc:format>
    <dc:creator>
     <cc:Agent>
      <dc:title>Matplotlib v3.3.3, https://matplotlib.org/</dc:title>
     </cc:Agent>
    </dc:creator>
   </cc:Work>
  </rdf:RDF>
 </metadata>
 <defs>
  <style type="text/css">*{stroke-linecap:butt;stroke-linejoin:round;}</style>
 </defs>
 <g id="figure_1">
  <g id="patch_1">
   <path d="M 0 262.19625 
L 276.372813 262.19625 
L 276.372813 0 
L 0 0 
z
" style="fill:none;"/>
  </g>
  <g id="axes_1">
   <g id="patch_2">
    <path d="M 43.78125 224.64 
L 261.22125 224.64 
L 261.22125 7.2 
L 43.78125 7.2 
z
" style="fill:#ffffff;"/>
   </g>
   <g id="PolyCollection_1">
    <defs>
     <path d="M 43.781258 -141.130909 
L 43.781258 -37.55625 
L 44.873921 -37.55625 
L 45.966584 -37.55625 
L 47.059248 -37.55625 
L 48.151911 -37.55625 
L 49.244574 -37.55625 
L 50.337237 -37.55625 
L 51.429901 -37.55625 
L 52.522564 -37.55625 
L 53.615227 -37.55625 
L 54.70789 -37.55625 
L 55.800553 -37.55625 
L 56.893217 -37.55625 
L 57.98588 -37.55625 
L 59.078543 -37.55625 
L 60.171206 -37.55625 
L 61.263869 -37.55625 
L 62.356533 -37.55625 
L 63.449196 -37.55625 
L 64.541859 -37.55625 
L 65.634522 -37.55625 
L 66.727186 -37.55625 
L 67.819849 -37.55625 
L 68.912512 -37.55625 
L 70.005175 -37.55625 
L 71.097838 -37.55625 
L 72.190502 -37.55625 
L 73.283165 -37.55625 
L 74.375828 -37.55625 
L 75.468491 -37.55625 
L 76.561155 -37.55625 
L 77.653818 -37.55625 
L 78.746481 -37.55625 
L 79.839144 -37.55625 
L 80.931807 -37.55625 
L 82.024471 -37.55625 
L 83.117134 -37.55625 
L 84.209797 -37.55625 
L 85.30246 -37.55625 
L 86.395123 -37.55625 
L 87.487787 -37.55625 
L 88.58045 -37.55625 
L 89.673113 -37.55625 
L 90.765776 -37.55625 
L 91.85844 -37.55625 
L 92.951103 -37.55625 
L 94.043766 -37.55625 
L 95.136429 -37.55625 
L 96.229092 -37.55625 
L 97.321756 -37.55625 
L 98.414419 -37.55625 
L 99.507082 -37.55625 
L 100.599745 -37.55625 
L 101.692409 -37.55625 
L 102.785072 -37.55625 
L 103.877735 -37.55625 
L 104.970398 -37.55625 
L 106.063061 -37.55625 
L 107.155725 -37.55625 
L 108.248388 -37.55625 
L 109.341051 -37.55625 
L 110.433714 -37.55625 
L 111.526377 -37.55625 
L 112.619041 -37.55625 
L 113.711704 -37.55625 
L 114.804367 -37.55625 
L 115.89703 -37.55625 
L 116.989694 -37.55625 
L 118.082357 -37.55625 
L 119.17502 -37.55625 
L 120.267683 -37.55625 
L 121.360346 -37.55625 
L 122.45301 -37.55625 
L 123.545673 -37.55625 
L 124.638336 -37.55625 
L 125.730999 -37.55625 
L 126.823663 -37.55625 
L 127.916326 -37.55625 
L 129.008989 -37.55625 
L 130.101652 -37.55625 
L 131.194315 -37.55625 
L 132.286979 -37.55625 
L 133.379642 -37.55625 
L 134.472305 -37.55625 
L 135.564968 -37.55625 
L 136.657632 -37.55625 
L 137.750295 -37.55625 
L 138.842958 -37.55625 
L 139.935621 -37.55625 
L 141.028284 -37.55625 
L 142.120948 -37.55625 
L 143.213611 -37.55625 
L 144.306274 -37.55625 
L 145.398937 -37.55625 
L 146.4916 -37.55625 
L 147.584264 -37.55625 
L 148.676927 -37.55625 
L 149.76959 -37.55625 
L 150.862253 -37.55625 
L 151.954917 -37.55625 
L 153.04758 -37.55625 
L 154.140243 -37.55625 
L 155.232906 -37.55625 
L 156.325569 -37.55625 
L 157.418233 -37.55625 
L 158.510896 -37.55625 
L 159.603559 -37.55625 
L 160.696222 -37.55625 
L 161.788886 -37.55625 
L 162.881549 -37.55625 
L 163.974212 -37.55625 
L 165.066875 -37.55625 
L 166.159538 -37.55625 
L 167.252202 -37.55625 
L 168.344865 -37.55625 
L 169.437528 -37.55625 
L 170.530191 -37.55625 
L 171.622854 -37.55625 
L 172.715518 -37.55625 
L 173.808181 -37.55625 
L 174.900844 -37.55625 
L 175.993507 -37.55625 
L 177.086171 -37.55625 
L 178.178834 -37.55625 
L 179.271497 -37.55625 
L 180.36416 -37.55625 
L 181.456823 -37.55625 
L 182.549487 -37.55625 
L 183.64215 -37.55625 
L 184.734813 -37.55625 
L 185.827476 -37.55625 
L 186.92014 -37.55625 
L 188.012803 -37.55625 
L 189.105466 -37.55625 
L 190.198129 -37.55625 
L 191.290792 -37.55625 
L 192.383456 -37.55625 
L 193.476119 -37.55625 
L 194.568782 -37.55625 
L 195.661445 -37.55625 
L 196.754108 -37.55625 
L 197.846772 -37.55625 
L 198.939435 -37.55625 
L 200.032098 -37.55625 
L 201.124761 -37.55625 
L 202.217425 -37.55625 
L 203.310088 -37.55625 
L 204.402751 -37.55625 
L 205.495414 -37.55625 
L 206.588077 -37.55625 
L 207.680741 -37.55625 
L 208.773404 -37.55625 
L 209.866067 -37.55625 
L 210.95873 -37.55625 
L 212.051394 -37.55625 
L 213.144057 -37.55625 
L 214.23672 -37.55625 
L 215.329383 -37.55625 
L 216.422046 -37.55625 
L 217.51471 -37.55625 
L 218.607373 -37.55625 
L 219.700036 -37.55625 
L 220.792699 -37.55625 
L 221.885362 -37.55625 
L 222.978026 -37.55625 
L 224.070689 -37.55625 
L 225.163352 -37.55625 
L 226.256015 -37.55625 
L 227.348679 -37.55625 
L 228.441342 -37.55625 
L 229.534005 -37.55625 
L 230.626668 -37.55625 
L 231.719331 -37.55625 
L 232.811995 -37.55625 
L 233.904658 -37.55625 
L 234.997321 -37.55625 
L 236.089984 -37.55625 
L 237.182648 -37.55625 
L 238.275311 -37.55625 
L 239.367974 -37.55625 
L 240.460637 -37.55625 
L 241.5533 -37.55625 
L 242.645964 -37.55625 
L 243.738627 -37.55625 
L 244.83129 -37.55625 
L 245.923953 -37.55625 
L 247.016616 -37.55625 
L 248.10928 -37.55625 
L 249.201943 -37.55625 
L 250.294606 -37.55625 
L 251.387269 -37.55625 
L 252.479933 -37.55625 
L 253.572596 -37.55625 
L 254.665259 -37.55625 
L 255.757922 -37.55625 
L 256.850585 -37.55625 
L 257.943249 -37.55625 
L 259.035912 -37.55625 
L 260.128575 -37.55625 
L 261.221238 -37.55625 
L 261.221238 -140.230023 
L 261.221238 -140.230023 
L 260.128575 -242.160559 
L 259.035912 -241.939171 
L 257.943249 -240.264626 
L 256.850585 -238.532587 
L 255.757922 -237.544809 
L 254.665259 -237.152594 
L 253.572596 -239.092234 
L 252.479933 -236.345369 
L 251.387269 -236.143696 
L 250.294606 -232.845368 
L 249.201943 -231.964367 
L 248.10928 -232.152517 
L 247.016616 -232.358062 
L 245.923953 -232.655422 
L 244.83129 -231.198679 
L 243.738627 -230.765818 
L 242.645964 -229.915299 
L 241.5533 -229.058165 
L 240.460637 -230.950036 
L 239.367974 -230.089577 
L 238.275311 -228.698698 
L 237.182648 -228.635902 
L 236.089984 -227.122039 
L 234.997321 -226.344656 
L 233.904658 -224.503468 
L 232.811995 -223.179157 
L 231.719331 -222.572349 
L 230.626668 -224.311215 
L 229.534005 -222.464549 
L 228.441342 -225.908611 
L 227.348679 -224.694747 
L 226.256015 -223.855276 
L 225.163352 -223.730174 
L 224.070689 -219.664272 
L 222.978026 -222.730787 
L 221.885362 -220.727578 
L 220.792699 -221.78895 
L 219.700036 -219.821539 
L 218.607373 -217.144333 
L 217.51471 -220.708405 
L 216.422046 -220.128015 
L 215.329383 -216.921897 
L 214.23672 -216.369476 
L 213.144057 -218.831039 
L 212.051394 -215.587002 
L 210.95873 -216.581808 
L 209.866067 -217.92888 
L 208.773404 -216.778116 
L 207.680741 -214.245493 
L 206.588077 -212.811579 
L 205.495414 -214.559964 
L 204.402751 -217.092987 
L 203.310088 -217.099277 
L 202.217425 -213.718872 
L 201.124761 -217.092296 
L 200.032098 -217.265126 
L 198.939435 -213.943347 
L 197.846772 -215.585375 
L 196.754108 -214.738301 
L 195.661445 -212.793714 
L 194.568782 -213.620263 
L 193.476119 -214.620354 
L 192.383456 -213.059389 
L 191.290792 -214.914771 
L 190.198129 -213.472941 
L 189.105466 -210.212325 
L 188.012803 -213.142964 
L 186.92014 -215.192147 
L 185.827476 -212.423896 
L 184.734813 -210.450584 
L 183.64215 -211.56556 
L 182.549487 -212.114167 
L 181.456823 -211.157234 
L 180.36416 -209.422714 
L 179.271497 -209.623295 
L 178.178834 -213.828708 
L 177.086171 -212.475765 
L 175.993507 -208.529873 
L 174.900844 -209.757477 
L 173.808181 -211.098268 
L 172.715518 -208.321076 
L 171.622854 -208.893439 
L 170.530191 -208.619399 
L 169.437528 -209.917111 
L 168.344865 -211.919025 
L 167.252202 -208.6962 
L 166.159538 -209.069917 
L 165.066875 -210.987924 
L 163.974212 -209.349554 
L 162.881549 -210.321289 
L 161.788886 -208.336082 
L 160.696222 -210.631306 
L 159.603559 -210.272395 
L 158.510896 -212.155138 
L 157.418233 -210.193465 
L 156.325569 -212.096674 
L 155.232906 -210.785217 
L 154.140243 -211.148776 
L 153.04758 -214.629906 
L 151.954917 -208.316259 
L 150.862253 -208.476482 
L 149.76959 -209.520554 
L 148.676927 -208.953694 
L 147.584264 -210.251843 
L 146.4916 -209.02247 
L 145.398937 -211.014223 
L 144.306274 -206.374966 
L 143.213611 -211.073197 
L 142.120948 -207.891915 
L 141.028284 -210.059438 
L 139.935621 -206.52977 
L 138.842958 -212.015407 
L 137.750295 -210.073449 
L 136.657632 -211.070216 
L 135.564968 -208.08777 
L 134.472305 -208.679141 
L 133.379642 -211.215178 
L 132.286979 -211.799374 
L 131.194315 -210.210107 
L 130.101652 -210.146685 
L 129.008989 -212.620216 
L 127.916326 -208.170742 
L 126.823663 -212.30496 
L 125.730999 -211.120042 
L 124.638336 -207.653035 
L 123.545673 -213.386142 
L 122.45301 -210.188462 
L 121.360346 -210.71664 
L 120.267683 -211.700583 
L 119.17502 -209.69269 
L 118.082357 -212.530131 
L 116.989694 -209.621887 
L 115.89703 -213.463282 
L 114.804367 -213.907634 
L 113.711704 -213.087058 
L 112.619041 -214.013796 
L 111.526377 -214.819877 
L 110.433714 -212.908089 
L 109.341051 -214.514296 
L 108.248388 -210.238445 
L 107.155725 -212.691486 
L 106.063061 -216.858875 
L 104.970398 -216.211383 
L 103.877735 -215.940268 
L 102.785072 -214.942143 
L 101.692409 -215.21074 
L 100.599745 -214.835128 
L 99.507082 -214.627123 
L 98.414419 -214.191399 
L 97.321756 -215.382873 
L 96.229092 -215.893848 
L 95.136429 -218.284841 
L 94.043766 -217.825267 
L 92.951103 -218.304634 
L 91.85844 -217.431776 
L 90.765776 -216.65298 
L 89.673113 -217.711475 
L 88.58045 -219.809514 
L 87.487787 -217.08559 
L 86.395123 -223.234463 
L 85.30246 -218.452702 
L 84.209797 -219.549484 
L 83.117134 -219.858623 
L 82.024471 -221.826994 
L 80.931807 -225.162261 
L 79.839144 -220.738274 
L 78.746481 -222.668285 
L 77.653818 -223.759513 
L 76.561155 -223.107626 
L 75.468491 -223.622417 
L 74.375828 -222.636668 
L 73.283165 -225.875302 
L 72.190502 -224.179652 
L 71.097838 -226.177714 
L 70.005175 -230.252967 
L 68.912512 -226.728086 
L 67.819849 -227.07626 
L 66.727186 -228.798991 
L 65.634522 -229.7466 
L 64.541859 -230.281176 
L 63.449196 -228.019506 
L 62.356533 -231.742578 
L 61.263869 -231.0908 
L 60.171206 -232.059159 
L 59.078543 -233.612118 
L 57.98588 -233.09098 
L 56.893217 -234.002718 
L 55.800553 -233.665134 
L 54.70789 -236.054225 
L 53.615227 -237.312777 
L 52.522564 -238.227987 
L 51.429901 -237.336081 
L 50.337237 -236.936206 
L 49.244574 -239.134603 
L 48.151911 -240.130408 
L 47.059248 -240.68756 
L 45.966584 -244.641964 
L 44.873921 -243.241222 
L 43.781258 -141.130909 
z
" id="mc1f7fbb3da" style="stroke:#1f77b4;"/>
    </defs>
    <g clip-path="url(#p930ca83889)">
     <use style="fill:#1f77b4;fill-opacity:0.25;stroke:#1f77b4;" x="0" xlink:href="#mc1f7fbb3da" y="262.19625"/>
    </g>
   </g>
   <g id="matplotlib.axis_1">
    <g id="xtick_1">
     <g id="line2d_1">
      <defs>
       <path d="M 0 0 
L 0 3.5 
" id="m0fda77bc38" style="stroke:#000000;stroke-width:0.8;"/>
      </defs>
      <g>
       <use style="stroke:#000000;stroke-width:0.8;" x="43.78125" xlink:href="#m0fda77bc38" y="224.64"/>
      </g>
     </g>
     <g id="text_1">
      <!-- 0.0 -->
      <g transform="translate(35.829688 239.238437)scale(0.1 -0.1)">
       <defs>
        <path d="M 31.78125 66.40625 
Q 24.171875 66.40625 20.328125 58.90625 
Q 16.5 51.421875 16.5 36.375 
Q 16.5 21.390625 20.328125 13.890625 
Q 24.171875 6.390625 31.78125 6.390625 
Q 39.453125 6.390625 43.28125 13.890625 
Q 47.125 21.390625 47.125 36.375 
Q 47.125 51.421875 43.28125 58.90625 
Q 39.453125 66.40625 31.78125 66.40625 
z
M 31.78125 74.21875 
Q 44.046875 74.21875 50.515625 64.515625 
Q 56.984375 54.828125 56.984375 36.375 
Q 56.984375 17.96875 50.515625 8.265625 
Q 44.046875 -1.421875 31.78125 -1.421875 
Q 19.53125 -1.421875 13.0625 8.265625 
Q 6.59375 17.96875 6.59375 36.375 
Q 6.59375 54.828125 13.0625 64.515625 
Q 19.53125 74.21875 31.78125 74.21875 
z
" id="DejaVuSans-48"/>
        <path d="M 10.6875 12.40625 
L 21 12.40625 
L 21 0 
L 10.6875 0 
z
" id="DejaVuSans-46"/>
       </defs>
       <use xlink:href="#DejaVuSans-48"/>
       <use x="63.623047" xlink:href="#DejaVuSans-46"/>
       <use x="95.410156" xlink:href="#DejaVuSans-48"/>
      </g>
     </g>
    </g>
    <g id="xtick_2">
     <g id="line2d_2">
      <g>
       <use style="stroke:#000000;stroke-width:0.8;" x="87.26925" xlink:href="#m0fda77bc38" y="224.64"/>
      </g>
     </g>
     <g id="text_2">
      <!-- 0.2 -->
      <g transform="translate(79.317688 239.238437)scale(0.1 -0.1)">
       <defs>
        <path d="M 19.1875 8.296875 
L 53.609375 8.296875 
L 53.609375 0 
L 7.328125 0 
L 7.328125 8.296875 
Q 12.9375 14.109375 22.625 23.890625 
Q 32.328125 33.6875 34.8125 36.53125 
Q 39.546875 41.84375 41.421875 45.53125 
Q 43.3125 49.21875 43.3125 52.78125 
Q 43.3125 58.59375 39.234375 62.25 
Q 35.15625 65.921875 28.609375 65.921875 
Q 23.96875 65.921875 18.8125 64.3125 
Q 13.671875 62.703125 7.8125 59.421875 
L 7.8125 69.390625 
Q 13.765625 71.78125 18.9375 73 
Q 24.125 74.21875 28.421875 74.21875 
Q 39.75 74.21875 46.484375 68.546875 
Q 53.21875 62.890625 53.21875 53.421875 
Q 53.21875 48.921875 51.53125 44.890625 
Q 49.859375 40.875 45.40625 35.40625 
Q 44.1875 33.984375 37.640625 27.21875 
Q 31.109375 20.453125 19.1875 8.296875 
z
" id="DejaVuSans-50"/>
       </defs>
       <use xlink:href="#DejaVuSans-48"/>
       <use x="63.623047" xlink:href="#DejaVuSans-46"/>
       <use x="95.410156" xlink:href="#DejaVuSans-50"/>
      </g>
     </g>
    </g>
    <g id="xtick_3">
     <g id="line2d_3">
      <g>
       <use style="stroke:#000000;stroke-width:0.8;" x="130.75725" xlink:href="#m0fda77bc38" y="224.64"/>
      </g>
     </g>
     <g id="text_3">
      <!-- 0.4 -->
      <g transform="translate(122.805688 239.238437)scale(0.1 -0.1)">
       <defs>
        <path d="M 37.796875 64.3125 
L 12.890625 25.390625 
L 37.796875 25.390625 
z
M 35.203125 72.90625 
L 47.609375 72.90625 
L 47.609375 25.390625 
L 58.015625 25.390625 
L 58.015625 17.1875 
L 47.609375 17.1875 
L 47.609375 0 
L 37.796875 0 
L 37.796875 17.1875 
L 4.890625 17.1875 
L 4.890625 26.703125 
z
" id="DejaVuSans-52"/>
       </defs>
       <use xlink:href="#DejaVuSans-48"/>
       <use x="63.623047" xlink:href="#DejaVuSans-46"/>
       <use x="95.410156" xlink:href="#DejaVuSans-52"/>
      </g>
     </g>
    </g>
    <g id="xtick_4">
     <g id="line2d_4">
      <g>
       <use style="stroke:#000000;stroke-width:0.8;" x="174.24525" xlink:href="#m0fda77bc38" y="224.64"/>
      </g>
     </g>
     <g id="text_4">
      <!-- 0.6 -->
      <g transform="translate(166.293688 239.238437)scale(0.1 -0.1)">
       <defs>
        <path d="M 33.015625 40.375 
Q 26.375 40.375 22.484375 35.828125 
Q 18.609375 31.296875 18.609375 23.390625 
Q 18.609375 15.53125 22.484375 10.953125 
Q 26.375 6.390625 33.015625 6.390625 
Q 39.65625 6.390625 43.53125 10.953125 
Q 47.40625 15.53125 47.40625 23.390625 
Q 47.40625 31.296875 43.53125 35.828125 
Q 39.65625 40.375 33.015625 40.375 
z
M 52.59375 71.296875 
L 52.59375 62.3125 
Q 48.875 64.0625 45.09375 64.984375 
Q 41.3125 65.921875 37.59375 65.921875 
Q 27.828125 65.921875 22.671875 59.328125 
Q 17.53125 52.734375 16.796875 39.40625 
Q 19.671875 43.65625 24.015625 45.921875 
Q 28.375 48.1875 33.59375 48.1875 
Q 44.578125 48.1875 50.953125 41.515625 
Q 57.328125 34.859375 57.328125 23.390625 
Q 57.328125 12.15625 50.6875 5.359375 
Q 44.046875 -1.421875 33.015625 -1.421875 
Q 20.359375 -1.421875 13.671875 8.265625 
Q 6.984375 17.96875 6.984375 36.375 
Q 6.984375 53.65625 15.1875 63.9375 
Q 23.390625 74.21875 37.203125 74.21875 
Q 40.921875 74.21875 44.703125 73.484375 
Q 48.484375 72.75 52.59375 71.296875 
z
" id="DejaVuSans-54"/>
       </defs>
       <use xlink:href="#DejaVuSans-48"/>
       <use x="63.623047" xlink:href="#DejaVuSans-46"/>
       <use x="95.410156" xlink:href="#DejaVuSans-54"/>
      </g>
     </g>
    </g>
    <g id="xtick_5">
     <g id="line2d_5">
      <g>
       <use style="stroke:#000000;stroke-width:0.8;" x="217.73325" xlink:href="#m0fda77bc38" y="224.64"/>
      </g>
     </g>
     <g id="text_5">
      <!-- 0.8 -->
      <g transform="translate(209.781688 239.238437)scale(0.1 -0.1)">
       <defs>
        <path d="M 31.78125 34.625 
Q 24.75 34.625 20.71875 30.859375 
Q 16.703125 27.09375 16.703125 20.515625 
Q 16.703125 13.921875 20.71875 10.15625 
Q 24.75 6.390625 31.78125 6.390625 
Q 38.8125 6.390625 42.859375 10.171875 
Q 46.921875 13.96875 46.921875 20.515625 
Q 46.921875 27.09375 42.890625 30.859375 
Q 38.875 34.625 31.78125 34.625 
z
M 21.921875 38.8125 
Q 15.578125 40.375 12.03125 44.71875 
Q 8.5 49.078125 8.5 55.328125 
Q 8.5 64.0625 14.71875 69.140625 
Q 20.953125 74.21875 31.78125 74.21875 
Q 42.671875 74.21875 48.875 69.140625 
Q 55.078125 64.0625 55.078125 55.328125 
Q 55.078125 49.078125 51.53125 44.71875 
Q 48 40.375 41.703125 38.8125 
Q 48.828125 37.15625 52.796875 32.3125 
Q 56.78125 27.484375 56.78125 20.515625 
Q 56.78125 9.90625 50.3125 4.234375 
Q 43.84375 -1.421875 31.78125 -1.421875 
Q 19.734375 -1.421875 13.25 4.234375 
Q 6.78125 9.90625 6.78125 20.515625 
Q 6.78125 27.484375 10.78125 32.3125 
Q 14.796875 37.15625 21.921875 38.8125 
z
M 18.3125 54.390625 
Q 18.3125 48.734375 21.84375 45.5625 
Q 25.390625 42.390625 31.78125 42.390625 
Q 38.140625 42.390625 41.71875 45.5625 
Q 45.3125 48.734375 45.3125 54.390625 
Q 45.3125 60.0625 41.71875 63.234375 
Q 38.140625 66.40625 31.78125 66.40625 
Q 25.390625 66.40625 21.84375 63.234375 
Q 18.3125 60.0625 18.3125 54.390625 
z
" id="DejaVuSans-56"/>
       </defs>
       <use xlink:href="#DejaVuSans-48"/>
       <use x="63.623047" xlink:href="#DejaVuSans-46"/>
       <use x="95.410156" xlink:href="#DejaVuSans-56"/>
      </g>
     </g>
    </g>
    <g id="xtick_6">
     <g id="line2d_6">
      <g>
       <use style="stroke:#000000;stroke-width:0.8;" x="261.22125" xlink:href="#m0fda77bc38" y="224.64"/>
      </g>
     </g>
     <g id="text_6">
      <!-- 1.0 -->
      <g transform="translate(253.269688 239.238437)scale(0.1 -0.1)">
       <defs>
        <path d="M 12.40625 8.296875 
L 28.515625 8.296875 
L 28.515625 63.921875 
L 10.984375 60.40625 
L 10.984375 69.390625 
L 28.421875 72.90625 
L 38.28125 72.90625 
L 38.28125 8.296875 
L 54.390625 8.296875 
L 54.390625 0 
L 12.40625 0 
z
" id="DejaVuSans-49"/>
       </defs>
       <use xlink:href="#DejaVuSans-49"/>
       <use x="63.623047" xlink:href="#DejaVuSans-46"/>
       <use x="95.410156" xlink:href="#DejaVuSans-48"/>
      </g>
     </g>
    </g>
    <g id="text_7">
     <!-- $p_1$ -->
     <g transform="translate(146.95125 252.89625)scale(0.1 -0.1)">
      <defs>
       <path d="M 49.609375 33.6875 
Q 49.609375 40.875 46.484375 44.671875 
Q 43.359375 48.484375 37.5 48.484375 
Q 33.5 48.484375 29.859375 46.4375 
Q 26.21875 44.390625 23.390625 40.484375 
Q 20.609375 36.625 18.9375 31.15625 
Q 17.28125 25.6875 17.28125 20.3125 
Q 17.28125 13.484375 20.40625 9.796875 
Q 23.53125 6.109375 29.296875 6.109375 
Q 33.546875 6.109375 37.1875 8.109375 
Q 40.828125 10.109375 43.40625 13.921875 
Q 46.1875 17.921875 47.890625 23.34375 
Q 49.609375 28.765625 49.609375 33.6875 
z
M 21.78125 46.390625 
Q 25.390625 51.125 30.296875 53.5625 
Q 35.203125 56 41.21875 56 
Q 49.609375 56 54.25 50.5 
Q 58.890625 45.015625 58.890625 35.109375 
Q 58.890625 27 56 19.65625 
Q 53.125 12.3125 47.703125 6.5 
Q 44.09375 2.640625 39.546875 0.609375 
Q 35.015625 -1.421875 29.984375 -1.421875 
Q 24.171875 -1.421875 20.21875 1 
Q 16.265625 3.421875 14.3125 8.203125 
L 8.6875 -20.796875 
L -0.296875 -20.796875 
L 14.40625 54.6875 
L 23.390625 54.6875 
z
" id="DejaVuSans-Oblique-112"/>
      </defs>
      <use xlink:href="#DejaVuSans-Oblique-112"/>
      <use transform="translate(63.476562 -16.40625)scale(0.7)" xlink:href="#DejaVuSans-49"/>
     </g>
    </g>
   </g>
   <g id="matplotlib.axis_2">
    <g id="ytick_1">
     <g id="line2d_7">
      <defs>
       <path d="M 0 0 
L -3.5 0 
" id="m127e4143c6" style="stroke:#000000;stroke-width:0.8;"/>
      </defs>
      <g>
       <use style="stroke:#000000;stroke-width:0.8;" x="43.78125" xlink:href="#m127e4143c6" y="224.64"/>
      </g>
     </g>
     <g id="text_8">
      <!-- 0.0 -->
      <g transform="translate(20.878125 228.439219)scale(0.1 -0.1)">
       <use xlink:href="#DejaVuSans-48"/>
       <use x="63.623047" xlink:href="#DejaVuSans-46"/>
       <use x="95.410156" xlink:href="#DejaVuSans-48"/>
      </g>
     </g>
    </g>
    <g id="ytick_2">
     <g id="line2d_8">
      <g>
       <use style="stroke:#000000;stroke-width:0.8;" x="43.78125" xlink:href="#m127e4143c6" y="188.249307"/>
      </g>
     </g>
     <g id="text_9">
      <!-- 0.2 -->
      <g transform="translate(20.878125 192.048526)scale(0.1 -0.1)">
       <use xlink:href="#DejaVuSans-48"/>
       <use x="63.623047" xlink:href="#DejaVuSans-46"/>
       <use x="95.410156" xlink:href="#DejaVuSans-50"/>
      </g>
     </g>
    </g>
    <g id="ytick_3">
     <g id="line2d_9">
      <g>
       <use style="stroke:#000000;stroke-width:0.8;" x="43.78125" xlink:href="#m127e4143c6" y="151.858614"/>
      </g>
     </g>
     <g id="text_10">
      <!-- 0.4 -->
      <g transform="translate(20.878125 155.657833)scale(0.1 -0.1)">
       <use xlink:href="#DejaVuSans-48"/>
       <use x="63.623047" xlink:href="#DejaVuSans-46"/>
       <use x="95.410156" xlink:href="#DejaVuSans-52"/>
      </g>
     </g>
    </g>
    <g id="ytick_4">
     <g id="line2d_10">
      <g>
       <use style="stroke:#000000;stroke-width:0.8;" x="43.78125" xlink:href="#m127e4143c6" y="115.467922"/>
      </g>
     </g>
     <g id="text_11">
      <!-- 0.6 -->
      <g transform="translate(20.878125 119.26714)scale(0.1 -0.1)">
       <use xlink:href="#DejaVuSans-48"/>
       <use x="63.623047" xlink:href="#DejaVuSans-46"/>
       <use x="95.410156" xlink:href="#DejaVuSans-54"/>
      </g>
     </g>
    </g>
    <g id="ytick_5">
     <g id="line2d_11">
      <g>
       <use style="stroke:#000000;stroke-width:0.8;" x="43.78125" xlink:href="#m127e4143c6" y="79.077229"/>
      </g>
     </g>
     <g id="text_12">
      <!-- 0.8 -->
      <g transform="translate(20.878125 82.876448)scale(0.1 -0.1)">
       <use xlink:href="#DejaVuSans-48"/>
       <use x="63.623047" xlink:href="#DejaVuSans-46"/>
       <use x="95.410156" xlink:href="#DejaVuSans-56"/>
      </g>
     </g>
    </g>
    <g id="ytick_6">
     <g id="line2d_12">
      <g>
       <use style="stroke:#000000;stroke-width:0.8;" x="43.78125" xlink:href="#m127e4143c6" y="42.686536"/>
      </g>
     </g>
     <g id="text_13">
      <!-- 1.0 -->
      <g transform="translate(20.878125 46.485755)scale(0.1 -0.1)">
       <use xlink:href="#DejaVuSans-49"/>
       <use x="63.623047" xlink:href="#DejaVuSans-46"/>
       <use x="95.410156" xlink:href="#DejaVuSans-48"/>
      </g>
     </g>
    </g>
    <g id="text_14">
     <!-- Density -->
     <g transform="translate(14.798438 134.928594)rotate(-90)scale(0.1 -0.1)">
      <defs>
       <path d="M 19.671875 64.796875 
L 19.671875 8.109375 
L 31.59375 8.109375 
Q 46.6875 8.109375 53.6875 14.9375 
Q 60.6875 21.78125 60.6875 36.53125 
Q 60.6875 51.171875 53.6875 57.984375 
Q 46.6875 64.796875 31.59375 64.796875 
z
M 9.8125 72.90625 
L 30.078125 72.90625 
Q 51.265625 72.90625 61.171875 64.09375 
Q 71.09375 55.28125 71.09375 36.53125 
Q 71.09375 17.671875 61.125 8.828125 
Q 51.171875 0 30.078125 0 
L 9.8125 0 
z
" id="DejaVuSans-68"/>
       <path d="M 56.203125 29.59375 
L 56.203125 25.203125 
L 14.890625 25.203125 
Q 15.484375 15.921875 20.484375 11.0625 
Q 25.484375 6.203125 34.421875 6.203125 
Q 39.59375 6.203125 44.453125 7.46875 
Q 49.3125 8.734375 54.109375 11.28125 
L 54.109375 2.78125 
Q 49.265625 0.734375 44.1875 -0.34375 
Q 39.109375 -1.421875 33.890625 -1.421875 
Q 20.796875 -1.421875 13.15625 6.1875 
Q 5.515625 13.8125 5.515625 26.8125 
Q 5.515625 40.234375 12.765625 48.109375 
Q 20.015625 56 32.328125 56 
Q 43.359375 56 49.78125 48.890625 
Q 56.203125 41.796875 56.203125 29.59375 
z
M 47.21875 32.234375 
Q 47.125 39.59375 43.09375 43.984375 
Q 39.0625 48.390625 32.421875 48.390625 
Q 24.90625 48.390625 20.390625 44.140625 
Q 15.875 39.890625 15.1875 32.171875 
z
" id="DejaVuSans-101"/>
       <path d="M 54.890625 33.015625 
L 54.890625 0 
L 45.90625 0 
L 45.90625 32.71875 
Q 45.90625 40.484375 42.875 44.328125 
Q 39.84375 48.1875 33.796875 48.1875 
Q 26.515625 48.1875 22.3125 43.546875 
Q 18.109375 38.921875 18.109375 30.90625 
L 18.109375 0 
L 9.078125 0 
L 9.078125 54.6875 
L 18.109375 54.6875 
L 18.109375 46.1875 
Q 21.34375 51.125 25.703125 53.5625 
Q 30.078125 56 35.796875 56 
Q 45.21875 56 50.046875 50.171875 
Q 54.890625 44.34375 54.890625 33.015625 
z
" id="DejaVuSans-110"/>
       <path d="M 44.28125 53.078125 
L 44.28125 44.578125 
Q 40.484375 46.53125 36.375 47.5 
Q 32.28125 48.484375 27.875 48.484375 
Q 21.1875 48.484375 17.84375 46.4375 
Q 14.5 44.390625 14.5 40.28125 
Q 14.5 37.15625 16.890625 35.375 
Q 19.28125 33.59375 26.515625 31.984375 
L 29.59375 31.296875 
Q 39.15625 29.25 43.1875 25.515625 
Q 47.21875 21.78125 47.21875 15.09375 
Q 47.21875 7.46875 41.1875 3.015625 
Q 35.15625 -1.421875 24.609375 -1.421875 
Q 20.21875 -1.421875 15.453125 -0.5625 
Q 10.6875 0.296875 5.421875 2 
L 5.421875 11.28125 
Q 10.40625 8.6875 15.234375 7.390625 
Q 20.0625 6.109375 24.8125 6.109375 
Q 31.15625 6.109375 34.5625 8.28125 
Q 37.984375 10.453125 37.984375 14.40625 
Q 37.984375 18.0625 35.515625 20.015625 
Q 33.0625 21.96875 24.703125 23.78125 
L 21.578125 24.515625 
Q 13.234375 26.265625 9.515625 29.90625 
Q 5.8125 33.546875 5.8125 39.890625 
Q 5.8125 47.609375 11.28125 51.796875 
Q 16.75 56 26.8125 56 
Q 31.78125 56 36.171875 55.265625 
Q 40.578125 54.546875 44.28125 53.078125 
z
" id="DejaVuSans-115"/>
       <path d="M 9.421875 54.6875 
L 18.40625 54.6875 
L 18.40625 0 
L 9.421875 0 
z
M 9.421875 75.984375 
L 18.40625 75.984375 
L 18.40625 64.59375 
L 9.421875 64.59375 
z
" id="DejaVuSans-105"/>
       <path d="M 18.3125 70.21875 
L 18.3125 54.6875 
L 36.8125 54.6875 
L 36.8125 47.703125 
L 18.3125 47.703125 
L 18.3125 18.015625 
Q 18.3125 11.328125 20.140625 9.421875 
Q 21.96875 7.515625 27.59375 7.515625 
L 36.8125 7.515625 
L 36.8125 0 
L 27.59375 0 
Q 17.1875 0 13.234375 3.875 
Q 9.28125 7.765625 9.28125 18.015625 
L 9.28125 47.703125 
L 2.6875 47.703125 
L 2.6875 54.6875 
L 9.28125 54.6875 
L 9.28125 70.21875 
z
" id="DejaVuSans-116"/>
       <path d="M 32.171875 -5.078125 
Q 28.375 -14.84375 24.75 -17.8125 
Q 21.140625 -20.796875 15.09375 -20.796875 
L 7.90625 -20.796875 
L 7.90625 -13.28125 
L 13.1875 -13.28125 
Q 16.890625 -13.28125 18.9375 -11.515625 
Q 21 -9.765625 23.484375 -3.21875 
L 25.09375 0.875 
L 2.984375 54.6875 
L 12.5 54.6875 
L 29.59375 11.921875 
L 46.6875 54.6875 
L 56.203125 54.6875 
z
" id="DejaVuSans-121"/>
      </defs>
      <use xlink:href="#DejaVuSans-68"/>
      <use x="77.001953" xlink:href="#DejaVuSans-101"/>
      <use x="138.525391" xlink:href="#DejaVuSans-110"/>
      <use x="201.904297" xlink:href="#DejaVuSans-115"/>
      <use x="254.003906" xlink:href="#DejaVuSans-105"/>
      <use x="281.787109" xlink:href="#DejaVuSans-116"/>
      <use x="320.996094" xlink:href="#DejaVuSans-121"/>
     </g>
    </g>
   </g>
   <g id="patch_3">
    <path d="M 43.78125 224.64 
L 43.78125 7.2 
" style="fill:none;stroke:#000000;stroke-linecap:square;stroke-linejoin:miter;stroke-width:0.8;"/>
   </g>
   <g id="patch_4">
    <path d="M 261.22125 224.64 
L 261.22125 7.2 
" style="fill:none;stroke:#000000;stroke-linecap:square;stroke-linejoin:miter;stroke-width:0.8;"/>
   </g>
   <g id="patch_5">
    <path d="M 43.78125 224.64 
L 261.22125 224.64 
" style="fill:none;stroke:#000000;stroke-linecap:square;stroke-linejoin:miter;stroke-width:0.8;"/>
   </g>
   <g id="patch_6">
    <path d="M 43.78125 7.2 
L 261.22125 7.2 
" style="fill:none;stroke:#000000;stroke-linecap:square;stroke-linejoin:miter;stroke-width:0.8;"/>
   </g>
  </g>
 </g>
 <defs>
  <clipPath id="p930ca83889">
   <rect height="217.44" width="217.44" x="43.78125" y="7.2"/>
  </clipPath>
 </defs>
</svg>
