<?xml version="1.0" encoding="utf-8" standalone="no"?>
<!DOCTYPE svg PUBLIC "-//W3C//DTD SVG 1.1//EN"
  "http://www.w3.org/Graphics/SVG/1.1/DTD/svg11.dtd">
<!-- Created with matplotlib (https://matplotlib.org/) -->
<svg height="262.19625pt" version="1.1" viewBox="0 0 276.372813 262.19625" width="276.372813pt" xmlns="http://www.w3.org/2000/svg" xmlns:xlink="http://www.w3.org/1999/xlink">
 <metadata>
  <rdf:RDF xmlns:cc="http://creativecommons.org/ns#" xmlns:dc="http://purl.org/dc/elements/1.1/" xmlns:rdf="http://www.w3.org/1999/02/22-rdf-syntax-ns#">
   <cc:Work>
    <dc:type rdf:resource="http://purl.org/dc/dcmitype/StillImage"/>
    <dc:date>2020-11-27T00:24:13.567125</dc:date>
    <dc:format>image/svg+xml</dc:format>
    <dc:creator>
     <cc:Agent>
      <dc:title>Matplotlib v3.3.3, https://matplotlib.org/</dc:title>
     </cc:Agent>
    </dc:creator>
   </cc:Work>
  </rdf:RDF>
 </metadata>
 <defs>
  <style type="text/css">*{stroke-linecap:butt;stroke-linejoin:round;}</style>
 </defs>
 <g id="figure_1">
  <g id="patch_1">
   <path d="M 0 262.19625 
L 276.372813 262.19625 
L 276.372813 0 
L 0 0 
z
" style="fill:none;"/>
  </g>
  <g id="axes_1">
   <g id="patch_2">
    <path d="M 43.78125 224.64 
L 261.22125 224.64 
L 261.22125 7.2 
L 43.78125 7.2 
z
" style="fill:#ffffff;"/>
   </g>
   <g id="PolyCollection_1">
    <defs>
     <path d="M 42.820726 -37.809915 
L 42.820726 -37.55625 
L 43.923041 -37.55625 
L 45.025356 -37.55625 
L 46.127671 -37.55625 
L 47.229985 -37.55625 
L 48.3323 -37.55625 
L 49.434615 -37.55625 
L 50.53693 -37.55625 
L 51.639245 -37.55625 
L 52.74156 -37.55625 
L 53.843875 -37.55625 
L 54.94619 -37.55625 
L 56.048504 -37.55625 
L 57.150819 -37.55625 
L 58.253134 -37.55625 
L 59.355449 -37.55625 
L 60.457764 -37.55625 
L 61.560079 -37.55625 
L 62.662394 -37.55625 
L 63.764708 -37.55625 
L 64.867023 -37.55625 
L 65.969338 -37.55625 
L 67.071653 -37.55625 
L 68.173968 -37.55625 
L 69.276283 -37.55625 
L 70.378598 -37.55625 
L 71.480912 -37.55625 
L 72.583227 -37.55625 
L 73.685542 -37.55625 
L 74.787857 -37.55625 
L 75.890172 -37.55625 
L 76.992487 -37.55625 
L 78.094802 -37.55625 
L 79.197117 -37.55625 
L 80.299431 -37.55625 
L 81.401746 -37.55625 
L 82.504061 -37.55625 
L 83.606376 -37.55625 
L 84.708691 -37.55625 
L 85.811006 -37.55625 
L 86.913321 -37.55625 
L 88.015635 -37.55625 
L 89.11795 -37.55625 
L 90.220265 -37.55625 
L 91.32258 -37.55625 
L 92.424895 -37.55625 
L 93.52721 -37.55625 
L 94.629525 -37.55625 
L 95.731839 -37.55625 
L 96.834154 -37.55625 
L 97.936469 -37.55625 
L 99.038784 -37.55625 
L 100.141099 -37.55625 
L 101.243414 -37.55625 
L 102.345729 -37.55625 
L 103.448043 -37.55625 
L 104.550358 -37.55625 
L 105.652673 -37.55625 
L 106.754988 -37.55625 
L 107.857303 -37.55625 
L 108.959618 -37.55625 
L 110.061933 -37.55625 
L 111.164248 -37.55625 
L 112.266562 -37.55625 
L 113.368877 -37.55625 
L 114.471192 -37.55625 
L 115.573507 -37.55625 
L 116.675822 -37.55625 
L 117.778137 -37.55625 
L 118.880452 -37.55625 
L 119.982766 -37.55625 
L 121.085081 -37.55625 
L 122.187396 -37.55625 
L 123.289711 -37.55625 
L 124.392026 -37.55625 
L 125.494341 -37.55625 
L 126.596656 -37.55625 
L 127.69897 -37.55625 
L 128.801285 -37.55625 
L 129.9036 -37.55625 
L 131.005915 -37.55625 
L 132.10823 -37.55625 
L 133.210545 -37.55625 
L 134.31286 -37.55625 
L 135.415175 -37.55625 
L 136.517489 -37.55625 
L 137.619804 -37.55625 
L 138.722119 -37.55625 
L 139.824434 -37.55625 
L 140.926749 -37.55625 
L 142.029064 -37.55625 
L 143.131379 -37.55625 
L 144.233693 -37.55625 
L 145.336008 -37.55625 
L 146.438323 -37.55625 
L 147.540638 -37.55625 
L 148.642953 -37.55625 
L 149.745268 -37.55625 
L 150.847583 -37.55625 
L 151.949897 -37.55625 
L 153.052212 -37.55625 
L 154.154527 -37.55625 
L 155.256842 -37.55625 
L 156.359157 -37.55625 
L 157.461472 -37.55625 
L 158.563787 -37.55625 
L 159.666102 -37.55625 
L 160.768416 -37.55625 
L 161.870731 -37.55625 
L 162.973046 -37.55625 
L 164.075361 -37.55625 
L 165.177676 -37.55625 
L 166.279991 -37.55625 
L 167.382306 -37.55625 
L 168.48462 -37.55625 
L 169.586935 -37.55625 
L 170.68925 -37.55625 
L 171.791565 -37.55625 
L 172.89388 -37.55625 
L 173.996195 -37.55625 
L 175.09851 -37.55625 
L 176.200824 -37.55625 
L 177.303139 -37.55625 
L 178.405454 -37.55625 
L 179.507769 -37.55625 
L 180.610084 -37.55625 
L 181.712399 -37.55625 
L 182.814714 -37.55625 
L 183.917029 -37.55625 
L 185.019343 -37.55625 
L 186.121658 -37.55625 
L 187.223973 -37.55625 
L 188.326288 -37.55625 
L 189.428603 -37.55625 
L 190.530918 -37.55625 
L 191.633233 -37.55625 
L 192.735547 -37.55625 
L 193.837862 -37.55625 
L 194.940177 -37.55625 
L 196.042492 -37.55625 
L 197.144807 -37.55625 
L 198.247122 -37.55625 
L 199.349437 -37.55625 
L 200.451751 -37.55625 
L 201.554066 -37.55625 
L 202.656381 -37.55625 
L 203.758696 -37.55625 
L 204.861011 -37.55625 
L 205.963326 -37.55625 
L 207.065641 -37.55625 
L 208.167955 -37.55625 
L 209.27027 -37.55625 
L 210.372585 -37.55625 
L 211.4749 -37.55625 
L 212.577215 -37.55625 
L 213.67953 -37.55625 
L 214.781845 -37.55625 
L 215.88416 -37.55625 
L 216.986474 -37.55625 
L 218.088789 -37.55625 
L 219.191104 -37.55625 
L 220.293419 -37.55625 
L 221.395734 -37.55625 
L 222.498049 -37.55625 
L 223.600364 -37.55625 
L 224.702678 -37.55625 
L 225.804993 -37.55625 
L 226.907308 -37.55625 
L 228.009623 -37.55625 
L 229.111938 -37.55625 
L 230.214253 -37.55625 
L 231.316568 -37.55625 
L 232.418882 -37.55625 
L 233.521197 -37.55625 
L 234.623512 -37.55625 
L 235.725827 -37.55625 
L 236.828142 -37.55625 
L 237.930457 -37.55625 
L 239.032772 -37.55625 
L 240.135087 -37.55625 
L 241.237401 -37.55625 
L 242.339716 -37.55625 
L 243.442031 -37.55625 
L 244.544346 -37.55625 
L 245.646661 -37.55625 
L 246.748976 -37.55625 
L 247.851291 -37.55625 
L 248.953605 -37.55625 
L 250.05592 -37.55625 
L 251.158235 -37.55625 
L 252.26055 -37.55625 
L 253.362865 -37.55625 
L 254.46518 -37.55625 
L 255.567495 -37.55625 
L 256.669809 -37.55625 
L 257.772124 -37.55625 
L 258.874439 -37.55625 
L 259.976754 -37.55625 
L 261.079069 -37.55625 
L 262.181384 -37.55625 
L 262.181384 -37.827671 
L 262.181384 -37.827671 
L 261.079069 -159.349862 
L 259.976754 -235.926358 
L 258.874439 -235.711977 
L 257.772124 -222.997138 
L 256.669809 -230.053909 
L 255.567495 -218.457074 
L 254.46518 -237.443462 
L 253.362865 -233.846718 
L 252.26055 -226.732203 
L 251.158235 -226.907919 
L 250.05592 -220.491677 
L 248.953605 -208.811262 
L 247.851291 -207.761573 
L 246.748976 -217.956098 
L 245.646661 -208.834681 
L 244.544346 -218.334025 
L 243.442031 -221.414456 
L 242.339716 -209.819368 
L 241.237401 -209.336325 
L 240.135087 -232.49024 
L 239.032772 -217.577496 
L 237.930457 -211.529041 
L 236.828142 -209.337847 
L 235.725827 -216.167809 
L 234.623512 -218.867876 
L 233.521197 -218.362925 
L 232.418882 -227.763937 
L 231.316568 -213.620279 
L 230.214253 -218.933939 
L 229.111938 -200.217207 
L 228.009623 -226.809481 
L 226.907308 -205.445748 
L 225.804993 -201.848988 
L 224.702678 -212.4944 
L 223.600364 -194.940427 
L 222.498049 -212.373937 
L 221.395734 -213.718913 
L 220.293419 -205.559406 
L 219.191104 -209.708183 
L 218.088789 -217.604403 
L 216.986474 -216.570592 
L 215.88416 -217.022963 
L 214.781845 -215.111828 
L 213.67953 -205.322309 
L 212.577215 -199.749337 
L 211.4749 -214.005029 
L 210.372585 -198.658445 
L 209.27027 -210.101481 
L 208.167955 -203.374584 
L 207.065641 -213.500671 
L 205.963326 -213.898009 
L 204.861011 -206.301914 
L 203.758696 -198.320419 
L 202.656381 -201.166963 
L 201.554066 -203.03771 
L 200.451751 -203.974787 
L 199.349437 -203.766077 
L 198.247122 -200.762558 
L 197.144807 -205.916569 
L 196.042492 -198.954568 
L 194.940177 -196.211048 
L 193.837862 -202.022914 
L 192.735547 -213.088683 
L 191.633233 -200.356338 
L 190.530918 -190.878291 
L 189.428603 -201.113471 
L 188.326288 -185.579761 
L 187.223973 -192.525916 
L 186.121658 -203.011275 
L 185.019343 -197.301128 
L 183.917029 -196.588639 
L 182.814714 -198.278162 
L 181.712399 -202.200419 
L 180.610084 -199.605328 
L 179.507769 -205.25894 
L 178.405454 -188.625185 
L 177.303139 -208.641119 
L 176.200824 -205.853926 
L 175.09851 -211.406711 
L 173.996195 -199.279514 
L 172.89388 -198.79584 
L 171.791565 -207.683664 
L 170.68925 -208.601577 
L 169.586935 -203.859697 
L 168.48462 -206.368382 
L 167.382306 -203.553664 
L 166.279991 -198.723082 
L 165.177676 -200.554265 
L 164.075361 -210.119126 
L 162.973046 -209.803846 
L 161.870731 -203.970122 
L 160.768416 -192.757411 
L 159.666102 -202.534371 
L 158.563787 -211.801614 
L 157.461472 -206.217125 
L 156.359157 -192.553083 
L 155.256842 -207.892636 
L 154.154527 -205.204565 
L 153.052212 -205.355387 
L 151.949897 -203.697222 
L 150.847583 -197.521343 
L 149.745268 -187.685473 
L 148.642953 -199.35982 
L 147.540638 -192.297546 
L 146.438323 -203.91666 
L 145.336008 -202.674557 
L 144.233693 -196.817094 
L 143.131379 -196.566115 
L 142.029064 -189.640181 
L 140.926749 -200.262131 
L 139.824434 -194.501348 
L 138.722119 -198.208055 
L 137.619804 -203.439272 
L 136.517489 -204.39522 
L 135.415175 -203.582764 
L 134.31286 -204.552797 
L 133.210545 -202.166346 
L 132.10823 -212.384716 
L 131.005915 -190.077494 
L 129.9036 -200.62988 
L 128.801285 -199.550095 
L 127.69897 -197.037168 
L 126.596656 -193.182245 
L 125.494341 -189.355911 
L 124.392026 -197.702106 
L 123.289711 -206.987162 
L 122.187396 -208.394312 
L 121.085081 -211.063804 
L 119.982766 -204.991525 
L 118.880452 -206.034211 
L 117.778137 -210.383529 
L 116.675822 -204.634681 
L 115.573507 -213.985136 
L 114.471192 -199.867595 
L 113.368877 -214.173783 
L 112.266562 -214.504464 
L 111.164248 -203.536364 
L 110.061933 -194.955796 
L 108.959618 -212.22781 
L 107.857303 -189.995016 
L 106.754988 -195.194646 
L 105.652673 -199.896003 
L 104.550358 -200.369947 
L 103.448043 -200.161592 
L 102.345729 -203.853787 
L 101.243414 -208.81361 
L 100.141099 -193.680691 
L 99.038784 -212.348036 
L 97.936469 -214.558646 
L 96.834154 -208.239388 
L 95.731839 -206.209846 
L 94.629525 -202.21176 
L 93.52721 -200.55081 
L 92.424895 -195.528754 
L 91.32258 -195.834509 
L 90.220265 -213.984519 
L 89.11795 -208.712971 
L 88.015635 -208.106285 
L 86.913321 -210.247619 
L 85.811006 -201.784757 
L 84.708691 -203.144299 
L 83.606376 -205.160442 
L 82.504061 -205.807085 
L 81.401746 -211.150401 
L 80.299431 -212.244524 
L 79.197117 -204.506374 
L 78.094802 -223.417783 
L 76.992487 -223.62987 
L 75.890172 -227.572657 
L 74.787857 -213.770425 
L 73.685542 -211.882909 
L 72.583227 -203.168775 
L 71.480912 -208.073279 
L 70.378598 -205.698921 
L 69.276283 -213.553427 
L 68.173968 -215.15447 
L 67.071653 -222.429753 
L 65.969338 -221.361925 
L 64.867023 -210.665041 
L 63.764708 -213.790678 
L 62.662394 -218.604598 
L 61.560079 -213.653586 
L 60.457764 -214.187755 
L 59.355449 -210.394371 
L 58.253134 -221.864198 
L 57.150819 -220.06641 
L 56.048504 -226.528286 
L 54.94619 -203.097995 
L 53.843875 -219.054737 
L 52.74156 -225.081101 
L 51.639245 -221.374909 
L 50.53693 -231.107592 
L 49.434615 -239.438772 
L 48.3323 -244.641964 
L 47.229985 -227.839967 
L 46.127671 -242.489883 
L 45.025356 -238.963774 
L 43.923041 -169.048909 
L 42.820726 -37.809915 
z
" id="m951851bd67" style="stroke:#1f77b4;"/>
    </defs>
    <g clip-path="url(#p76ec2c6b26)">
     <use style="fill:#1f77b4;fill-opacity:0.25;stroke:#1f77b4;" x="0" xlink:href="#m951851bd67" y="262.19625"/>
    </g>
   </g>
   <g id="matplotlib.axis_1">
    <g id="xtick_1">
     <g id="line2d_1">
      <defs>
       <path d="M 0 0 
L 0 3.5 
" id="m81eab7a924" style="stroke:#000000;stroke-width:0.8;"/>
      </defs>
      <g>
       <use style="stroke:#000000;stroke-width:0.8;" x="43.78125" xlink:href="#m81eab7a924" y="224.64"/>
      </g>
     </g>
     <g id="text_1">
      <!-- 0.0 -->
      <g transform="translate(35.829688 239.238437)scale(0.1 -0.1)">
       <defs>
        <path d="M 31.78125 66.40625 
Q 24.171875 66.40625 20.328125 58.90625 
Q 16.5 51.421875 16.5 36.375 
Q 16.5 21.390625 20.328125 13.890625 
Q 24.171875 6.390625 31.78125 6.390625 
Q 39.453125 6.390625 43.28125 13.890625 
Q 47.125 21.390625 47.125 36.375 
Q 47.125 51.421875 43.28125 58.90625 
Q 39.453125 66.40625 31.78125 66.40625 
z
M 31.78125 74.21875 
Q 44.046875 74.21875 50.515625 64.515625 
Q 56.984375 54.828125 56.984375 36.375 
Q 56.984375 17.96875 50.515625 8.265625 
Q 44.046875 -1.421875 31.78125 -1.421875 
Q 19.53125 -1.421875 13.0625 8.265625 
Q 6.59375 17.96875 6.59375 36.375 
Q 6.59375 54.828125 13.0625 64.515625 
Q 19.53125 74.21875 31.78125 74.21875 
z
" id="DejaVuSans-48"/>
        <path d="M 10.6875 12.40625 
L 21 12.40625 
L 21 0 
L 10.6875 0 
z
" id="DejaVuSans-46"/>
       </defs>
       <use xlink:href="#DejaVuSans-48"/>
       <use x="63.623047" xlink:href="#DejaVuSans-46"/>
       <use x="95.410156" xlink:href="#DejaVuSans-48"/>
      </g>
     </g>
    </g>
    <g id="xtick_2">
     <g id="line2d_2">
      <g>
       <use style="stroke:#000000;stroke-width:0.8;" x="87.26925" xlink:href="#m81eab7a924" y="224.64"/>
      </g>
     </g>
     <g id="text_2">
      <!-- 0.2 -->
      <g transform="translate(79.317688 239.238437)scale(0.1 -0.1)">
       <defs>
        <path d="M 19.1875 8.296875 
L 53.609375 8.296875 
L 53.609375 0 
L 7.328125 0 
L 7.328125 8.296875 
Q 12.9375 14.109375 22.625 23.890625 
Q 32.328125 33.6875 34.8125 36.53125 
Q 39.546875 41.84375 41.421875 45.53125 
Q 43.3125 49.21875 43.3125 52.78125 
Q 43.3125 58.59375 39.234375 62.25 
Q 35.15625 65.921875 28.609375 65.921875 
Q 23.96875 65.921875 18.8125 64.3125 
Q 13.671875 62.703125 7.8125 59.421875 
L 7.8125 69.390625 
Q 13.765625 71.78125 18.9375 73 
Q 24.125 74.21875 28.421875 74.21875 
Q 39.75 74.21875 46.484375 68.546875 
Q 53.21875 62.890625 53.21875 53.421875 
Q 53.21875 48.921875 51.53125 44.890625 
Q 49.859375 40.875 45.40625 35.40625 
Q 44.1875 33.984375 37.640625 27.21875 
Q 31.109375 20.453125 19.1875 8.296875 
z
" id="DejaVuSans-50"/>
       </defs>
       <use xlink:href="#DejaVuSans-48"/>
       <use x="63.623047" xlink:href="#DejaVuSans-46"/>
       <use x="95.410156" xlink:href="#DejaVuSans-50"/>
      </g>
     </g>
    </g>
    <g id="xtick_3">
     <g id="line2d_3">
      <g>
       <use style="stroke:#000000;stroke-width:0.8;" x="130.75725" xlink:href="#m81eab7a924" y="224.64"/>
      </g>
     </g>
     <g id="text_3">
      <!-- 0.4 -->
      <g transform="translate(122.805688 239.238437)scale(0.1 -0.1)">
       <defs>
        <path d="M 37.796875 64.3125 
L 12.890625 25.390625 
L 37.796875 25.390625 
z
M 35.203125 72.90625 
L 47.609375 72.90625 
L 47.609375 25.390625 
L 58.015625 25.390625 
L 58.015625 17.1875 
L 47.609375 17.1875 
L 47.609375 0 
L 37.796875 0 
L 37.796875 17.1875 
L 4.890625 17.1875 
L 4.890625 26.703125 
z
" id="DejaVuSans-52"/>
       </defs>
       <use xlink:href="#DejaVuSans-48"/>
       <use x="63.623047" xlink:href="#DejaVuSans-46"/>
       <use x="95.410156" xlink:href="#DejaVuSans-52"/>
      </g>
     </g>
    </g>
    <g id="xtick_4">
     <g id="line2d_4">
      <g>
       <use style="stroke:#000000;stroke-width:0.8;" x="174.24525" xlink:href="#m81eab7a924" y="224.64"/>
      </g>
     </g>
     <g id="text_4">
      <!-- 0.6 -->
      <g transform="translate(166.293688 239.238437)scale(0.1 -0.1)">
       <defs>
        <path d="M 33.015625 40.375 
Q 26.375 40.375 22.484375 35.828125 
Q 18.609375 31.296875 18.609375 23.390625 
Q 18.609375 15.53125 22.484375 10.953125 
Q 26.375 6.390625 33.015625 6.390625 
Q 39.65625 6.390625 43.53125 10.953125 
Q 47.40625 15.53125 47.40625 23.390625 
Q 47.40625 31.296875 43.53125 35.828125 
Q 39.65625 40.375 33.015625 40.375 
z
M 52.59375 71.296875 
L 52.59375 62.3125 
Q 48.875 64.0625 45.09375 64.984375 
Q 41.3125 65.921875 37.59375 65.921875 
Q 27.828125 65.921875 22.671875 59.328125 
Q 17.53125 52.734375 16.796875 39.40625 
Q 19.671875 43.65625 24.015625 45.921875 
Q 28.375 48.1875 33.59375 48.1875 
Q 44.578125 48.1875 50.953125 41.515625 
Q 57.328125 34.859375 57.328125 23.390625 
Q 57.328125 12.15625 50.6875 5.359375 
Q 44.046875 -1.421875 33.015625 -1.421875 
Q 20.359375 -1.421875 13.671875 8.265625 
Q 6.984375 17.96875 6.984375 36.375 
Q 6.984375 53.65625 15.1875 63.9375 
Q 23.390625 74.21875 37.203125 74.21875 
Q 40.921875 74.21875 44.703125 73.484375 
Q 48.484375 72.75 52.59375 71.296875 
z
" id="DejaVuSans-54"/>
       </defs>
       <use xlink:href="#DejaVuSans-48"/>
       <use x="63.623047" xlink:href="#DejaVuSans-46"/>
       <use x="95.410156" xlink:href="#DejaVuSans-54"/>
      </g>
     </g>
    </g>
    <g id="xtick_5">
     <g id="line2d_5">
      <g>
       <use style="stroke:#000000;stroke-width:0.8;" x="217.73325" xlink:href="#m81eab7a924" y="224.64"/>
      </g>
     </g>
     <g id="text_5">
      <!-- 0.8 -->
      <g transform="translate(209.781688 239.238437)scale(0.1 -0.1)">
       <defs>
        <path d="M 31.78125 34.625 
Q 24.75 34.625 20.71875 30.859375 
Q 16.703125 27.09375 16.703125 20.515625 
Q 16.703125 13.921875 20.71875 10.15625 
Q 24.75 6.390625 31.78125 6.390625 
Q 38.8125 6.390625 42.859375 10.171875 
Q 46.921875 13.96875 46.921875 20.515625 
Q 46.921875 27.09375 42.890625 30.859375 
Q 38.875 34.625 31.78125 34.625 
z
M 21.921875 38.8125 
Q 15.578125 40.375 12.03125 44.71875 
Q 8.5 49.078125 8.5 55.328125 
Q 8.5 64.0625 14.71875 69.140625 
Q 20.953125 74.21875 31.78125 74.21875 
Q 42.671875 74.21875 48.875 69.140625 
Q 55.078125 64.0625 55.078125 55.328125 
Q 55.078125 49.078125 51.53125 44.71875 
Q 48 40.375 41.703125 38.8125 
Q 48.828125 37.15625 52.796875 32.3125 
Q 56.78125 27.484375 56.78125 20.515625 
Q 56.78125 9.90625 50.3125 4.234375 
Q 43.84375 -1.421875 31.78125 -1.421875 
Q 19.734375 -1.421875 13.25 4.234375 
Q 6.78125 9.90625 6.78125 20.515625 
Q 6.78125 27.484375 10.78125 32.3125 
Q 14.796875 37.15625 21.921875 38.8125 
z
M 18.3125 54.390625 
Q 18.3125 48.734375 21.84375 45.5625 
Q 25.390625 42.390625 31.78125 42.390625 
Q 38.140625 42.390625 41.71875 45.5625 
Q 45.3125 48.734375 45.3125 54.390625 
Q 45.3125 60.0625 41.71875 63.234375 
Q 38.140625 66.40625 31.78125 66.40625 
Q 25.390625 66.40625 21.84375 63.234375 
Q 18.3125 60.0625 18.3125 54.390625 
z
" id="DejaVuSans-56"/>
       </defs>
       <use xlink:href="#DejaVuSans-48"/>
       <use x="63.623047" xlink:href="#DejaVuSans-46"/>
       <use x="95.410156" xlink:href="#DejaVuSans-56"/>
      </g>
     </g>
    </g>
    <g id="xtick_6">
     <g id="line2d_6">
      <g>
       <use style="stroke:#000000;stroke-width:0.8;" x="261.22125" xlink:href="#m81eab7a924" y="224.64"/>
      </g>
     </g>
     <g id="text_6">
      <!-- 1.0 -->
      <g transform="translate(253.269688 239.238437)scale(0.1 -0.1)">
       <defs>
        <path d="M 12.40625 8.296875 
L 28.515625 8.296875 
L 28.515625 63.921875 
L 10.984375 60.40625 
L 10.984375 69.390625 
L 28.421875 72.90625 
L 38.28125 72.90625 
L 38.28125 8.296875 
L 54.390625 8.296875 
L 54.390625 0 
L 12.40625 0 
z
" id="DejaVuSans-49"/>
       </defs>
       <use xlink:href="#DejaVuSans-49"/>
       <use x="63.623047" xlink:href="#DejaVuSans-46"/>
       <use x="95.410156" xlink:href="#DejaVuSans-48"/>
      </g>
     </g>
    </g>
    <g id="text_7">
     <!-- $p_1$ -->
     <g transform="translate(146.95125 252.89625)scale(0.1 -0.1)">
      <defs>
       <path d="M 49.609375 33.6875 
Q 49.609375 40.875 46.484375 44.671875 
Q 43.359375 48.484375 37.5 48.484375 
Q 33.5 48.484375 29.859375 46.4375 
Q 26.21875 44.390625 23.390625 40.484375 
Q 20.609375 36.625 18.9375 31.15625 
Q 17.28125 25.6875 17.28125 20.3125 
Q 17.28125 13.484375 20.40625 9.796875 
Q 23.53125 6.109375 29.296875 6.109375 
Q 33.546875 6.109375 37.1875 8.109375 
Q 40.828125 10.109375 43.40625 13.921875 
Q 46.1875 17.921875 47.890625 23.34375 
Q 49.609375 28.765625 49.609375 33.6875 
z
M 21.78125 46.390625 
Q 25.390625 51.125 30.296875 53.5625 
Q 35.203125 56 41.21875 56 
Q 49.609375 56 54.25 50.5 
Q 58.890625 45.015625 58.890625 35.109375 
Q 58.890625 27 56 19.65625 
Q 53.125 12.3125 47.703125 6.5 
Q 44.09375 2.640625 39.546875 0.609375 
Q 35.015625 -1.421875 29.984375 -1.421875 
Q 24.171875 -1.421875 20.21875 1 
Q 16.265625 3.421875 14.3125 8.203125 
L 8.6875 -20.796875 
L -0.296875 -20.796875 
L 14.40625 54.6875 
L 23.390625 54.6875 
z
" id="DejaVuSans-Oblique-112"/>
      </defs>
      <use xlink:href="#DejaVuSans-Oblique-112"/>
      <use transform="translate(63.476562 -16.40625)scale(0.7)" xlink:href="#DejaVuSans-49"/>
     </g>
    </g>
   </g>
   <g id="matplotlib.axis_2">
    <g id="ytick_1">
     <g id="line2d_7">
      <defs>
       <path d="M 0 0 
L -3.5 0 
" id="m4ed87f2e36" style="stroke:#000000;stroke-width:0.8;"/>
      </defs>
      <g>
       <use style="stroke:#000000;stroke-width:0.8;" x="43.78125" xlink:href="#m4ed87f2e36" y="224.64"/>
      </g>
     </g>
     <g id="text_8">
      <!-- 0.0 -->
      <g transform="translate(20.878125 228.439219)scale(0.1 -0.1)">
       <use xlink:href="#DejaVuSans-48"/>
       <use x="63.623047" xlink:href="#DejaVuSans-46"/>
       <use x="95.410156" xlink:href="#DejaVuSans-48"/>
      </g>
     </g>
    </g>
    <g id="ytick_2">
     <g id="line2d_8">
      <g>
       <use style="stroke:#000000;stroke-width:0.8;" x="43.78125" xlink:href="#m4ed87f2e36" y="190.391283"/>
      </g>
     </g>
     <g id="text_9">
      <!-- 0.2 -->
      <g transform="translate(20.878125 194.190502)scale(0.1 -0.1)">
       <use xlink:href="#DejaVuSans-48"/>
       <use x="63.623047" xlink:href="#DejaVuSans-46"/>
       <use x="95.410156" xlink:href="#DejaVuSans-50"/>
      </g>
     </g>
    </g>
    <g id="ytick_3">
     <g id="line2d_9">
      <g>
       <use style="stroke:#000000;stroke-width:0.8;" x="43.78125" xlink:href="#m4ed87f2e36" y="156.142566"/>
      </g>
     </g>
     <g id="text_10">
      <!-- 0.4 -->
      <g transform="translate(20.878125 159.941784)scale(0.1 -0.1)">
       <use xlink:href="#DejaVuSans-48"/>
       <use x="63.623047" xlink:href="#DejaVuSans-46"/>
       <use x="95.410156" xlink:href="#DejaVuSans-52"/>
      </g>
     </g>
    </g>
    <g id="ytick_4">
     <g id="line2d_10">
      <g>
       <use style="stroke:#000000;stroke-width:0.8;" x="43.78125" xlink:href="#m4ed87f2e36" y="121.893848"/>
      </g>
     </g>
     <g id="text_11">
      <!-- 0.6 -->
      <g transform="translate(20.878125 125.693067)scale(0.1 -0.1)">
       <use xlink:href="#DejaVuSans-48"/>
       <use x="63.623047" xlink:href="#DejaVuSans-46"/>
       <use x="95.410156" xlink:href="#DejaVuSans-54"/>
      </g>
     </g>
    </g>
    <g id="ytick_5">
     <g id="line2d_11">
      <g>
       <use style="stroke:#000000;stroke-width:0.8;" x="43.78125" xlink:href="#m4ed87f2e36" y="87.645131"/>
      </g>
     </g>
     <g id="text_12">
      <!-- 0.8 -->
      <g transform="translate(20.878125 91.44435)scale(0.1 -0.1)">
       <use xlink:href="#DejaVuSans-48"/>
       <use x="63.623047" xlink:href="#DejaVuSans-46"/>
       <use x="95.410156" xlink:href="#DejaVuSans-56"/>
      </g>
     </g>
    </g>
    <g id="ytick_6">
     <g id="line2d_12">
      <g>
       <use style="stroke:#000000;stroke-width:0.8;" x="43.78125" xlink:href="#m4ed87f2e36" y="53.396414"/>
      </g>
     </g>
     <g id="text_13">
      <!-- 1.0 -->
      <g transform="translate(20.878125 57.195633)scale(0.1 -0.1)">
       <use xlink:href="#DejaVuSans-49"/>
       <use x="63.623047" xlink:href="#DejaVuSans-46"/>
       <use x="95.410156" xlink:href="#DejaVuSans-48"/>
      </g>
     </g>
    </g>
    <g id="ytick_7">
     <g id="line2d_13">
      <g>
       <use style="stroke:#000000;stroke-width:0.8;" x="43.78125" xlink:href="#m4ed87f2e36" y="19.147697"/>
      </g>
     </g>
     <g id="text_14">
      <!-- 1.2 -->
      <g transform="translate(20.878125 22.946916)scale(0.1 -0.1)">
       <use xlink:href="#DejaVuSans-49"/>
       <use x="63.623047" xlink:href="#DejaVuSans-46"/>
       <use x="95.410156" xlink:href="#DejaVuSans-50"/>
      </g>
     </g>
    </g>
    <g id="text_15">
     <!-- Density -->
     <g transform="translate(14.798438 134.928594)rotate(-90)scale(0.1 -0.1)">
      <defs>
       <path d="M 19.671875 64.796875 
L 19.671875 8.109375 
L 31.59375 8.109375 
Q 46.6875 8.109375 53.6875 14.9375 
Q 60.6875 21.78125 60.6875 36.53125 
Q 60.6875 51.171875 53.6875 57.984375 
Q 46.6875 64.796875 31.59375 64.796875 
z
M 9.8125 72.90625 
L 30.078125 72.90625 
Q 51.265625 72.90625 61.171875 64.09375 
Q 71.09375 55.28125 71.09375 36.53125 
Q 71.09375 17.671875 61.125 8.828125 
Q 51.171875 0 30.078125 0 
L 9.8125 0 
z
" id="DejaVuSans-68"/>
       <path d="M 56.203125 29.59375 
L 56.203125 25.203125 
L 14.890625 25.203125 
Q 15.484375 15.921875 20.484375 11.0625 
Q 25.484375 6.203125 34.421875 6.203125 
Q 39.59375 6.203125 44.453125 7.46875 
Q 49.3125 8.734375 54.109375 11.28125 
L 54.109375 2.78125 
Q 49.265625 0.734375 44.1875 -0.34375 
Q 39.109375 -1.421875 33.890625 -1.421875 
Q 20.796875 -1.421875 13.15625 6.1875 
Q 5.515625 13.8125 5.515625 26.8125 
Q 5.515625 40.234375 12.765625 48.109375 
Q 20.015625 56 32.328125 56 
Q 43.359375 56 49.78125 48.890625 
Q 56.203125 41.796875 56.203125 29.59375 
z
M 47.21875 32.234375 
Q 47.125 39.59375 43.09375 43.984375 
Q 39.0625 48.390625 32.421875 48.390625 
Q 24.90625 48.390625 20.390625 44.140625 
Q 15.875 39.890625 15.1875 32.171875 
z
" id="DejaVuSans-101"/>
       <path d="M 54.890625 33.015625 
L 54.890625 0 
L 45.90625 0 
L 45.90625 32.71875 
Q 45.90625 40.484375 42.875 44.328125 
Q 39.84375 48.1875 33.796875 48.1875 
Q 26.515625 48.1875 22.3125 43.546875 
Q 18.109375 38.921875 18.109375 30.90625 
L 18.109375 0 
L 9.078125 0 
L 9.078125 54.6875 
L 18.109375 54.6875 
L 18.109375 46.1875 
Q 21.34375 51.125 25.703125 53.5625 
Q 30.078125 56 35.796875 56 
Q 45.21875 56 50.046875 50.171875 
Q 54.890625 44.34375 54.890625 33.015625 
z
" id="DejaVuSans-110"/>
       <path d="M 44.28125 53.078125 
L 44.28125 44.578125 
Q 40.484375 46.53125 36.375 47.5 
Q 32.28125 48.484375 27.875 48.484375 
Q 21.1875 48.484375 17.84375 46.4375 
Q 14.5 44.390625 14.5 40.28125 
Q 14.5 37.15625 16.890625 35.375 
Q 19.28125 33.59375 26.515625 31.984375 
L 29.59375 31.296875 
Q 39.15625 29.25 43.1875 25.515625 
Q 47.21875 21.78125 47.21875 15.09375 
Q 47.21875 7.46875 41.1875 3.015625 
Q 35.15625 -1.421875 24.609375 -1.421875 
Q 20.21875 -1.421875 15.453125 -0.5625 
Q 10.6875 0.296875 5.421875 2 
L 5.421875 11.28125 
Q 10.40625 8.6875 15.234375 7.390625 
Q 20.0625 6.109375 24.8125 6.109375 
Q 31.15625 6.109375 34.5625 8.28125 
Q 37.984375 10.453125 37.984375 14.40625 
Q 37.984375 18.0625 35.515625 20.015625 
Q 33.0625 21.96875 24.703125 23.78125 
L 21.578125 24.515625 
Q 13.234375 26.265625 9.515625 29.90625 
Q 5.8125 33.546875 5.8125 39.890625 
Q 5.8125 47.609375 11.28125 51.796875 
Q 16.75 56 26.8125 56 
Q 31.78125 56 36.171875 55.265625 
Q 40.578125 54.546875 44.28125 53.078125 
z
" id="DejaVuSans-115"/>
       <path d="M 9.421875 54.6875 
L 18.40625 54.6875 
L 18.40625 0 
L 9.421875 0 
z
M 9.421875 75.984375 
L 18.40625 75.984375 
L 18.40625 64.59375 
L 9.421875 64.59375 
z
" id="DejaVuSans-105"/>
       <path d="M 18.3125 70.21875 
L 18.3125 54.6875 
L 36.8125 54.6875 
L 36.8125 47.703125 
L 18.3125 47.703125 
L 18.3125 18.015625 
Q 18.3125 11.328125 20.140625 9.421875 
Q 21.96875 7.515625 27.59375 7.515625 
L 36.8125 7.515625 
L 36.8125 0 
L 27.59375 0 
Q 17.1875 0 13.234375 3.875 
Q 9.28125 7.765625 9.28125 18.015625 
L 9.28125 47.703125 
L 2.6875 47.703125 
L 2.6875 54.6875 
L 9.28125 54.6875 
L 9.28125 70.21875 
z
" id="DejaVuSans-116"/>
       <path d="M 32.171875 -5.078125 
Q 28.375 -14.84375 24.75 -17.8125 
Q 21.140625 -20.796875 15.09375 -20.796875 
L 7.90625 -20.796875 
L 7.90625 -13.28125 
L 13.1875 -13.28125 
Q 16.890625 -13.28125 18.9375 -11.515625 
Q 21 -9.765625 23.484375 -3.21875 
L 25.09375 0.875 
L 2.984375 54.6875 
L 12.5 54.6875 
L 29.59375 11.921875 
L 46.6875 54.6875 
L 56.203125 54.6875 
z
" id="DejaVuSans-121"/>
      </defs>
      <use xlink:href="#DejaVuSans-68"/>
      <use x="77.001953" xlink:href="#DejaVuSans-101"/>
      <use x="138.525391" xlink:href="#DejaVuSans-110"/>
      <use x="201.904297" xlink:href="#DejaVuSans-115"/>
      <use x="254.003906" xlink:href="#DejaVuSans-105"/>
      <use x="281.787109" xlink:href="#DejaVuSans-116"/>
      <use x="320.996094" xlink:href="#DejaVuSans-121"/>
     </g>
    </g>
   </g>
   <g id="patch_3">
    <path d="M 43.78125 224.64 
L 43.78125 7.2 
" style="fill:none;stroke:#000000;stroke-linecap:square;stroke-linejoin:miter;stroke-width:0.8;"/>
   </g>
   <g id="patch_4">
    <path d="M 261.22125 224.64 
L 261.22125 7.2 
" style="fill:none;stroke:#000000;stroke-linecap:square;stroke-linejoin:miter;stroke-width:0.8;"/>
   </g>
   <g id="patch_5">
    <path d="M 43.78125 224.64 
L 261.22125 224.64 
" style="fill:none;stroke:#000000;stroke-linecap:square;stroke-linejoin:miter;stroke-width:0.8;"/>
   </g>
   <g id="patch_6">
    <path d="M 43.78125 7.2 
L 261.22125 7.2 
" style="fill:none;stroke:#000000;stroke-linecap:square;stroke-linejoin:miter;stroke-width:0.8;"/>
   </g>
  </g>
 </g>
 <defs>
  <clipPath id="p76ec2c6b26">
   <rect height="217.44" width="217.44" x="43.78125" y="7.2"/>
  </clipPath>
 </defs>
</svg>
