<?xml version="1.0" encoding="utf-8" standalone="no"?>
<!DOCTYPE svg PUBLIC "-//W3C//DTD SVG 1.1//EN"
  "http://www.w3.org/Graphics/SVG/1.1/DTD/svg11.dtd">
<!-- Created with matplotlib (https://matplotlib.org/) -->
<svg height="248.518125pt" version="1.1" viewBox="0 0 382.603125 248.518125" width="382.603125pt" xmlns="http://www.w3.org/2000/svg" xmlns:xlink="http://www.w3.org/1999/xlink">
 <metadata>
  <rdf:RDF xmlns:cc="http://creativecommons.org/ns#" xmlns:dc="http://purl.org/dc/elements/1.1/" xmlns:rdf="http://www.w3.org/1999/02/22-rdf-syntax-ns#">
   <cc:Work>
    <dc:type rdf:resource="http://purl.org/dc/dcmitype/StillImage"/>
    <dc:date>2020-11-27T01:27:45.739918</dc:date>
    <dc:format>image/svg+xml</dc:format>
    <dc:creator>
     <cc:Agent>
      <dc:title>Matplotlib v3.3.3, https://matplotlib.org/</dc:title>
     </cc:Agent>
    </dc:creator>
   </cc:Work>
  </rdf:RDF>
 </metadata>
 <defs>
  <style type="text/css">*{stroke-linecap:butt;stroke-linejoin:round;}</style>
 </defs>
 <g id="figure_1">
  <g id="patch_1">
   <path d="M 0 248.518125 
L 382.603125 248.518125 
L 382.603125 0 
L 0 0 
z
" style="fill:none;"/>
  </g>
  <g id="axes_1">
   <g id="patch_2">
    <path d="M 40.603125 224.64 
L 375.403125 224.64 
L 375.403125 7.2 
L 40.603125 7.2 
z
" style="fill:#ffffff;"/>
   </g>
   <g id="PolyCollection_1">
    <defs>
     <path d="M 155.651001 -23.878966 
L 155.651001 -23.878125 
L 156.67881 -23.878125 
L 157.706619 -23.878125 
L 158.734428 -23.878125 
L 159.762236 -23.878125 
L 160.790045 -23.878125 
L 161.817854 -23.878125 
L 162.845663 -23.878125 
L 163.873471 -23.878125 
L 164.90128 -23.878125 
L 165.929089 -23.878125 
L 166.956898 -23.878125 
L 167.984706 -23.878125 
L 169.012515 -23.878125 
L 170.040324 -23.878125 
L 171.068133 -23.878125 
L 172.095941 -23.878125 
L 173.12375 -23.878125 
L 174.151559 -23.878125 
L 175.179368 -23.878125 
L 176.207176 -23.878125 
L 177.234985 -23.878125 
L 178.262794 -23.878125 
L 179.290603 -23.878125 
L 180.318411 -23.878125 
L 181.34622 -23.878125 
L 182.374029 -23.878125 
L 183.401838 -23.878125 
L 184.429646 -23.878125 
L 185.457455 -23.878125 
L 186.485264 -23.878125 
L 187.513073 -23.878125 
L 188.540881 -23.878125 
L 189.56869 -23.878125 
L 190.596499 -23.878125 
L 191.624308 -23.878125 
L 192.652116 -23.878125 
L 193.679925 -23.878125 
L 194.707734 -23.878125 
L 195.735543 -23.878125 
L 196.763351 -23.878125 
L 197.79116 -23.878125 
L 198.818969 -23.878125 
L 199.846778 -23.878125 
L 200.874586 -23.878125 
L 201.902395 -23.878125 
L 202.930204 -23.878125 
L 203.958013 -23.878125 
L 204.985821 -23.878125 
L 206.01363 -23.878125 
L 207.041439 -23.878125 
L 208.069248 -23.878125 
L 209.097056 -23.878125 
L 210.124865 -23.878125 
L 211.152674 -23.878125 
L 212.180483 -23.878125 
L 213.208291 -23.878125 
L 214.2361 -23.878125 
L 215.263909 -23.878125 
L 216.291718 -23.878125 
L 217.319526 -23.878125 
L 218.347335 -23.878125 
L 219.375144 -23.878125 
L 220.402953 -23.878125 
L 221.430761 -23.878125 
L 222.45857 -23.878125 
L 223.486379 -23.878125 
L 224.514188 -23.878125 
L 225.541996 -23.878125 
L 226.569805 -23.878125 
L 227.597614 -23.878125 
L 228.625423 -23.878125 
L 229.653232 -23.878125 
L 230.68104 -23.878125 
L 231.708849 -23.878125 
L 232.736658 -23.878125 
L 233.764467 -23.878125 
L 234.792275 -23.878125 
L 235.820084 -23.878125 
L 236.847893 -23.878125 
L 237.875702 -23.878125 
L 238.90351 -23.878125 
L 239.931319 -23.878125 
L 240.959128 -23.878125 
L 241.986937 -23.878125 
L 243.014745 -23.878125 
L 244.042554 -23.878125 
L 245.070363 -23.878125 
L 246.098172 -23.878125 
L 247.12598 -23.878125 
L 248.153789 -23.878125 
L 249.181598 -23.878125 
L 250.209407 -23.878125 
L 251.237215 -23.878125 
L 252.265024 -23.878125 
L 253.292833 -23.878125 
L 254.320642 -23.878125 
L 255.34845 -23.878125 
L 256.376259 -23.878125 
L 257.404068 -23.878125 
L 258.431877 -23.878125 
L 259.459685 -23.878125 
L 260.487494 -23.878125 
L 261.515303 -23.878125 
L 262.543112 -23.878125 
L 263.57092 -23.878125 
L 264.598729 -23.878125 
L 265.626538 -23.878125 
L 266.654347 -23.878125 
L 267.682155 -23.878125 
L 268.709964 -23.878125 
L 269.737773 -23.878125 
L 270.765582 -23.878125 
L 271.79339 -23.878125 
L 272.821199 -23.878125 
L 273.849008 -23.878125 
L 274.876817 -23.878125 
L 275.904625 -23.878125 
L 276.932434 -23.878125 
L 277.960243 -23.878125 
L 278.988052 -23.878125 
L 280.01586 -23.878125 
L 281.043669 -23.878125 
L 282.071478 -23.878125 
L 283.099287 -23.878125 
L 284.127095 -23.878125 
L 285.154904 -23.878125 
L 286.182713 -23.878125 
L 287.210522 -23.878125 
L 288.23833 -23.878125 
L 289.266139 -23.878125 
L 290.293948 -23.878125 
L 291.321757 -23.878125 
L 292.349565 -23.878125 
L 293.377374 -23.878125 
L 294.405183 -23.878125 
L 295.432992 -23.878125 
L 296.4608 -23.878125 
L 297.488609 -23.878125 
L 298.516418 -23.878125 
L 299.544227 -23.878125 
L 300.572035 -23.878125 
L 301.599844 -23.878125 
L 302.627653 -23.878125 
L 303.655462 -23.878125 
L 304.68327 -23.878125 
L 305.711079 -23.878125 
L 306.738888 -23.878125 
L 307.766697 -23.878125 
L 308.794506 -23.878125 
L 309.822314 -23.878125 
L 310.850123 -23.878125 
L 311.877932 -23.878125 
L 312.905741 -23.878125 
L 313.933549 -23.878125 
L 314.961358 -23.878125 
L 315.989167 -23.878125 
L 317.016976 -23.878125 
L 318.044784 -23.878125 
L 319.072593 -23.878125 
L 320.100402 -23.878125 
L 321.128211 -23.878125 
L 322.156019 -23.878125 
L 323.183828 -23.878125 
L 324.211637 -23.878125 
L 325.239446 -23.878125 
L 326.267254 -23.878125 
L 327.295063 -23.878125 
L 328.322872 -23.878125 
L 329.350681 -23.878125 
L 330.378489 -23.878125 
L 331.406298 -23.878125 
L 332.434107 -23.878125 
L 333.461916 -23.878125 
L 334.489724 -23.878125 
L 335.517533 -23.878125 
L 336.545342 -23.878125 
L 337.573151 -23.878125 
L 338.600959 -23.878125 
L 339.628768 -23.878125 
L 340.656577 -23.878125 
L 341.684386 -23.878125 
L 342.712194 -23.878125 
L 343.740003 -23.878125 
L 344.767812 -23.878125 
L 345.795621 -23.878125 
L 346.823429 -23.878125 
L 347.851238 -23.878125 
L 348.879047 -23.878125 
L 349.906856 -23.878125 
L 350.934664 -23.878125 
L 351.962473 -23.878125 
L 352.990282 -23.878125 
L 354.018091 -23.878125 
L 355.045899 -23.878125 
L 356.073708 -23.878125 
L 357.101517 -23.878125 
L 358.129326 -23.878125 
L 359.157134 -23.878125 
L 360.184943 -23.878125 
L 360.184943 -23.880474 
L 360.184943 -23.880474 
L 359.157134 -23.884686 
L 358.129326 -23.894849 
L 357.101517 -23.917242 
L 356.073708 -23.962644 
L 355.045899 -24.048221 
L 354.018091 -24.199944 
L 352.990282 -24.455889 
L 351.962473 -24.870256 
L 350.934664 -25.516462 
L 349.906856 -26.486126 
L 348.879047 -27.880988 
L 347.851238 -29.798192 
L 346.823429 -32.314228 
L 345.795621 -35.475187 
L 344.767812 -39.297699 
L 343.740003 -43.777454 
L 342.712194 -48.896677 
L 341.684386 -54.62394 
L 340.656577 -60.908567 
L 339.628768 -67.679349 
L 338.600959 -74.855024 
L 337.573151 -82.36259 
L 336.545342 -90.150274 
L 335.517533 -98.18479 
L 334.489724 -106.434946 
L 333.461916 -114.853011 
L 332.434107 -123.363855 
L 331.406298 -131.864764 
L 330.378489 -140.235216 
L 329.350681 -148.355981 
L 328.322872 -156.134043 
L 327.295063 -163.523311 
L 326.267254 -170.52962 
L 325.239446 -177.196964 
L 324.211637 -183.582492 
L 323.183828 -189.730235 
L 322.156019 -195.649657 
L 321.128211 -201.303953 
L 320.100402 -206.614796 
L 319.072593 -211.485429 
L 318.044784 -215.83148 
L 317.016976 -219.602286 
L 315.989167 -222.784824 
L 314.961358 -225.396817 
L 313.933549 -227.477085 
L 312.905741 -229.070776 
L 311.877932 -230.204215 
L 310.850123 -230.858349 
L 309.822314 -230.963839 
L 308.794506 -230.432413 
L 307.766697 -229.210523 
L 306.738888 -227.319677 
L 305.711079 -224.854447 
L 304.68327 -221.938441 
L 303.655462 -218.666308 
L 302.627653 -215.067 
L 301.599844 -211.108818 
L 300.572035 -206.741752 
L 299.544227 -201.951469 
L 298.516418 -196.793441 
L 297.488609 -191.389281 
L 296.4608 -185.89229 
L 295.432992 -180.446512 
L 294.405183 -175.159313 
L 293.377374 -170.088841 
L 292.349565 -165.236503 
L 291.321757 -160.542489 
L 290.293948 -155.895788 
L 289.266139 -151.16853 
L 288.23833 -146.265709 
L 287.210522 -141.165561 
L 286.182713 -135.930106 
L 285.154904 -130.684878 
L 284.127095 -125.582194 
L 283.099287 -120.76259 
L 282.071478 -116.321181 
L 281.043669 -112.282774 
L 280.01586 -108.593877 
L 278.988052 -105.140733 
L 277.960243 -101.791289 
L 276.932434 -98.442076 
L 275.904625 -95.045517 
L 274.876817 -91.607352 
L 273.849008 -88.165272 
L 272.821199 -84.768429 
L 271.79339 -81.467657 
L 270.765582 -78.31107 
L 269.737773 -75.335487 
L 268.709964 -72.553614 
L 267.682155 -69.948203 
L 266.654347 -67.483983 
L 265.626538 -65.13351 
L 264.598729 -62.897458 
L 263.57092 -60.800478 
L 262.543112 -58.863887 
L 261.515303 -57.078462 
L 260.487494 -55.402332 
L 259.459685 -53.78708 
L 258.431877 -52.209847 
L 257.404068 -50.683894 
L 256.376259 -49.238685 
L 255.34845 -47.885518 
L 254.320642 -46.595403 
L 253.292833 -45.306124 
L 252.265024 -43.955009 
L 251.237215 -42.517496 
L 250.209407 -41.028232 
L 249.181598 -39.571856 
L 248.153789 -38.24821 
L 247.12598 -37.131044 
L 246.098172 -36.24143 
L 245.070363 -35.546607 
L 244.042554 -34.98032 
L 243.014745 -34.471834 
L 241.986937 -33.970723 
L 240.959128 -33.45948 
L 239.931319 -32.951461 
L 238.90351 -32.476539 
L 237.875702 -32.061274 
L 236.847893 -31.712927 
L 235.820084 -31.414915 
L 234.792275 -31.135254 
L 233.764467 -30.842398 
L 232.736658 -30.518836 
L 231.708849 -30.164722 
L 230.68104 -29.790541 
L 229.653232 -29.405277 
L 228.625423 -29.009408 
L 227.597614 -28.597922 
L 226.569805 -28.170303 
L 225.541996 -27.7388 
L 224.514188 -27.327962 
L 223.486379 -26.965432 
L 222.45857 -26.670225 
L 221.430761 -26.445372 
L 220.402953 -26.278079 
L 219.375144 -26.146177 
L 218.347335 -26.027231 
L 217.319526 -25.906232 
L 216.291718 -25.778697 
L 215.263909 -25.648289 
L 214.2361 -25.521123 
L 213.208291 -25.400922 
L 212.180483 -25.288266 
L 211.152674 -25.183662 
L 210.124865 -25.090984 
L 209.097056 -25.017601 
L 208.069248 -24.970275 
L 207.041439 -24.94929 
L 206.01363 -24.94482 
L 204.985821 -24.93857 
L 203.958013 -24.910897 
L 202.930204 -24.850283 
L 201.902395 -24.759888 
L 200.874586 -24.656756 
L 199.846778 -24.563467 
L 198.818969 -24.497063 
L 197.79116 -24.462059 
L 196.763351 -24.45132 
L 195.735543 -24.452854 
L 194.707734 -24.456856 
L 193.679925 -24.458436 
L 192.652116 -24.455816 
L 191.624308 -24.44732 
L 190.596499 -24.430413 
L 189.56869 -24.403337 
L 188.540881 -24.367364 
L 187.513073 -24.327442 
L 186.485264 -24.290702 
L 185.457455 -24.263904 
L 184.429646 -24.251204 
L 183.401838 -24.252811 
L 182.374029 -24.264473 
L 181.34622 -24.277897 
L 180.318411 -24.282613 
L 179.290603 -24.269376 
L 178.262794 -24.23389 
L 177.234985 -24.178869 
L 176.207176 -24.113088 
L 175.179368 -24.047948 
L 174.151559 -23.993532 
L 173.12375 -23.956081 
L 172.095941 -23.937506 
L 171.068133 -23.936222 
L 170.040324 -23.948203 
L 169.012515 -23.967741 
L 167.984706 -23.988157 
L 166.956898 -24.002951 
L 165.929089 -24.007382 
L 164.90128 -23.999843 
L 163.873471 -23.982224 
L 162.845663 -23.958922 
L 161.817854 -23.934993 
L 160.790045 -23.91439 
L 159.762236 -23.899058 
L 158.734428 -23.889051 
L 157.706619 -23.883277 
L 156.67881 -23.880318 
L 155.651001 -23.878966 
z
" id="m3984da1532" style="stroke:#1d6c8a;"/>
    </defs>
    <g clip-path="url(#pc3348efde2)">
     <use style="fill:#1d6c8a;fill-opacity:0.5;stroke:#1d6c8a;" x="0" xlink:href="#m3984da1532" y="248.518125"/>
    </g>
   </g>
   <g id="PolyCollection_2">
    <defs>
     <path d="M 55.821307 -23.87865 
L 55.821307 -23.878125 
L 57.298324 -23.878125 
L 58.775341 -23.878125 
L 60.252357 -23.878125 
L 61.729374 -23.878125 
L 63.206391 -23.878125 
L 64.683408 -23.878125 
L 66.160425 -23.878125 
L 67.637442 -23.878125 
L 69.114459 -23.878125 
L 70.591476 -23.878125 
L 72.068492 -23.878125 
L 73.545509 -23.878125 
L 75.022526 -23.878125 
L 76.499543 -23.878125 
L 77.97656 -23.878125 
L 79.453577 -23.878125 
L 80.930594 -23.878125 
L 82.407611 -23.878125 
L 83.884628 -23.878125 
L 85.361644 -23.878125 
L 86.838661 -23.878125 
L 88.315678 -23.878125 
L 89.792695 -23.878125 
L 91.269712 -23.878125 
L 92.746729 -23.878125 
L 94.223746 -23.878125 
L 95.700763 -23.878125 
L 97.177779 -23.878125 
L 98.654796 -23.878125 
L 100.131813 -23.878125 
L 101.60883 -23.878125 
L 103.085847 -23.878125 
L 104.562864 -23.878125 
L 106.039881 -23.878125 
L 107.516898 -23.878125 
L 108.993914 -23.878125 
L 110.470931 -23.878125 
L 111.947948 -23.878125 
L 113.424965 -23.878125 
L 114.901982 -23.878125 
L 116.378999 -23.878125 
L 117.856016 -23.878125 
L 119.333033 -23.878125 
L 120.810049 -23.878125 
L 122.287066 -23.878125 
L 123.764083 -23.878125 
L 125.2411 -23.878125 
L 126.718117 -23.878125 
L 128.195134 -23.878125 
L 129.672151 -23.878125 
L 131.149168 -23.878125 
L 132.626185 -23.878125 
L 134.103201 -23.878125 
L 135.580218 -23.878125 
L 137.057235 -23.878125 
L 138.534252 -23.878125 
L 140.011269 -23.878125 
L 141.488286 -23.878125 
L 142.965303 -23.878125 
L 144.44232 -23.878125 
L 145.919336 -23.878125 
L 147.396353 -23.878125 
L 148.87337 -23.878125 
L 150.350387 -23.878125 
L 151.827404 -23.878125 
L 153.304421 -23.878125 
L 154.781438 -23.878125 
L 156.258455 -23.878125 
L 157.735471 -23.878125 
L 159.212488 -23.878125 
L 160.689505 -23.878125 
L 162.166522 -23.878125 
L 163.643539 -23.878125 
L 165.120556 -23.878125 
L 166.597573 -23.878125 
L 168.07459 -23.878125 
L 169.551607 -23.878125 
L 171.028623 -23.878125 
L 172.50564 -23.878125 
L 173.982657 -23.878125 
L 175.459674 -23.878125 
L 176.936691 -23.878125 
L 178.413708 -23.878125 
L 179.890725 -23.878125 
L 181.367742 -23.878125 
L 182.844758 -23.878125 
L 184.321775 -23.878125 
L 185.798792 -23.878125 
L 187.275809 -23.878125 
L 188.752826 -23.878125 
L 190.229843 -23.878125 
L 191.70686 -23.878125 
L 193.183877 -23.878125 
L 194.660893 -23.878125 
L 196.13791 -23.878125 
L 197.614927 -23.878125 
L 199.091944 -23.878125 
L 200.568961 -23.878125 
L 202.045978 -23.878125 
L 203.522995 -23.878125 
L 205.000012 -23.878125 
L 206.477028 -23.878125 
L 207.954045 -23.878125 
L 209.431062 -23.878125 
L 210.908079 -23.878125 
L 212.385096 -23.878125 
L 213.862113 -23.878125 
L 215.33913 -23.878125 
L 216.816147 -23.878125 
L 218.293164 -23.878125 
L 219.77018 -23.878125 
L 221.247197 -23.878125 
L 222.724214 -23.878125 
L 224.201231 -23.878125 
L 225.678248 -23.878125 
L 227.155265 -23.878125 
L 228.632282 -23.878125 
L 230.109299 -23.878125 
L 231.586315 -23.878125 
L 233.063332 -23.878125 
L 234.540349 -23.878125 
L 236.017366 -23.878125 
L 237.494383 -23.878125 
L 238.9714 -23.878125 
L 240.448417 -23.878125 
L 241.925434 -23.878125 
L 243.40245 -23.878125 
L 244.879467 -23.878125 
L 246.356484 -23.878125 
L 247.833501 -23.878125 
L 249.310518 -23.878125 
L 250.787535 -23.878125 
L 252.264552 -23.878125 
L 253.741569 -23.878125 
L 255.218585 -23.878125 
L 256.695602 -23.878125 
L 258.172619 -23.878125 
L 259.649636 -23.878125 
L 261.126653 -23.878125 
L 262.60367 -23.878125 
L 264.080687 -23.878125 
L 265.557704 -23.878125 
L 267.034721 -23.878125 
L 268.511737 -23.878125 
L 269.988754 -23.878125 
L 271.465771 -23.878125 
L 272.942788 -23.878125 
L 274.419805 -23.878125 
L 275.896822 -23.878125 
L 277.373839 -23.878125 
L 278.850856 -23.878125 
L 280.327872 -23.878125 
L 281.804889 -23.878125 
L 283.281906 -23.878125 
L 284.758923 -23.878125 
L 286.23594 -23.878125 
L 287.712957 -23.878125 
L 289.189974 -23.878125 
L 290.666991 -23.878125 
L 292.144007 -23.878125 
L 293.621024 -23.878125 
L 295.098041 -23.878125 
L 296.575058 -23.878125 
L 298.052075 -23.878125 
L 299.529092 -23.878125 
L 301.006109 -23.878125 
L 302.483126 -23.878125 
L 303.960143 -23.878125 
L 305.437159 -23.878125 
L 306.914176 -23.878125 
L 308.391193 -23.878125 
L 309.86821 -23.878125 
L 311.345227 -23.878125 
L 312.822244 -23.878125 
L 314.299261 -23.878125 
L 315.776278 -23.878125 
L 317.253294 -23.878125 
L 318.730311 -23.878125 
L 320.207328 -23.878125 
L 321.684345 -23.878125 
L 323.161362 -23.878125 
L 324.638379 -23.878125 
L 326.115396 -23.878125 
L 327.592413 -23.878125 
L 329.069429 -23.878125 
L 330.546446 -23.878125 
L 332.023463 -23.878125 
L 333.50048 -23.878125 
L 334.977497 -23.878125 
L 336.454514 -23.878125 
L 337.931531 -23.878125 
L 339.408548 -23.878125 
L 340.885564 -23.878125 
L 342.362581 -23.878125 
L 343.839598 -23.878125 
L 345.316615 -23.878125 
L 346.793632 -23.878125 
L 348.270649 -23.878125 
L 349.747666 -23.878125 
L 349.747666 -23.878808 
L 349.747666 -23.878808 
L 348.270649 -23.880011 
L 346.793632 -23.882921 
L 345.316615 -23.889414 
L 343.839598 -23.902829 
L 342.362581 -23.928577 
L 340.885564 -23.974574 
L 339.408548 -24.051117 
L 337.931531 -24.169885 
L 336.454514 -24.342222 
L 334.977497 -24.577648 
L 333.50048 -24.88409 
L 332.023463 -25.270685 
L 330.546446 -25.75208 
L 329.069429 -26.3513 
L 327.592413 -27.098475 
L 326.115396 -28.025861 
L 324.638379 -29.163406 
L 323.161362 -30.539872 
L 321.684345 -32.189953 
L 320.207328 -34.160609 
L 318.730311 -36.506508 
L 317.253294 -39.270072 
L 315.776278 -42.454041 
L 314.299261 -46.004377 
L 312.822244 -49.819396 
L 311.345227 -53.786216 
L 309.86821 -57.827204 
L 308.391193 -61.930128 
L 306.914176 -66.143641 
L 305.437159 -70.540221 
L 303.960143 -75.168598 
L 302.483126 -80.023321 
L 301.006109 -85.046696 
L 299.529092 -90.156915 
L 298.052075 -95.280832 
L 296.575058 -100.370368 
L 295.098041 -105.396309 
L 293.621024 -110.330967 
L 292.144007 -115.138541 
L 290.666991 -119.782479 
L 289.189974 -124.240329 
L 287.712957 -128.506172 
L 286.23594 -132.571105 
L 284.758923 -136.395925 
L 283.281906 -139.904041 
L 281.804889 -143.010515 
L 280.327872 -145.673481 
L 278.850856 -147.933186 
L 277.373839 -149.910281 
L 275.896822 -151.762115 
L 274.419805 -153.620287 
L 272.942788 -155.538163 
L 271.465771 -157.466329 
L 269.988754 -159.260504 
L 268.511737 -160.718057 
L 267.034721 -161.634396 
L 265.557704 -161.865058 
L 264.080687 -161.373675 
L 262.60367 -160.245368 
L 261.126653 -158.655214 
L 259.649636 -156.80176 
L 258.172619 -154.835707 
L 256.695602 -152.81836 
L 255.218585 -150.727592 
L 253.741569 -148.50181 
L 252.264552 -146.09436 
L 250.787535 -143.511492 
L 249.310518 -140.820328 
L 247.833501 -138.127112 
L 246.356484 -135.534876 
L 244.879467 -133.095695 
L 243.40245 -130.777052 
L 241.925434 -128.460424 
L 240.448417 -125.978179 
L 238.9714 -123.175239 
L 237.494383 -119.966801 
L 236.017366 -116.364984 
L 234.540349 -112.466043 
L 233.063332 -108.411881 
L 231.586315 -104.34886 
L 230.109299 -100.399623 
L 228.632282 -96.650171 
L 227.155265 -93.147135 
L 225.678248 -89.901164 
L 224.201231 -86.895015 
L 222.724214 -84.094164 
L 221.247197 -81.455861 
L 219.77018 -78.934629 
L 218.293164 -76.487525 
L 216.816147 -74.084045 
L 215.33913 -71.719061 
L 213.862113 -69.418682 
L 212.385096 -67.229569 
L 210.908079 -65.194121 
L 209.431062 -63.325899 
L 207.954045 -61.599686 
L 206.477028 -59.959545 
L 205.000012 -58.337837 
L 203.522995 -56.676055 
L 202.045978 -54.941776 
L 200.568961 -53.138246 
L 199.091944 -51.303458 
L 197.614927 -49.497654 
L 196.13791 -47.783116 
L 194.660893 -46.20406 
L 193.183877 -44.77398 
L 191.70686 -43.474137 
L 190.229843 -42.263225 
L 188.752826 -41.095461 
L 187.275809 -39.940981 
L 185.798792 -38.799443 
L 184.321775 -37.699034 
L 182.844758 -36.680587 
L 181.367742 -35.775705 
L 179.890725 -34.991442 
L 178.413708 -34.309048 
L 176.936691 -33.695043 
L 175.459674 -33.116328 
L 173.982657 -32.550832 
L 172.50564 -31.989787 
L 171.028623 -31.433388 
L 169.551607 -30.885076 
L 168.07459 -30.349193 
L 166.597573 -29.832871 
L 165.120556 -29.348773 
L 163.643539 -28.914342 
L 162.166522 -28.546374 
L 160.689505 -28.253825 
L 159.212488 -28.033219 
L 157.735471 -27.869026 
L 156.258455 -27.738237 
L 154.781438 -27.616624 
L 153.304421 -27.484128 
L 151.827404 -27.327836 
L 150.350387 -27.142303 
L 148.87337 -26.928193 
L 147.396353 -26.690714 
L 145.919336 -26.438492 
L 144.44232 -26.182355 
L 142.965303 -25.933382 
L 141.488286 -25.700829 
L 140.011269 -25.491355 
L 138.534252 -25.310113 
L 137.057235 -25.162396 
L 135.580218 -25.053704 
L 134.103201 -24.987338 
L 132.626185 -24.960762 
L 131.149168 -24.963263 
L 129.672151 -24.977092 
L 128.195134 -24.982342 
L 126.718117 -24.963607 
L 125.2411 -24.915095 
L 123.764083 -24.841489 
L 122.287066 -24.754204 
L 120.810049 -24.665405 
L 119.333033 -24.583226 
L 117.856016 -24.510389 
L 116.378999 -24.445791 
L 114.901982 -24.38693 
L 113.424965 -24.331355 
L 111.947948 -24.276969 
L 110.470931 -24.222189 
L 108.993914 -24.166631 
L 107.516898 -24.111895 
L 106.039881 -24.061585 
L 104.562864 -24.020217 
L 103.085847 -23.991504 
L 101.60883 -23.97689 
L 100.131813 -23.974981 
L 98.654796 -23.982086 
L 97.177779 -23.993588 
L 95.700763 -24.005451 
L 94.223746 -24.015127 
L 92.746729 -24.021501 
L 91.269712 -24.024245 
L 89.792695 -24.023312 
L 88.315678 -24.018949 
L 86.838661 -24.011975 
L 85.361644 -24.003726 
L 83.884628 -23.99551 
L 82.407611 -23.98795 
L 80.930594 -23.980809 
L 79.453577 -23.973442 
L 77.97656 -23.965542 
L 76.499543 -23.957573 
L 75.022526 -23.950534 
L 73.545509 -23.945202 
L 72.068492 -23.941401 
L 70.591476 -23.937894 
L 69.114459 -23.933062 
L 67.637442 -23.925897 
L 66.160425 -23.916608 
L 64.683408 -23.906461 
L 63.206391 -23.897047 
L 61.729374 -23.889534 
L 60.252357 -23.884322 
L 58.775341 -23.881153 
L 57.298324 -23.879455 
L 55.821307 -23.87865 
z
" id="mbc4bc9f2cf" style="stroke:#509e90;"/>
    </defs>
    <g clip-path="url(#pc3348efde2)">
     <use style="fill:#509e90;fill-opacity:0.5;stroke:#509e90;" x="0" xlink:href="#mbc4bc9f2cf" y="248.518125"/>
    </g>
   </g>
   <g id="matplotlib.axis_1">
    <g id="xtick_1">
     <g id="line2d_1">
      <defs>
       <path d="M 0 0 
L 0 3.5 
" id="mefdb66874c" style="stroke:#000000;stroke-width:0.8;"/>
      </defs>
      <g>
       <use style="stroke:#000000;stroke-width:0.8;" x="73.78501" xlink:href="#mefdb66874c" y="224.64"/>
      </g>
     </g>
     <g id="text_1">
      <!-- 0.65 -->
      <g transform="translate(62.652197 239.238438)scale(0.1 -0.1)">
       <defs>
        <path d="M 31.78125 66.40625 
Q 24.171875 66.40625 20.328125 58.90625 
Q 16.5 51.421875 16.5 36.375 
Q 16.5 21.390625 20.328125 13.890625 
Q 24.171875 6.390625 31.78125 6.390625 
Q 39.453125 6.390625 43.28125 13.890625 
Q 47.125 21.390625 47.125 36.375 
Q 47.125 51.421875 43.28125 58.90625 
Q 39.453125 66.40625 31.78125 66.40625 
z
M 31.78125 74.21875 
Q 44.046875 74.21875 50.515625 64.515625 
Q 56.984375 54.828125 56.984375 36.375 
Q 56.984375 17.96875 50.515625 8.265625 
Q 44.046875 -1.421875 31.78125 -1.421875 
Q 19.53125 -1.421875 13.0625 8.265625 
Q 6.59375 17.96875 6.59375 36.375 
Q 6.59375 54.828125 13.0625 64.515625 
Q 19.53125 74.21875 31.78125 74.21875 
z
" id="DejaVuSans-48"/>
        <path d="M 10.6875 12.40625 
L 21 12.40625 
L 21 0 
L 10.6875 0 
z
" id="DejaVuSans-46"/>
        <path d="M 33.015625 40.375 
Q 26.375 40.375 22.484375 35.828125 
Q 18.609375 31.296875 18.609375 23.390625 
Q 18.609375 15.53125 22.484375 10.953125 
Q 26.375 6.390625 33.015625 6.390625 
Q 39.65625 6.390625 43.53125 10.953125 
Q 47.40625 15.53125 47.40625 23.390625 
Q 47.40625 31.296875 43.53125 35.828125 
Q 39.65625 40.375 33.015625 40.375 
z
M 52.59375 71.296875 
L 52.59375 62.3125 
Q 48.875 64.0625 45.09375 64.984375 
Q 41.3125 65.921875 37.59375 65.921875 
Q 27.828125 65.921875 22.671875 59.328125 
Q 17.53125 52.734375 16.796875 39.40625 
Q 19.671875 43.65625 24.015625 45.921875 
Q 28.375 48.1875 33.59375 48.1875 
Q 44.578125 48.1875 50.953125 41.515625 
Q 57.328125 34.859375 57.328125 23.390625 
Q 57.328125 12.15625 50.6875 5.359375 
Q 44.046875 -1.421875 33.015625 -1.421875 
Q 20.359375 -1.421875 13.671875 8.265625 
Q 6.984375 17.96875 6.984375 36.375 
Q 6.984375 53.65625 15.1875 63.9375 
Q 23.390625 74.21875 37.203125 74.21875 
Q 40.921875 74.21875 44.703125 73.484375 
Q 48.484375 72.75 52.59375 71.296875 
z
" id="DejaVuSans-54"/>
        <path d="M 10.796875 72.90625 
L 49.515625 72.90625 
L 49.515625 64.59375 
L 19.828125 64.59375 
L 19.828125 46.734375 
Q 21.96875 47.46875 24.109375 47.828125 
Q 26.265625 48.1875 28.421875 48.1875 
Q 40.625 48.1875 47.75 41.5 
Q 54.890625 34.8125 54.890625 23.390625 
Q 54.890625 11.625 47.5625 5.09375 
Q 40.234375 -1.421875 26.90625 -1.421875 
Q 22.3125 -1.421875 17.546875 -0.640625 
Q 12.796875 0.140625 7.71875 1.703125 
L 7.71875 11.625 
Q 12.109375 9.234375 16.796875 8.0625 
Q 21.484375 6.890625 26.703125 6.890625 
Q 35.15625 6.890625 40.078125 11.328125 
Q 45.015625 15.765625 45.015625 23.390625 
Q 45.015625 31 40.078125 35.4375 
Q 35.15625 39.890625 26.703125 39.890625 
Q 22.75 39.890625 18.8125 39.015625 
Q 14.890625 38.140625 10.796875 36.28125 
z
" id="DejaVuSans-53"/>
       </defs>
       <use xlink:href="#DejaVuSans-48"/>
       <use x="63.623047" xlink:href="#DejaVuSans-46"/>
       <use x="95.410156" xlink:href="#DejaVuSans-54"/>
       <use x="159.033203" xlink:href="#DejaVuSans-53"/>
      </g>
     </g>
    </g>
    <g id="xtick_2">
     <g id="line2d_2">
      <g>
       <use style="stroke:#000000;stroke-width:0.8;" x="114.810924" xlink:href="#mefdb66874c" y="224.64"/>
      </g>
     </g>
     <g id="text_2">
      <!-- 0.70 -->
      <g transform="translate(103.678112 239.238438)scale(0.1 -0.1)">
       <defs>
        <path d="M 8.203125 72.90625 
L 55.078125 72.90625 
L 55.078125 68.703125 
L 28.609375 0 
L 18.3125 0 
L 43.21875 64.59375 
L 8.203125 64.59375 
z
" id="DejaVuSans-55"/>
       </defs>
       <use xlink:href="#DejaVuSans-48"/>
       <use x="63.623047" xlink:href="#DejaVuSans-46"/>
       <use x="95.410156" xlink:href="#DejaVuSans-55"/>
       <use x="159.033203" xlink:href="#DejaVuSans-48"/>
      </g>
     </g>
    </g>
    <g id="xtick_3">
     <g id="line2d_3">
      <g>
       <use style="stroke:#000000;stroke-width:0.8;" x="155.836838" xlink:href="#mefdb66874c" y="224.64"/>
      </g>
     </g>
     <g id="text_3">
      <!-- 0.75 -->
      <g transform="translate(144.704026 239.238438)scale(0.1 -0.1)">
       <use xlink:href="#DejaVuSans-48"/>
       <use x="63.623047" xlink:href="#DejaVuSans-46"/>
       <use x="95.410156" xlink:href="#DejaVuSans-55"/>
       <use x="159.033203" xlink:href="#DejaVuSans-53"/>
      </g>
     </g>
    </g>
    <g id="xtick_4">
     <g id="line2d_4">
      <g>
       <use style="stroke:#000000;stroke-width:0.8;" x="196.862753" xlink:href="#mefdb66874c" y="224.64"/>
      </g>
     </g>
     <g id="text_4">
      <!-- 0.80 -->
      <g transform="translate(185.72994 239.238438)scale(0.1 -0.1)">
       <defs>
        <path d="M 31.78125 34.625 
Q 24.75 34.625 20.71875 30.859375 
Q 16.703125 27.09375 16.703125 20.515625 
Q 16.703125 13.921875 20.71875 10.15625 
Q 24.75 6.390625 31.78125 6.390625 
Q 38.8125 6.390625 42.859375 10.171875 
Q 46.921875 13.96875 46.921875 20.515625 
Q 46.921875 27.09375 42.890625 30.859375 
Q 38.875 34.625 31.78125 34.625 
z
M 21.921875 38.8125 
Q 15.578125 40.375 12.03125 44.71875 
Q 8.5 49.078125 8.5 55.328125 
Q 8.5 64.0625 14.71875 69.140625 
Q 20.953125 74.21875 31.78125 74.21875 
Q 42.671875 74.21875 48.875 69.140625 
Q 55.078125 64.0625 55.078125 55.328125 
Q 55.078125 49.078125 51.53125 44.71875 
Q 48 40.375 41.703125 38.8125 
Q 48.828125 37.15625 52.796875 32.3125 
Q 56.78125 27.484375 56.78125 20.515625 
Q 56.78125 9.90625 50.3125 4.234375 
Q 43.84375 -1.421875 31.78125 -1.421875 
Q 19.734375 -1.421875 13.25 4.234375 
Q 6.78125 9.90625 6.78125 20.515625 
Q 6.78125 27.484375 10.78125 32.3125 
Q 14.796875 37.15625 21.921875 38.8125 
z
M 18.3125 54.390625 
Q 18.3125 48.734375 21.84375 45.5625 
Q 25.390625 42.390625 31.78125 42.390625 
Q 38.140625 42.390625 41.71875 45.5625 
Q 45.3125 48.734375 45.3125 54.390625 
Q 45.3125 60.0625 41.71875 63.234375 
Q 38.140625 66.40625 31.78125 66.40625 
Q 25.390625 66.40625 21.84375 63.234375 
Q 18.3125 60.0625 18.3125 54.390625 
z
" id="DejaVuSans-56"/>
       </defs>
       <use xlink:href="#DejaVuSans-48"/>
       <use x="63.623047" xlink:href="#DejaVuSans-46"/>
       <use x="95.410156" xlink:href="#DejaVuSans-56"/>
       <use x="159.033203" xlink:href="#DejaVuSans-48"/>
      </g>
     </g>
    </g>
    <g id="xtick_5">
     <g id="line2d_5">
      <g>
       <use style="stroke:#000000;stroke-width:0.8;" x="237.888667" xlink:href="#mefdb66874c" y="224.64"/>
      </g>
     </g>
     <g id="text_5">
      <!-- 0.85 -->
      <g transform="translate(226.755854 239.238438)scale(0.1 -0.1)">
       <use xlink:href="#DejaVuSans-48"/>
       <use x="63.623047" xlink:href="#DejaVuSans-46"/>
       <use x="95.410156" xlink:href="#DejaVuSans-56"/>
       <use x="159.033203" xlink:href="#DejaVuSans-53"/>
      </g>
     </g>
    </g>
    <g id="xtick_6">
     <g id="line2d_6">
      <g>
       <use style="stroke:#000000;stroke-width:0.8;" x="278.914581" xlink:href="#mefdb66874c" y="224.64"/>
      </g>
     </g>
     <g id="text_6">
      <!-- 0.90 -->
      <g transform="translate(267.781769 239.238438)scale(0.1 -0.1)">
       <defs>
        <path d="M 10.984375 1.515625 
L 10.984375 10.5 
Q 14.703125 8.734375 18.5 7.8125 
Q 22.3125 6.890625 25.984375 6.890625 
Q 35.75 6.890625 40.890625 13.453125 
Q 46.046875 20.015625 46.78125 33.40625 
Q 43.953125 29.203125 39.59375 26.953125 
Q 35.25 24.703125 29.984375 24.703125 
Q 19.046875 24.703125 12.671875 31.3125 
Q 6.296875 37.9375 6.296875 49.421875 
Q 6.296875 60.640625 12.9375 67.421875 
Q 19.578125 74.21875 30.609375 74.21875 
Q 43.265625 74.21875 49.921875 64.515625 
Q 56.59375 54.828125 56.59375 36.375 
Q 56.59375 19.140625 48.40625 8.859375 
Q 40.234375 -1.421875 26.421875 -1.421875 
Q 22.703125 -1.421875 18.890625 -0.6875 
Q 15.09375 0.046875 10.984375 1.515625 
z
M 30.609375 32.421875 
Q 37.25 32.421875 41.125 36.953125 
Q 45.015625 41.5 45.015625 49.421875 
Q 45.015625 57.28125 41.125 61.84375 
Q 37.25 66.40625 30.609375 66.40625 
Q 23.96875 66.40625 20.09375 61.84375 
Q 16.21875 57.28125 16.21875 49.421875 
Q 16.21875 41.5 20.09375 36.953125 
Q 23.96875 32.421875 30.609375 32.421875 
z
" id="DejaVuSans-57"/>
       </defs>
       <use xlink:href="#DejaVuSans-48"/>
       <use x="63.623047" xlink:href="#DejaVuSans-46"/>
       <use x="95.410156" xlink:href="#DejaVuSans-57"/>
       <use x="159.033203" xlink:href="#DejaVuSans-48"/>
      </g>
     </g>
    </g>
    <g id="xtick_7">
     <g id="line2d_7">
      <g>
       <use style="stroke:#000000;stroke-width:0.8;" x="319.940495" xlink:href="#mefdb66874c" y="224.64"/>
      </g>
     </g>
     <g id="text_7">
      <!-- 0.95 -->
      <g transform="translate(308.807683 239.238438)scale(0.1 -0.1)">
       <use xlink:href="#DejaVuSans-48"/>
       <use x="63.623047" xlink:href="#DejaVuSans-46"/>
       <use x="95.410156" xlink:href="#DejaVuSans-57"/>
       <use x="159.033203" xlink:href="#DejaVuSans-53"/>
      </g>
     </g>
    </g>
    <g id="xtick_8">
     <g id="line2d_8">
      <g>
       <use style="stroke:#000000;stroke-width:0.8;" x="360.96641" xlink:href="#mefdb66874c" y="224.64"/>
      </g>
     </g>
     <g id="text_8">
      <!-- 1.00 -->
      <g transform="translate(349.833597 239.238438)scale(0.1 -0.1)">
       <defs>
        <path d="M 12.40625 8.296875 
L 28.515625 8.296875 
L 28.515625 63.921875 
L 10.984375 60.40625 
L 10.984375 69.390625 
L 28.421875 72.90625 
L 38.28125 72.90625 
L 38.28125 8.296875 
L 54.390625 8.296875 
L 54.390625 0 
L 12.40625 0 
z
" id="DejaVuSans-49"/>
       </defs>
       <use xlink:href="#DejaVuSans-49"/>
       <use x="63.623047" xlink:href="#DejaVuSans-46"/>
       <use x="95.410156" xlink:href="#DejaVuSans-48"/>
       <use x="159.033203" xlink:href="#DejaVuSans-48"/>
      </g>
     </g>
    </g>
   </g>
   <g id="matplotlib.axis_2">
    <g id="ytick_1">
     <g id="line2d_9">
      <defs>
       <path d="M 0 0 
L -3.5 0 
" id="m4c4d1d2b76" style="stroke:#000000;stroke-width:0.8;"/>
      </defs>
      <g>
       <use style="stroke:#000000;stroke-width:0.8;" x="40.603125" xlink:href="#m4c4d1d2b76" y="224.64"/>
      </g>
     </g>
     <g id="text_9">
      <!-- 0 -->
      <g transform="translate(27.240625 228.439219)scale(0.1 -0.1)">
       <use xlink:href="#DejaVuSans-48"/>
      </g>
     </g>
    </g>
    <g id="ytick_2">
     <g id="line2d_10">
      <g>
       <use style="stroke:#000000;stroke-width:0.8;" x="40.603125" xlink:href="#m4c4d1d2b76" y="198.609193"/>
      </g>
     </g>
     <g id="text_10">
      <!-- 2 -->
      <g transform="translate(27.240625 202.408412)scale(0.1 -0.1)">
       <defs>
        <path d="M 19.1875 8.296875 
L 53.609375 8.296875 
L 53.609375 0 
L 7.328125 0 
L 7.328125 8.296875 
Q 12.9375 14.109375 22.625 23.890625 
Q 32.328125 33.6875 34.8125 36.53125 
Q 39.546875 41.84375 41.421875 45.53125 
Q 43.3125 49.21875 43.3125 52.78125 
Q 43.3125 58.59375 39.234375 62.25 
Q 35.15625 65.921875 28.609375 65.921875 
Q 23.96875 65.921875 18.8125 64.3125 
Q 13.671875 62.703125 7.8125 59.421875 
L 7.8125 69.390625 
Q 13.765625 71.78125 18.9375 73 
Q 24.125 74.21875 28.421875 74.21875 
Q 39.75 74.21875 46.484375 68.546875 
Q 53.21875 62.890625 53.21875 53.421875 
Q 53.21875 48.921875 51.53125 44.890625 
Q 49.859375 40.875 45.40625 35.40625 
Q 44.1875 33.984375 37.640625 27.21875 
Q 31.109375 20.453125 19.1875 8.296875 
z
" id="DejaVuSans-50"/>
       </defs>
       <use xlink:href="#DejaVuSans-50"/>
      </g>
     </g>
    </g>
    <g id="ytick_3">
     <g id="line2d_11">
      <g>
       <use style="stroke:#000000;stroke-width:0.8;" x="40.603125" xlink:href="#m4c4d1d2b76" y="172.578387"/>
      </g>
     </g>
     <g id="text_11">
      <!-- 4 -->
      <g transform="translate(27.240625 176.377606)scale(0.1 -0.1)">
       <defs>
        <path d="M 37.796875 64.3125 
L 12.890625 25.390625 
L 37.796875 25.390625 
z
M 35.203125 72.90625 
L 47.609375 72.90625 
L 47.609375 25.390625 
L 58.015625 25.390625 
L 58.015625 17.1875 
L 47.609375 17.1875 
L 47.609375 0 
L 37.796875 0 
L 37.796875 17.1875 
L 4.890625 17.1875 
L 4.890625 26.703125 
z
" id="DejaVuSans-52"/>
       </defs>
       <use xlink:href="#DejaVuSans-52"/>
      </g>
     </g>
    </g>
    <g id="ytick_4">
     <g id="line2d_12">
      <g>
       <use style="stroke:#000000;stroke-width:0.8;" x="40.603125" xlink:href="#m4c4d1d2b76" y="146.54758"/>
      </g>
     </g>
     <g id="text_12">
      <!-- 6 -->
      <g transform="translate(27.240625 150.346799)scale(0.1 -0.1)">
       <use xlink:href="#DejaVuSans-54"/>
      </g>
     </g>
    </g>
    <g id="ytick_5">
     <g id="line2d_13">
      <g>
       <use style="stroke:#000000;stroke-width:0.8;" x="40.603125" xlink:href="#m4c4d1d2b76" y="120.516774"/>
      </g>
     </g>
     <g id="text_13">
      <!-- 8 -->
      <g transform="translate(27.240625 124.315993)scale(0.1 -0.1)">
       <use xlink:href="#DejaVuSans-56"/>
      </g>
     </g>
    </g>
    <g id="ytick_6">
     <g id="line2d_14">
      <g>
       <use style="stroke:#000000;stroke-width:0.8;" x="40.603125" xlink:href="#m4c4d1d2b76" y="94.485967"/>
      </g>
     </g>
     <g id="text_14">
      <!-- 10 -->
      <g transform="translate(20.878125 98.285186)scale(0.1 -0.1)">
       <use xlink:href="#DejaVuSans-49"/>
       <use x="63.623047" xlink:href="#DejaVuSans-48"/>
      </g>
     </g>
    </g>
    <g id="ytick_7">
     <g id="line2d_15">
      <g>
       <use style="stroke:#000000;stroke-width:0.8;" x="40.603125" xlink:href="#m4c4d1d2b76" y="68.455161"/>
      </g>
     </g>
     <g id="text_15">
      <!-- 12 -->
      <g transform="translate(20.878125 72.254379)scale(0.1 -0.1)">
       <use xlink:href="#DejaVuSans-49"/>
       <use x="63.623047" xlink:href="#DejaVuSans-50"/>
      </g>
     </g>
    </g>
    <g id="ytick_8">
     <g id="line2d_16">
      <g>
       <use style="stroke:#000000;stroke-width:0.8;" x="40.603125" xlink:href="#m4c4d1d2b76" y="42.424354"/>
      </g>
     </g>
     <g id="text_16">
      <!-- 14 -->
      <g transform="translate(20.878125 46.223573)scale(0.1 -0.1)">
       <use xlink:href="#DejaVuSans-49"/>
       <use x="63.623047" xlink:href="#DejaVuSans-52"/>
      </g>
     </g>
    </g>
    <g id="ytick_9">
     <g id="line2d_17">
      <g>
       <use style="stroke:#000000;stroke-width:0.8;" x="40.603125" xlink:href="#m4c4d1d2b76" y="16.393548"/>
      </g>
     </g>
     <g id="text_17">
      <!-- 16 -->
      <g transform="translate(20.878125 20.192766)scale(0.1 -0.1)">
       <use xlink:href="#DejaVuSans-49"/>
       <use x="63.623047" xlink:href="#DejaVuSans-54"/>
      </g>
     </g>
    </g>
    <g id="text_18">
     <!-- Density -->
     <g transform="translate(14.798438 134.928594)rotate(-90)scale(0.1 -0.1)">
      <defs>
       <path d="M 19.671875 64.796875 
L 19.671875 8.109375 
L 31.59375 8.109375 
Q 46.6875 8.109375 53.6875 14.9375 
Q 60.6875 21.78125 60.6875 36.53125 
Q 60.6875 51.171875 53.6875 57.984375 
Q 46.6875 64.796875 31.59375 64.796875 
z
M 9.8125 72.90625 
L 30.078125 72.90625 
Q 51.265625 72.90625 61.171875 64.09375 
Q 71.09375 55.28125 71.09375 36.53125 
Q 71.09375 17.671875 61.125 8.828125 
Q 51.171875 0 30.078125 0 
L 9.8125 0 
z
" id="DejaVuSans-68"/>
       <path d="M 56.203125 29.59375 
L 56.203125 25.203125 
L 14.890625 25.203125 
Q 15.484375 15.921875 20.484375 11.0625 
Q 25.484375 6.203125 34.421875 6.203125 
Q 39.59375 6.203125 44.453125 7.46875 
Q 49.3125 8.734375 54.109375 11.28125 
L 54.109375 2.78125 
Q 49.265625 0.734375 44.1875 -0.34375 
Q 39.109375 -1.421875 33.890625 -1.421875 
Q 20.796875 -1.421875 13.15625 6.1875 
Q 5.515625 13.8125 5.515625 26.8125 
Q 5.515625 40.234375 12.765625 48.109375 
Q 20.015625 56 32.328125 56 
Q 43.359375 56 49.78125 48.890625 
Q 56.203125 41.796875 56.203125 29.59375 
z
M 47.21875 32.234375 
Q 47.125 39.59375 43.09375 43.984375 
Q 39.0625 48.390625 32.421875 48.390625 
Q 24.90625 48.390625 20.390625 44.140625 
Q 15.875 39.890625 15.1875 32.171875 
z
" id="DejaVuSans-101"/>
       <path d="M 54.890625 33.015625 
L 54.890625 0 
L 45.90625 0 
L 45.90625 32.71875 
Q 45.90625 40.484375 42.875 44.328125 
Q 39.84375 48.1875 33.796875 48.1875 
Q 26.515625 48.1875 22.3125 43.546875 
Q 18.109375 38.921875 18.109375 30.90625 
L 18.109375 0 
L 9.078125 0 
L 9.078125 54.6875 
L 18.109375 54.6875 
L 18.109375 46.1875 
Q 21.34375 51.125 25.703125 53.5625 
Q 30.078125 56 35.796875 56 
Q 45.21875 56 50.046875 50.171875 
Q 54.890625 44.34375 54.890625 33.015625 
z
" id="DejaVuSans-110"/>
       <path d="M 44.28125 53.078125 
L 44.28125 44.578125 
Q 40.484375 46.53125 36.375 47.5 
Q 32.28125 48.484375 27.875 48.484375 
Q 21.1875 48.484375 17.84375 46.4375 
Q 14.5 44.390625 14.5 40.28125 
Q 14.5 37.15625 16.890625 35.375 
Q 19.28125 33.59375 26.515625 31.984375 
L 29.59375 31.296875 
Q 39.15625 29.25 43.1875 25.515625 
Q 47.21875 21.78125 47.21875 15.09375 
Q 47.21875 7.46875 41.1875 3.015625 
Q 35.15625 -1.421875 24.609375 -1.421875 
Q 20.21875 -1.421875 15.453125 -0.5625 
Q 10.6875 0.296875 5.421875 2 
L 5.421875 11.28125 
Q 10.40625 8.6875 15.234375 7.390625 
Q 20.0625 6.109375 24.8125 6.109375 
Q 31.15625 6.109375 34.5625 8.28125 
Q 37.984375 10.453125 37.984375 14.40625 
Q 37.984375 18.0625 35.515625 20.015625 
Q 33.0625 21.96875 24.703125 23.78125 
L 21.578125 24.515625 
Q 13.234375 26.265625 9.515625 29.90625 
Q 5.8125 33.546875 5.8125 39.890625 
Q 5.8125 47.609375 11.28125 51.796875 
Q 16.75 56 26.8125 56 
Q 31.78125 56 36.171875 55.265625 
Q 40.578125 54.546875 44.28125 53.078125 
z
" id="DejaVuSans-115"/>
       <path d="M 9.421875 54.6875 
L 18.40625 54.6875 
L 18.40625 0 
L 9.421875 0 
z
M 9.421875 75.984375 
L 18.40625 75.984375 
L 18.40625 64.59375 
L 9.421875 64.59375 
z
" id="DejaVuSans-105"/>
       <path d="M 18.3125 70.21875 
L 18.3125 54.6875 
L 36.8125 54.6875 
L 36.8125 47.703125 
L 18.3125 47.703125 
L 18.3125 18.015625 
Q 18.3125 11.328125 20.140625 9.421875 
Q 21.96875 7.515625 27.59375 7.515625 
L 36.8125 7.515625 
L 36.8125 0 
L 27.59375 0 
Q 17.1875 0 13.234375 3.875 
Q 9.28125 7.765625 9.28125 18.015625 
L 9.28125 47.703125 
L 2.6875 47.703125 
L 2.6875 54.6875 
L 9.28125 54.6875 
L 9.28125 70.21875 
z
" id="DejaVuSans-116"/>
       <path d="M 32.171875 -5.078125 
Q 28.375 -14.84375 24.75 -17.8125 
Q 21.140625 -20.796875 15.09375 -20.796875 
L 7.90625 -20.796875 
L 7.90625 -13.28125 
L 13.1875 -13.28125 
Q 16.890625 -13.28125 18.9375 -11.515625 
Q 21 -9.765625 23.484375 -3.21875 
L 25.09375 0.875 
L 2.984375 54.6875 
L 12.5 54.6875 
L 29.59375 11.921875 
L 46.6875 54.6875 
L 56.203125 54.6875 
z
" id="DejaVuSans-121"/>
      </defs>
      <use xlink:href="#DejaVuSans-68"/>
      <use x="77.001953" xlink:href="#DejaVuSans-101"/>
      <use x="138.525391" xlink:href="#DejaVuSans-110"/>
      <use x="201.904297" xlink:href="#DejaVuSans-115"/>
      <use x="254.003906" xlink:href="#DejaVuSans-105"/>
      <use x="281.787109" xlink:href="#DejaVuSans-116"/>
      <use x="320.996094" xlink:href="#DejaVuSans-121"/>
     </g>
    </g>
   </g>
   <g id="patch_3">
    <path d="M 40.603125 224.64 
L 40.603125 7.2 
" style="fill:none;stroke:#000000;stroke-linecap:square;stroke-linejoin:miter;stroke-width:0.8;"/>
   </g>
   <g id="patch_4">
    <path d="M 375.403125 224.64 
L 375.403125 7.2 
" style="fill:none;stroke:#000000;stroke-linecap:square;stroke-linejoin:miter;stroke-width:0.8;"/>
   </g>
   <g id="patch_5">
    <path d="M 40.603125 224.64 
L 375.403125 224.64 
" style="fill:none;stroke:#000000;stroke-linecap:square;stroke-linejoin:miter;stroke-width:0.8;"/>
   </g>
   <g id="patch_6">
    <path d="M 40.603125 7.2 
L 375.403125 7.2 
" style="fill:none;stroke:#000000;stroke-linecap:square;stroke-linejoin:miter;stroke-width:0.8;"/>
   </g>
   <g id="legend_1">
    <g id="patch_7">
     <path d="M 304.7125 44.55625 
L 368.403125 44.55625 
Q 370.403125 44.55625 370.403125 42.55625 
L 370.403125 14.2 
Q 370.403125 12.2 368.403125 12.2 
L 304.7125 12.2 
Q 302.7125 12.2 302.7125 14.2 
L 302.7125 42.55625 
Q 302.7125 44.55625 304.7125 44.55625 
z
" style="fill:#ffffff;opacity:0.8;stroke:#cccccc;stroke-linejoin:miter;"/>
    </g>
    <g id="patch_8">
     <path d="M 306.7125 23.798437 
L 326.7125 23.798437 
L 326.7125 16.798437 
L 306.7125 16.798437 
z
" style="fill:#509e90;fill-opacity:0.5;stroke:#509e90;stroke-linejoin:miter;"/>
    </g>
    <g id="text_19">
     <!-- table1 -->
     <g transform="translate(334.7125 23.798437)scale(0.1 -0.1)">
      <defs>
       <path d="M 34.28125 27.484375 
Q 23.390625 27.484375 19.1875 25 
Q 14.984375 22.515625 14.984375 16.5 
Q 14.984375 11.71875 18.140625 8.90625 
Q 21.296875 6.109375 26.703125 6.109375 
Q 34.1875 6.109375 38.703125 11.40625 
Q 43.21875 16.703125 43.21875 25.484375 
L 43.21875 27.484375 
z
M 52.203125 31.203125 
L 52.203125 0 
L 43.21875 0 
L 43.21875 8.296875 
Q 40.140625 3.328125 35.546875 0.953125 
Q 30.953125 -1.421875 24.3125 -1.421875 
Q 15.921875 -1.421875 10.953125 3.296875 
Q 6 8.015625 6 15.921875 
Q 6 25.140625 12.171875 29.828125 
Q 18.359375 34.515625 30.609375 34.515625 
L 43.21875 34.515625 
L 43.21875 35.40625 
Q 43.21875 41.609375 39.140625 45 
Q 35.0625 48.390625 27.6875 48.390625 
Q 23 48.390625 18.546875 47.265625 
Q 14.109375 46.140625 10.015625 43.890625 
L 10.015625 52.203125 
Q 14.9375 54.109375 19.578125 55.046875 
Q 24.21875 56 28.609375 56 
Q 40.484375 56 46.34375 49.84375 
Q 52.203125 43.703125 52.203125 31.203125 
z
" id="DejaVuSans-97"/>
       <path d="M 48.6875 27.296875 
Q 48.6875 37.203125 44.609375 42.84375 
Q 40.53125 48.484375 33.40625 48.484375 
Q 26.265625 48.484375 22.1875 42.84375 
Q 18.109375 37.203125 18.109375 27.296875 
Q 18.109375 17.390625 22.1875 11.75 
Q 26.265625 6.109375 33.40625 6.109375 
Q 40.53125 6.109375 44.609375 11.75 
Q 48.6875 17.390625 48.6875 27.296875 
z
M 18.109375 46.390625 
Q 20.953125 51.265625 25.265625 53.625 
Q 29.59375 56 35.59375 56 
Q 45.5625 56 51.78125 48.09375 
Q 58.015625 40.1875 58.015625 27.296875 
Q 58.015625 14.40625 51.78125 6.484375 
Q 45.5625 -1.421875 35.59375 -1.421875 
Q 29.59375 -1.421875 25.265625 0.953125 
Q 20.953125 3.328125 18.109375 8.203125 
L 18.109375 0 
L 9.078125 0 
L 9.078125 75.984375 
L 18.109375 75.984375 
z
" id="DejaVuSans-98"/>
       <path d="M 9.421875 75.984375 
L 18.40625 75.984375 
L 18.40625 0 
L 9.421875 0 
z
" id="DejaVuSans-108"/>
      </defs>
      <use xlink:href="#DejaVuSans-116"/>
      <use x="39.208984" xlink:href="#DejaVuSans-97"/>
      <use x="100.488281" xlink:href="#DejaVuSans-98"/>
      <use x="163.964844" xlink:href="#DejaVuSans-108"/>
      <use x="191.748047" xlink:href="#DejaVuSans-101"/>
      <use x="253.271484" xlink:href="#DejaVuSans-49"/>
     </g>
    </g>
    <g id="patch_9">
     <path d="M 306.7125 38.476562 
L 326.7125 38.476562 
L 326.7125 31.476562 
L 306.7125 31.476562 
z
" style="fill:#1d6c8a;fill-opacity:0.5;stroke:#1d6c8a;stroke-linejoin:miter;"/>
    </g>
    <g id="text_20">
     <!-- table2 -->
     <g transform="translate(334.7125 38.476562)scale(0.1 -0.1)">
      <use xlink:href="#DejaVuSans-116"/>
      <use x="39.208984" xlink:href="#DejaVuSans-97"/>
      <use x="100.488281" xlink:href="#DejaVuSans-98"/>
      <use x="163.964844" xlink:href="#DejaVuSans-108"/>
      <use x="191.748047" xlink:href="#DejaVuSans-101"/>
      <use x="253.271484" xlink:href="#DejaVuSans-50"/>
     </g>
    </g>
   </g>
  </g>
 </g>
 <defs>
  <clipPath id="pc3348efde2">
   <rect height="217.44" width="334.8" x="40.603125" y="7.2"/>
  </clipPath>
 </defs>
</svg>
