<?xml version="1.0" encoding="utf-8" standalone="no"?>
<!DOCTYPE svg PUBLIC "-//W3C//DTD SVG 1.1//EN"
  "http://www.w3.org/Graphics/SVG/1.1/DTD/svg11.dtd">
<!-- Created with matplotlib (https://matplotlib.org/) -->
<svg height="248.518125pt" version="1.1" viewBox="0 0 403.276563 248.518125" width="403.276563pt" xmlns="http://www.w3.org/2000/svg" xmlns:xlink="http://www.w3.org/1999/xlink">
 <metadata>
  <rdf:RDF xmlns:cc="http://creativecommons.org/ns#" xmlns:dc="http://purl.org/dc/elements/1.1/" xmlns:rdf="http://www.w3.org/1999/02/22-rdf-syntax-ns#">
   <cc:Work>
    <dc:type rdf:resource="http://purl.org/dc/dcmitype/StillImage"/>
    <dc:date>2020-11-27T11:47:03.656762</dc:date>
    <dc:format>image/svg+xml</dc:format>
    <dc:creator>
     <cc:Agent>
      <dc:title>Matplotlib v3.3.3, https://matplotlib.org/</dc:title>
     </cc:Agent>
    </dc:creator>
   </cc:Work>
  </rdf:RDF>
 </metadata>
 <defs>
  <style type="text/css">*{stroke-linecap:butt;stroke-linejoin:round;}</style>
 </defs>
 <g id="figure_1">
  <g id="patch_1">
   <path d="M 0 248.518125 
L 403.276563 248.518125 
L 403.276563 0 
L 0 0 
z
" style="fill:none;"/>
  </g>
  <g id="axes_1">
   <g id="patch_2">
    <path d="M 50.14375 224.64 
L 384.94375 224.64 
L 384.94375 7.2 
L 50.14375 7.2 
z
" style="fill:#ffffff;"/>
   </g>
   <g id="PolyCollection_1">
    <defs>
     <path d="M 165.282756 -23.879443 
L 165.282756 -23.878125 
L 166.434122 -23.878125 
L 167.585489 -23.878125 
L 168.736855 -23.878125 
L 169.888221 -23.878125 
L 171.039587 -23.878125 
L 172.190954 -23.878125 
L 173.34232 -23.878125 
L 174.493686 -23.878125 
L 175.645052 -23.878125 
L 176.796418 -23.878125 
L 177.947785 -23.878125 
L 179.099151 -23.878125 
L 180.250517 -23.878125 
L 181.401883 -23.878125 
L 182.553249 -23.878125 
L 183.704616 -23.878125 
L 184.855982 -23.878125 
L 186.007348 -23.878125 
L 187.158714 -23.878125 
L 188.31008 -23.878125 
L 189.461447 -23.878125 
L 190.612813 -23.878125 
L 191.764179 -23.878125 
L 192.915545 -23.878125 
L 194.066911 -23.878125 
L 195.218278 -23.878125 
L 196.369644 -23.878125 
L 197.52101 -23.878125 
L 198.672376 -23.878125 
L 199.823742 -23.878125 
L 200.975109 -23.878125 
L 202.126475 -23.878125 
L 203.277841 -23.878125 
L 204.429207 -23.878125 
L 205.580573 -23.878125 
L 206.73194 -23.878125 
L 207.883306 -23.878125 
L 209.034672 -23.878125 
L 210.186038 -23.878125 
L 211.337405 -23.878125 
L 212.488771 -23.878125 
L 213.640137 -23.878125 
L 214.791503 -23.878125 
L 215.942869 -23.878125 
L 217.094236 -23.878125 
L 218.245602 -23.878125 
L 219.396968 -23.878125 
L 220.548334 -23.878125 
L 221.6997 -23.878125 
L 222.851067 -23.878125 
L 224.002433 -23.878125 
L 225.153799 -23.878125 
L 226.305165 -23.878125 
L 227.456531 -23.878125 
L 228.607898 -23.878125 
L 229.759264 -23.878125 
L 230.91063 -23.878125 
L 232.061996 -23.878125 
L 233.213362 -23.878125 
L 234.364729 -23.878125 
L 235.516095 -23.878125 
L 236.667461 -23.878125 
L 237.818827 -23.878125 
L 238.970193 -23.878125 
L 240.12156 -23.878125 
L 241.272926 -23.878125 
L 242.424292 -23.878125 
L 243.575658 -23.878125 
L 244.727024 -23.878125 
L 245.878391 -23.878125 
L 247.029757 -23.878125 
L 248.181123 -23.878125 
L 249.332489 -23.878125 
L 250.483855 -23.878125 
L 251.635222 -23.878125 
L 252.786588 -23.878125 
L 253.937954 -23.878125 
L 255.08932 -23.878125 
L 256.240687 -23.878125 
L 257.392053 -23.878125 
L 258.543419 -23.878125 
L 259.694785 -23.878125 
L 260.846151 -23.878125 
L 261.997518 -23.878125 
L 263.148884 -23.878125 
L 264.30025 -23.878125 
L 265.451616 -23.878125 
L 266.602982 -23.878125 
L 267.754349 -23.878125 
L 268.905715 -23.878125 
L 270.057081 -23.878125 
L 271.208447 -23.878125 
L 272.359813 -23.878125 
L 273.51118 -23.878125 
L 274.662546 -23.878125 
L 275.813912 -23.878125 
L 276.965278 -23.878125 
L 278.116644 -23.878125 
L 279.268011 -23.878125 
L 280.419377 -23.878125 
L 281.570743 -23.878125 
L 282.722109 -23.878125 
L 283.873475 -23.878125 
L 285.024842 -23.878125 
L 286.176208 -23.878125 
L 287.327574 -23.878125 
L 288.47894 -23.878125 
L 289.630306 -23.878125 
L 290.781673 -23.878125 
L 291.933039 -23.878125 
L 293.084405 -23.878125 
L 294.235771 -23.878125 
L 295.387138 -23.878125 
L 296.538504 -23.878125 
L 297.68987 -23.878125 
L 298.841236 -23.878125 
L 299.992602 -23.878125 
L 301.143969 -23.878125 
L 302.295335 -23.878125 
L 303.446701 -23.878125 
L 304.598067 -23.878125 
L 305.749433 -23.878125 
L 306.9008 -23.878125 
L 308.052166 -23.878125 
L 309.203532 -23.878125 
L 310.354898 -23.878125 
L 311.506264 -23.878125 
L 312.657631 -23.878125 
L 313.808997 -23.878125 
L 314.960363 -23.878125 
L 316.111729 -23.878125 
L 317.263095 -23.878125 
L 318.414462 -23.878125 
L 319.565828 -23.878125 
L 320.717194 -23.878125 
L 321.86856 -23.878125 
L 323.019926 -23.878125 
L 324.171293 -23.878125 
L 325.322659 -23.878125 
L 326.474025 -23.878125 
L 327.625391 -23.878125 
L 328.776757 -23.878125 
L 329.928124 -23.878125 
L 331.07949 -23.878125 
L 332.230856 -23.878125 
L 333.382222 -23.878125 
L 334.533589 -23.878125 
L 335.684955 -23.878125 
L 336.836321 -23.878125 
L 337.987687 -23.878125 
L 339.139053 -23.878125 
L 340.29042 -23.878125 
L 341.441786 -23.878125 
L 342.593152 -23.878125 
L 343.744518 -23.878125 
L 344.895884 -23.878125 
L 346.047251 -23.878125 
L 347.198617 -23.878125 
L 348.349983 -23.878125 
L 349.501349 -23.878125 
L 350.652715 -23.878125 
L 351.804082 -23.878125 
L 352.955448 -23.878125 
L 354.106814 -23.878125 
L 355.25818 -23.878125 
L 356.409546 -23.878125 
L 357.560913 -23.878125 
L 358.712279 -23.878125 
L 359.863645 -23.878125 
L 361.015011 -23.878125 
L 362.166377 -23.878125 
L 363.317744 -23.878125 
L 364.46911 -23.878125 
L 365.620476 -23.878125 
L 366.771842 -23.878125 
L 367.923208 -23.878125 
L 369.074575 -23.878125 
L 370.225941 -23.878125 
L 371.377307 -23.878125 
L 372.528673 -23.878125 
L 373.680039 -23.878125 
L 374.831406 -23.878125 
L 375.982772 -23.878125 
L 377.134138 -23.878125 
L 378.285504 -23.878125 
L 379.436871 -23.878125 
L 380.588237 -23.878125 
L 381.739603 -23.878125 
L 382.890969 -23.878125 
L 384.042335 -23.878125 
L 385.193702 -23.878125 
L 386.345068 -23.878125 
L 387.496434 -23.878125 
L 388.6478 -23.878125 
L 389.799166 -23.878125 
L 390.950533 -23.878125 
L 392.101899 -23.878125 
L 393.253265 -23.878125 
L 394.404631 -23.878125 
L 394.404631 -23.886994 
L 394.404631 -23.886994 
L 393.253265 -23.901729 
L 392.101899 -23.935987 
L 390.950533 -24.009178 
L 389.799166 -24.153449 
L 388.6478 -24.417198 
L 387.496434 -24.867332 
L 386.345068 -25.589999 
L 385.193702 -26.690158 
L 384.042335 -28.290144 
L 382.890969 -30.526047 
L 381.739603 -33.539833 
L 380.588237 -37.466372 
L 379.436871 -42.417923 
L 378.285504 -48.47095 
L 377.134138 -55.658415 
L 375.982772 -63.965715 
L 374.831406 -73.325483 
L 373.680039 -83.609506 
L 372.528673 -94.622965 
L 371.377307 -106.110087 
L 370.225941 -117.776593 
L 369.074575 -129.325572 
L 367.923208 -140.496216 
L 366.771842 -151.093388 
L 365.620476 -160.999009 
L 364.46911 -170.161691 
L 363.317744 -178.56864 
L 362.166377 -186.21306 
L 361.015011 -193.075721 
L 359.863645 -199.133574 
L 358.712279 -204.390688 
L 357.560913 -208.908741 
L 356.409546 -212.81108 
L 355.25818 -216.250807 
L 354.106814 -219.3581 
L 352.955448 -222.196296 
L 351.804082 -224.750092 
L 350.652715 -226.948733 
L 349.501349 -228.707949 
L 348.349983 -229.968181 
L 347.198617 -230.713108 
L 346.047251 -230.963839 
L 344.895884 -230.754074 
L 343.744518 -230.098828 
L 342.593152 -228.973115 
L 341.441786 -227.313903 
L 340.29042 -225.047142 
L 339.139053 -222.127004 
L 337.987687 -218.567036 
L 336.836321 -214.448197 
L 335.684955 -209.902408 
L 334.533589 -205.08235 
L 333.382222 -200.132237 
L 332.230856 -195.170087 
L 331.07949 -190.283305 
L 329.928124 -185.530682 
L 328.776757 -180.940311 
L 327.625391 -176.49843 
L 326.474025 -172.136869 
L 325.322659 -167.736864 
L 324.171293 -163.163347 
L 323.019926 -158.324679 
L 321.86856 -153.230378 
L 320.717194 -148.011407 
L 319.565828 -142.883364 
L 318.414462 -138.064618 
L 317.263095 -133.688499 
L 316.111729 -129.752649 
L 314.960363 -126.127234 
L 313.808997 -122.612214 
L 312.657631 -119.012792 
L 311.506264 -115.201363 
L 310.354898 -111.147855 
L 309.203532 -106.915727 
L 308.052166 -102.630733 
L 306.9008 -98.43487 
L 305.749433 -94.441242 
L 304.598067 -90.705802 
L 303.446701 -87.225508 
L 302.295335 -83.960538 
L 301.143969 -80.86722 
L 299.992602 -77.925045 
L 298.841236 -75.14662 
L 297.68987 -72.568841 
L 296.538504 -70.231659 
L 295.387138 -68.154714 
L 294.235771 -66.321816 
L 293.084405 -64.679481 
L 291.933039 -63.149532 
L 290.781673 -61.650006 
L 289.630306 -60.116012 
L 288.47894 -58.514021 
L 287.327574 -56.847088 
L 286.176208 -55.15153 
L 285.024842 -53.486426 
L 283.873475 -51.917377 
L 282.722109 -50.497275 
L 281.570743 -49.249359 
L 280.419377 -48.159328 
L 279.268011 -47.181416 
L 278.116644 -46.257639 
L 276.965278 -45.342381 
L 275.813912 -44.420463 
L 274.662546 -43.509139 
L 273.51118 -42.642993 
L 272.359813 -41.850577 
L 271.208447 -41.136322 
L 270.057081 -40.477632 
L 268.905715 -39.837695 
L 267.754349 -39.18568 
L 266.602982 -38.512767 
L 265.451616 -37.835751 
L 264.30025 -37.187138 
L 263.148884 -36.597545 
L 261.997518 -36.079743 
L 260.846151 -35.622204 
L 259.694785 -35.194573 
L 258.543419 -34.761067 
L 257.392053 -34.294335 
L 256.240687 -33.783512 
L 255.08932 -33.234772 
L 253.937954 -32.666812 
L 252.786588 -32.104727 
L 251.635222 -31.574143 
L 250.483855 -31.095829 
L 249.332489 -30.681022 
L 248.181123 -30.328774 
L 247.029757 -30.026991 
L 245.878391 -29.757493 
L 244.727024 -29.502947 
L 243.575658 -29.251942 
L 242.424292 -28.999122 
L 241.272926 -28.74073 
L 240.12156 -28.469629 
L 238.970193 -28.174861 
L 237.818827 -27.847405 
L 236.667461 -27.488464 
L 235.516095 -27.113909 
L 234.364729 -26.750947 
L 233.213362 -26.428665 
L 232.061996 -26.168119 
L 230.91063 -25.977113 
L 229.759264 -25.850895 
L 228.607898 -25.776411 
L 227.456531 -25.736973 
L 226.305165 -25.715679 
L 225.153799 -25.697579 
L 224.002433 -25.67101 
L 222.851067 -25.628208 
L 221.6997 -25.565284 
L 220.548334 -25.482065 
L 219.396968 -25.382356 
L 218.245602 -25.274479 
L 217.094236 -25.170867 
L 215.942869 -25.085427 
L 214.791503 -25.028742 
L 213.640137 -25.003095 
L 212.488771 -25.000182 
L 211.337405 -25.003394 
L 210.186038 -24.994066 
L 209.034672 -24.958785 
L 207.883306 -24.894197 
L 206.73194 -24.807162 
L 205.580573 -24.710694 
L 204.429207 -24.618091 
L 203.277841 -24.538076 
L 202.126475 -24.472632 
L 200.975109 -24.417765 
L 199.823742 -24.366351 
L 198.672376 -24.311819 
L 197.52101 -24.25127 
L 196.369644 -24.186863 
L 195.218278 -24.124894 
L 194.066911 -24.07306 
L 192.915545 -24.03726 
L 191.764179 -24.019453 
L 190.612813 -24.017418 
L 189.461447 -24.026212 
L 188.31008 -24.040404 
L 187.158714 -24.055979 
L 186.007348 -24.071221 
L 184.855982 -24.086422 
L 183.704616 -24.102711 
L 182.553249 -24.120563 
L 181.401883 -24.138596 
L 180.250517 -24.153219 
L 179.099151 -24.159435 
L 177.947785 -24.152646 
L 176.796418 -24.130716 
L 175.645052 -24.095245 
L 174.493686 -24.051298 
L 173.34232 -24.005664 
L 172.190954 -23.964557 
L 171.039587 -23.931888 
L 169.888221 -23.908766 
L 168.736855 -23.894103 
L 167.585489 -23.885742 
L 166.434122 -23.881442 
L 165.282756 -23.879443 
z
" id="m71404b5d96" style="stroke:#1d6c8a;"/>
    </defs>
    <g clip-path="url(#p32a493e1b7)">
     <use style="fill:#1d6c8a;fill-opacity:0.5;stroke:#1d6c8a;" x="0" xlink:href="#m71404b5d96" y="248.518125"/>
    </g>
   </g>
   <g id="PolyCollection_2">
    <path clip-path="url(#p32a493e1b7)" d="M -21.418166 224.639549 
L -21.418166 224.64 
L -19.369631 224.64 
L -17.321096 224.64 
L -15.272561 224.64 
L -13.224026 224.64 
L -11.17549 224.64 
L -9.126955 224.64 
L -7.07842 224.64 
L -5.029885 224.64 
L -2.981349 224.64 
L -0.932814 224.64 
L 1.115721 224.64 
L 3.164256 224.64 
L 5.212791 224.64 
L 7.261327 224.64 
L 9.309862 224.64 
L 11.358397 224.64 
L 13.406932 224.64 
L 15.455468 224.64 
L 17.504003 224.64 
L 19.552538 224.64 
L 21.601073 224.64 
L 23.649608 224.64 
L 25.698144 224.64 
L 27.746679 224.64 
L 29.795214 224.64 
L 31.843749 224.64 
L 33.892285 224.64 
L 35.94082 224.64 
L 37.989355 224.64 
L 40.03789 224.64 
L 42.086425 224.64 
L 44.134961 224.64 
L 46.183496 224.64 
L 48.232031 224.64 
L 50.280566 224.64 
L 52.329102 224.64 
L 54.377637 224.64 
L 56.426172 224.64 
L 58.474707 224.64 
L 60.523242 224.64 
L 62.571778 224.64 
L 64.620313 224.64 
L 66.668848 224.64 
L 68.717383 224.64 
L 70.765919 224.64 
L 72.814454 224.64 
L 74.862989 224.64 
L 76.911524 224.64 
L 78.960059 224.64 
L 81.008595 224.64 
L 83.05713 224.64 
L 85.105665 224.64 
L 87.1542 224.64 
L 89.202736 224.64 
L 91.251271 224.64 
L 93.299806 224.64 
L 95.348341 224.64 
L 97.396876 224.64 
L 99.445412 224.64 
L 101.493947 224.64 
L 103.542482 224.64 
L 105.591017 224.64 
L 107.639553 224.64 
L 109.688088 224.64 
L 111.736623 224.64 
L 113.785158 224.64 
L 115.833693 224.64 
L 117.882229 224.64 
L 119.930764 224.64 
L 121.979299 224.64 
L 124.027834 224.64 
L 126.07637 224.64 
L 128.124905 224.64 
L 130.17344 224.64 
L 132.221975 224.64 
L 134.27051 224.64 
L 136.319046 224.64 
L 138.367581 224.64 
L 140.416116 224.64 
L 142.464651 224.64 
L 144.513186 224.64 
L 146.561722 224.64 
L 148.610257 224.64 
L 150.658792 224.64 
L 152.707327 224.64 
L 154.755863 224.64 
L 156.804398 224.64 
L 158.852933 224.64 
L 160.901468 224.64 
L 162.950003 224.64 
L 164.998539 224.64 
L 167.047074 224.64 
L 169.095609 224.64 
L 171.144144 224.64 
L 173.19268 224.64 
L 175.241215 224.64 
L 177.28975 224.64 
L 179.338285 224.64 
L 181.38682 224.64 
L 183.435356 224.64 
L 185.483891 224.64 
L 187.532426 224.64 
L 189.580961 224.64 
L 191.629497 224.64 
L 193.678032 224.64 
L 195.726567 224.64 
L 197.775102 224.64 
L 199.823637 224.64 
L 201.872173 224.64 
L 203.920708 224.64 
L 205.969243 224.64 
L 208.017778 224.64 
L 210.066314 224.64 
L 212.114849 224.64 
L 214.163384 224.64 
L 216.211919 224.64 
L 218.260454 224.64 
L 220.30899 224.64 
L 222.357525 224.64 
L 224.40606 224.64 
L 226.454595 224.64 
L 228.503131 224.64 
L 230.551666 224.64 
L 232.600201 224.64 
L 234.648736 224.64 
L 236.697271 224.64 
L 238.745807 224.64 
L 240.794342 224.64 
L 242.842877 224.64 
L 244.891412 224.64 
L 246.939948 224.64 
L 248.988483 224.64 
L 251.037018 224.64 
L 253.085553 224.64 
L 255.134088 224.64 
L 257.182624 224.64 
L 259.231159 224.64 
L 261.279694 224.64 
L 263.328229 224.64 
L 265.376765 224.64 
L 267.4253 224.64 
L 269.473835 224.64 
L 271.52237 224.64 
L 273.570905 224.64 
L 275.619441 224.64 
L 277.667976 224.64 
L 279.716511 224.64 
L 281.765046 224.64 
L 283.813582 224.64 
L 285.862117 224.64 
L 287.910652 224.64 
L 289.959187 224.64 
L 292.007722 224.64 
L 294.056258 224.64 
L 296.104793 224.64 
L 298.153328 224.64 
L 300.201863 224.64 
L 302.250399 224.64 
L 304.298934 224.64 
L 306.347469 224.64 
L 308.396004 224.64 
L 310.444539 224.64 
L 312.493075 224.64 
L 314.54161 224.64 
L 316.590145 224.64 
L 318.63868 224.64 
L 320.687216 224.64 
L 322.735751 224.64 
L 324.784286 224.64 
L 326.832821 224.64 
L 328.881356 224.64 
L 330.929892 224.64 
L 332.978427 224.64 
L 335.026962 224.64 
L 337.075497 224.64 
L 339.124032 224.64 
L 341.172568 224.64 
L 343.221103 224.64 
L 345.269638 224.64 
L 347.318173 224.64 
L 349.366709 224.64 
L 351.415244 224.64 
L 353.463779 224.64 
L 355.512314 224.64 
L 357.560849 224.64 
L 359.609385 224.64 
L 361.65792 224.64 
L 363.706455 224.64 
L 365.75499 224.64 
L 367.803526 224.64 
L 369.852061 224.64 
L 371.900596 224.64 
L 373.949131 224.64 
L 375.997666 224.64 
L 378.046202 224.64 
L 380.094737 224.64 
L 382.143272 224.64 
L 384.191807 224.64 
L 386.240343 224.64 
L 386.240343 224.639442 
L 386.240343 224.639442 
L 384.191807 224.638447 
L 382.143272 224.636091 
L 380.094737 224.631075 
L 378.046202 224.621417 
L 375.997666 224.604497 
L 373.949131 224.577239 
L 371.900596 224.536146 
L 369.852061 224.476578 
L 367.803526 224.390562 
L 365.75499 224.262982 
L 363.706455 224.067412 
L 361.65792 223.764538 
L 359.609385 223.306473 
L 357.560849 222.647842 
L 355.512314 221.759662 
L 353.463779 220.637905 
L 351.415244 219.299256 
L 349.366709 217.763279 
L 347.318173 216.029795 
L 345.269638 214.066053 
L 343.221103 211.814732 
L 341.172568 209.221039 
L 339.124032 206.263057 
L 337.075497 202.965784 
L 335.026962 199.390762 
L 332.978427 195.611159 
L 330.929892 191.6906 
L 328.881356 187.675394 
L 326.832821 183.594129 
L 324.784286 179.452792 
L 322.735751 175.223962 
L 320.687216 170.84349 
L 318.63868 166.230205 
L 316.590145 161.328608 
L 314.54161 156.154172 
L 312.493075 150.814488 
L 310.444539 145.492777 
L 308.396004 140.401228 
L 306.347469 135.724453 
L 304.298934 131.57382 
L 302.250399 127.96695 
L 300.201863 124.837075 
L 298.153328 122.064965 
L 296.104793 119.5173 
L 294.056258 117.077447 
L 292.007722 114.665155 
L 289.959187 112.248714 
L 287.910652 109.850889 
L 285.862117 107.546418 
L 283.813582 105.45147 
L 281.765046 103.709019 
L 279.716511 102.471009 
L 277.667976 101.873176 
L 275.619441 102.002399 
L 273.570905 102.868071 
L 271.52237 104.394111 
L 269.473835 106.438602 
L 267.4253 108.83208 
L 265.376765 111.416668 
L 263.328229 114.071051 
L 261.279694 116.715946 
L 259.231159 119.304971 
L 257.182624 121.811324 
L 255.134088 124.218528 
L 253.085553 126.516391 
L 251.037018 128.699384 
L 248.988483 130.767902 
L 246.939948 132.737767 
L 244.891412 134.659519 
L 242.842877 136.635286 
L 240.794342 138.810651 
L 238.745807 141.32904 
L 236.697271 144.265676 
L 234.648736 147.582066 
L 232.600201 151.133912 
L 230.551666 154.728843 
L 228.503131 158.19801 
L 226.454595 161.444166 
L 224.40606 164.452622 
L 222.357525 167.273604 
L 220.30899 169.989855 
L 218.260454 172.679719 
L 216.211919 175.386114 
L 214.163384 178.104056 
L 212.114849 180.792665 
L 210.066314 183.401468 
L 208.017778 185.890946 
L 205.969243 188.235885 
L 203.920708 190.418467 
L 201.872173 192.42543 
L 199.823637 194.253278 
L 197.775102 195.912671 
L 195.726567 197.423782 
L 193.678032 198.806123 
L 191.629497 200.073455 
L 189.580961 201.239005 
L 187.532426 202.325269 
L 185.483891 203.367522 
L 183.435356 204.405033 
L 181.38682 205.464191 
L 179.338285 206.544915 
L 177.28975 207.620255 
L 175.241215 208.650087 
L 173.19268 209.600689 
L 171.144144 210.45963 
L 169.095609 211.240011 
L 167.047074 211.974198 
L 164.998539 212.700494 
L 162.950003 213.447327 
L 160.901468 214.220585 
L 158.852933 214.999837 
L 156.804398 215.745947 
L 154.755863 216.416739 
L 152.707327 216.983203 
L 150.658792 217.439609 
L 148.610257 217.80499 
L 146.561722 218.116848 
L 144.513186 218.419377 
L 142.464651 218.749586 
L 140.416116 219.126311 
L 138.367581 219.546803 
L 136.319046 219.991642 
L 134.27051 220.433937 
L 132.221975 220.847549 
L 130.17344 221.212178 
L 128.124905 221.51641 
L 126.07637 221.759631 
L 124.027834 221.951463 
L 121.979299 222.107082 
L 119.930764 222.239792 
L 117.882229 222.355524 
L 115.833693 222.453415 
L 113.785158 222.53219 
L 111.736623 222.597172 
L 109.688088 222.661899 
L 107.639553 222.742535 
L 105.591017 222.849139 
L 103.542482 222.980441 
L 101.493947 223.125797 
L 99.445412 223.27226 
L 97.396876 223.41119 
L 95.348341 223.540078 
L 93.299806 223.659621 
L 91.251271 223.769453 
L 89.202736 223.866224 
L 87.1542 223.945244 
L 85.105665 224.004017 
L 83.05713 224.044662 
L 81.008595 224.073335 
L 78.960059 224.097291 
L 76.911524 224.12201 
L 74.862989 224.150225 
L 72.814454 224.182557 
L 70.765919 224.218224 
L 68.717383 224.255041 
L 66.668848 224.289476 
L 64.620313 224.317692 
L 62.571778 224.337251 
L 60.523242 224.348332 
L 58.474707 224.353696 
L 56.426172 224.357621 
L 54.377637 224.364392 
L 52.329102 224.376835 
L 50.280566 224.395369 
L 48.232031 224.418094 
L 46.183496 224.442019 
L 44.134961 224.464728 
L 42.086425 224.485399 
L 40.03789 224.504638 
L 37.989355 224.523525 
L 35.94082 224.542721 
L 33.892285 224.562113 
L 31.843749 224.580921 
L 29.795214 224.598028 
L 27.746679 224.612374 
L 25.698144 224.623318 
L 23.649608 224.630833 
L 21.601073 224.63544 
L 19.552538 224.637939 
L 17.504003 224.639092 
L 15.455468 224.639421 
L 13.406932 224.639114 
L 11.358397 224.638024 
L 9.309862 224.635729 
L 7.261327 224.631694 
L 5.212791 224.625608 
L 3.164256 224.617804 
L 1.115721 224.609537 
L -0.932814 224.602792 
L -2.981349 224.599556 
L -5.029885 224.600878 
L -7.07842 224.606323 
L -9.126955 224.6142 
L -11.17549 224.622411 
L -13.224026 224.629328 
L -15.272561 224.634238 
L -17.321096 224.637231 
L -19.369631 224.638816 
L -21.418166 224.639549 
z
" style="fill:#509e90;fill-opacity:0.5;stroke:#509e90;"/>
   </g>
   <g id="matplotlib.axis_1">
    <g id="xtick_1">
     <g id="line2d_1">
      <defs>
       <path d="M 0 0 
L 0 3.5 
" id="m9b22f6d684" style="stroke:#000000;stroke-width:0.8;"/>
      </defs>
      <g>
       <use style="stroke:#000000;stroke-width:0.8;" x="50.14375" xlink:href="#m9b22f6d684" y="224.64"/>
      </g>
     </g>
     <g id="text_1">
      <!-- 0.70 -->
      <g transform="translate(39.010938 239.238438)scale(0.1 -0.1)">
       <defs>
        <path d="M 31.78125 66.40625 
Q 24.171875 66.40625 20.328125 58.90625 
Q 16.5 51.421875 16.5 36.375 
Q 16.5 21.390625 20.328125 13.890625 
Q 24.171875 6.390625 31.78125 6.390625 
Q 39.453125 6.390625 43.28125 13.890625 
Q 47.125 21.390625 47.125 36.375 
Q 47.125 51.421875 43.28125 58.90625 
Q 39.453125 66.40625 31.78125 66.40625 
z
M 31.78125 74.21875 
Q 44.046875 74.21875 50.515625 64.515625 
Q 56.984375 54.828125 56.984375 36.375 
Q 56.984375 17.96875 50.515625 8.265625 
Q 44.046875 -1.421875 31.78125 -1.421875 
Q 19.53125 -1.421875 13.0625 8.265625 
Q 6.59375 17.96875 6.59375 36.375 
Q 6.59375 54.828125 13.0625 64.515625 
Q 19.53125 74.21875 31.78125 74.21875 
z
" id="DejaVuSans-48"/>
        <path d="M 10.6875 12.40625 
L 21 12.40625 
L 21 0 
L 10.6875 0 
z
" id="DejaVuSans-46"/>
        <path d="M 8.203125 72.90625 
L 55.078125 72.90625 
L 55.078125 68.703125 
L 28.609375 0 
L 18.3125 0 
L 43.21875 64.59375 
L 8.203125 64.59375 
z
" id="DejaVuSans-55"/>
       </defs>
       <use xlink:href="#DejaVuSans-48"/>
       <use x="63.623047" xlink:href="#DejaVuSans-46"/>
       <use x="95.410156" xlink:href="#DejaVuSans-55"/>
       <use x="159.033203" xlink:href="#DejaVuSans-48"/>
      </g>
     </g>
    </g>
    <g id="xtick_2">
     <g id="line2d_2">
      <g>
       <use style="stroke:#000000;stroke-width:0.8;" x="105.94375" xlink:href="#m9b22f6d684" y="224.64"/>
      </g>
     </g>
     <g id="text_2">
      <!-- 0.75 -->
      <g transform="translate(94.810938 239.238438)scale(0.1 -0.1)">
       <defs>
        <path d="M 10.796875 72.90625 
L 49.515625 72.90625 
L 49.515625 64.59375 
L 19.828125 64.59375 
L 19.828125 46.734375 
Q 21.96875 47.46875 24.109375 47.828125 
Q 26.265625 48.1875 28.421875 48.1875 
Q 40.625 48.1875 47.75 41.5 
Q 54.890625 34.8125 54.890625 23.390625 
Q 54.890625 11.625 47.5625 5.09375 
Q 40.234375 -1.421875 26.90625 -1.421875 
Q 22.3125 -1.421875 17.546875 -0.640625 
Q 12.796875 0.140625 7.71875 1.703125 
L 7.71875 11.625 
Q 12.109375 9.234375 16.796875 8.0625 
Q 21.484375 6.890625 26.703125 6.890625 
Q 35.15625 6.890625 40.078125 11.328125 
Q 45.015625 15.765625 45.015625 23.390625 
Q 45.015625 31 40.078125 35.4375 
Q 35.15625 39.890625 26.703125 39.890625 
Q 22.75 39.890625 18.8125 39.015625 
Q 14.890625 38.140625 10.796875 36.28125 
z
" id="DejaVuSans-53"/>
       </defs>
       <use xlink:href="#DejaVuSans-48"/>
       <use x="63.623047" xlink:href="#DejaVuSans-46"/>
       <use x="95.410156" xlink:href="#DejaVuSans-55"/>
       <use x="159.033203" xlink:href="#DejaVuSans-53"/>
      </g>
     </g>
    </g>
    <g id="xtick_3">
     <g id="line2d_3">
      <g>
       <use style="stroke:#000000;stroke-width:0.8;" x="161.74375" xlink:href="#m9b22f6d684" y="224.64"/>
      </g>
     </g>
     <g id="text_3">
      <!-- 0.80 -->
      <g transform="translate(150.610938 239.238438)scale(0.1 -0.1)">
       <defs>
        <path d="M 31.78125 34.625 
Q 24.75 34.625 20.71875 30.859375 
Q 16.703125 27.09375 16.703125 20.515625 
Q 16.703125 13.921875 20.71875 10.15625 
Q 24.75 6.390625 31.78125 6.390625 
Q 38.8125 6.390625 42.859375 10.171875 
Q 46.921875 13.96875 46.921875 20.515625 
Q 46.921875 27.09375 42.890625 30.859375 
Q 38.875 34.625 31.78125 34.625 
z
M 21.921875 38.8125 
Q 15.578125 40.375 12.03125 44.71875 
Q 8.5 49.078125 8.5 55.328125 
Q 8.5 64.0625 14.71875 69.140625 
Q 20.953125 74.21875 31.78125 74.21875 
Q 42.671875 74.21875 48.875 69.140625 
Q 55.078125 64.0625 55.078125 55.328125 
Q 55.078125 49.078125 51.53125 44.71875 
Q 48 40.375 41.703125 38.8125 
Q 48.828125 37.15625 52.796875 32.3125 
Q 56.78125 27.484375 56.78125 20.515625 
Q 56.78125 9.90625 50.3125 4.234375 
Q 43.84375 -1.421875 31.78125 -1.421875 
Q 19.734375 -1.421875 13.25 4.234375 
Q 6.78125 9.90625 6.78125 20.515625 
Q 6.78125 27.484375 10.78125 32.3125 
Q 14.796875 37.15625 21.921875 38.8125 
z
M 18.3125 54.390625 
Q 18.3125 48.734375 21.84375 45.5625 
Q 25.390625 42.390625 31.78125 42.390625 
Q 38.140625 42.390625 41.71875 45.5625 
Q 45.3125 48.734375 45.3125 54.390625 
Q 45.3125 60.0625 41.71875 63.234375 
Q 38.140625 66.40625 31.78125 66.40625 
Q 25.390625 66.40625 21.84375 63.234375 
Q 18.3125 60.0625 18.3125 54.390625 
z
" id="DejaVuSans-56"/>
       </defs>
       <use xlink:href="#DejaVuSans-48"/>
       <use x="63.623047" xlink:href="#DejaVuSans-46"/>
       <use x="95.410156" xlink:href="#DejaVuSans-56"/>
       <use x="159.033203" xlink:href="#DejaVuSans-48"/>
      </g>
     </g>
    </g>
    <g id="xtick_4">
     <g id="line2d_4">
      <g>
       <use style="stroke:#000000;stroke-width:0.8;" x="217.54375" xlink:href="#m9b22f6d684" y="224.64"/>
      </g>
     </g>
     <g id="text_4">
      <!-- 0.85 -->
      <g transform="translate(206.410938 239.238438)scale(0.1 -0.1)">
       <use xlink:href="#DejaVuSans-48"/>
       <use x="63.623047" xlink:href="#DejaVuSans-46"/>
       <use x="95.410156" xlink:href="#DejaVuSans-56"/>
       <use x="159.033203" xlink:href="#DejaVuSans-53"/>
      </g>
     </g>
    </g>
    <g id="xtick_5">
     <g id="line2d_5">
      <g>
       <use style="stroke:#000000;stroke-width:0.8;" x="273.34375" xlink:href="#m9b22f6d684" y="224.64"/>
      </g>
     </g>
     <g id="text_5">
      <!-- 0.90 -->
      <g transform="translate(262.210938 239.238438)scale(0.1 -0.1)">
       <defs>
        <path d="M 10.984375 1.515625 
L 10.984375 10.5 
Q 14.703125 8.734375 18.5 7.8125 
Q 22.3125 6.890625 25.984375 6.890625 
Q 35.75 6.890625 40.890625 13.453125 
Q 46.046875 20.015625 46.78125 33.40625 
Q 43.953125 29.203125 39.59375 26.953125 
Q 35.25 24.703125 29.984375 24.703125 
Q 19.046875 24.703125 12.671875 31.3125 
Q 6.296875 37.9375 6.296875 49.421875 
Q 6.296875 60.640625 12.9375 67.421875 
Q 19.578125 74.21875 30.609375 74.21875 
Q 43.265625 74.21875 49.921875 64.515625 
Q 56.59375 54.828125 56.59375 36.375 
Q 56.59375 19.140625 48.40625 8.859375 
Q 40.234375 -1.421875 26.421875 -1.421875 
Q 22.703125 -1.421875 18.890625 -0.6875 
Q 15.09375 0.046875 10.984375 1.515625 
z
M 30.609375 32.421875 
Q 37.25 32.421875 41.125 36.953125 
Q 45.015625 41.5 45.015625 49.421875 
Q 45.015625 57.28125 41.125 61.84375 
Q 37.25 66.40625 30.609375 66.40625 
Q 23.96875 66.40625 20.09375 61.84375 
Q 16.21875 57.28125 16.21875 49.421875 
Q 16.21875 41.5 20.09375 36.953125 
Q 23.96875 32.421875 30.609375 32.421875 
z
" id="DejaVuSans-57"/>
       </defs>
       <use xlink:href="#DejaVuSans-48"/>
       <use x="63.623047" xlink:href="#DejaVuSans-46"/>
       <use x="95.410156" xlink:href="#DejaVuSans-57"/>
       <use x="159.033203" xlink:href="#DejaVuSans-48"/>
      </g>
     </g>
    </g>
    <g id="xtick_6">
     <g id="line2d_6">
      <g>
       <use style="stroke:#000000;stroke-width:0.8;" x="329.14375" xlink:href="#m9b22f6d684" y="224.64"/>
      </g>
     </g>
     <g id="text_6">
      <!-- 0.95 -->
      <g transform="translate(318.010938 239.238438)scale(0.1 -0.1)">
       <use xlink:href="#DejaVuSans-48"/>
       <use x="63.623047" xlink:href="#DejaVuSans-46"/>
       <use x="95.410156" xlink:href="#DejaVuSans-57"/>
       <use x="159.033203" xlink:href="#DejaVuSans-53"/>
      </g>
     </g>
    </g>
    <g id="xtick_7">
     <g id="line2d_7">
      <g>
       <use style="stroke:#000000;stroke-width:0.8;" x="384.94375" xlink:href="#m9b22f6d684" y="224.64"/>
      </g>
     </g>
     <g id="text_7">
      <!-- 1.00 -->
      <g transform="translate(373.810938 239.238438)scale(0.1 -0.1)">
       <defs>
        <path d="M 12.40625 8.296875 
L 28.515625 8.296875 
L 28.515625 63.921875 
L 10.984375 60.40625 
L 10.984375 69.390625 
L 28.421875 72.90625 
L 38.28125 72.90625 
L 38.28125 8.296875 
L 54.390625 8.296875 
L 54.390625 0 
L 12.40625 0 
z
" id="DejaVuSans-49"/>
       </defs>
       <use xlink:href="#DejaVuSans-49"/>
       <use x="63.623047" xlink:href="#DejaVuSans-46"/>
       <use x="95.410156" xlink:href="#DejaVuSans-48"/>
       <use x="159.033203" xlink:href="#DejaVuSans-48"/>
      </g>
     </g>
    </g>
   </g>
   <g id="matplotlib.axis_2">
    <g id="ytick_1">
     <g id="line2d_8">
      <defs>
       <path d="M 0 0 
L -3.5 0 
" id="m8334b358eb" style="stroke:#000000;stroke-width:0.8;"/>
      </defs>
      <g>
       <use style="stroke:#000000;stroke-width:0.8;" x="50.14375" xlink:href="#m8334b358eb" y="224.64"/>
      </g>
     </g>
     <g id="text_8">
      <!-- 0.0 -->
      <g transform="translate(27.240625 228.439219)scale(0.1 -0.1)">
       <use xlink:href="#DejaVuSans-48"/>
       <use x="63.623047" xlink:href="#DejaVuSans-46"/>
       <use x="95.410156" xlink:href="#DejaVuSans-48"/>
      </g>
     </g>
    </g>
    <g id="ytick_2">
     <g id="line2d_9">
      <g>
       <use style="stroke:#000000;stroke-width:0.8;" x="50.14375" xlink:href="#m8334b358eb" y="197.320171"/>
      </g>
     </g>
     <g id="text_9">
      <!-- 2.5 -->
      <g transform="translate(27.240625 201.119389)scale(0.1 -0.1)">
       <defs>
        <path d="M 19.1875 8.296875 
L 53.609375 8.296875 
L 53.609375 0 
L 7.328125 0 
L 7.328125 8.296875 
Q 12.9375 14.109375 22.625 23.890625 
Q 32.328125 33.6875 34.8125 36.53125 
Q 39.546875 41.84375 41.421875 45.53125 
Q 43.3125 49.21875 43.3125 52.78125 
Q 43.3125 58.59375 39.234375 62.25 
Q 35.15625 65.921875 28.609375 65.921875 
Q 23.96875 65.921875 18.8125 64.3125 
Q 13.671875 62.703125 7.8125 59.421875 
L 7.8125 69.390625 
Q 13.765625 71.78125 18.9375 73 
Q 24.125 74.21875 28.421875 74.21875 
Q 39.75 74.21875 46.484375 68.546875 
Q 53.21875 62.890625 53.21875 53.421875 
Q 53.21875 48.921875 51.53125 44.890625 
Q 49.859375 40.875 45.40625 35.40625 
Q 44.1875 33.984375 37.640625 27.21875 
Q 31.109375 20.453125 19.1875 8.296875 
z
" id="DejaVuSans-50"/>
       </defs>
       <use xlink:href="#DejaVuSans-50"/>
       <use x="63.623047" xlink:href="#DejaVuSans-46"/>
       <use x="95.410156" xlink:href="#DejaVuSans-53"/>
      </g>
     </g>
    </g>
    <g id="ytick_3">
     <g id="line2d_10">
      <g>
       <use style="stroke:#000000;stroke-width:0.8;" x="50.14375" xlink:href="#m8334b358eb" y="170.000341"/>
      </g>
     </g>
     <g id="text_10">
      <!-- 5.0 -->
      <g transform="translate(27.240625 173.79956)scale(0.1 -0.1)">
       <use xlink:href="#DejaVuSans-53"/>
       <use x="63.623047" xlink:href="#DejaVuSans-46"/>
       <use x="95.410156" xlink:href="#DejaVuSans-48"/>
      </g>
     </g>
    </g>
    <g id="ytick_4">
     <g id="line2d_11">
      <g>
       <use style="stroke:#000000;stroke-width:0.8;" x="50.14375" xlink:href="#m8334b358eb" y="142.680512"/>
      </g>
     </g>
     <g id="text_11">
      <!-- 7.5 -->
      <g transform="translate(27.240625 146.479731)scale(0.1 -0.1)">
       <use xlink:href="#DejaVuSans-55"/>
       <use x="63.623047" xlink:href="#DejaVuSans-46"/>
       <use x="95.410156" xlink:href="#DejaVuSans-53"/>
      </g>
     </g>
    </g>
    <g id="ytick_5">
     <g id="line2d_12">
      <g>
       <use style="stroke:#000000;stroke-width:0.8;" x="50.14375" xlink:href="#m8334b358eb" y="115.360682"/>
      </g>
     </g>
     <g id="text_12">
      <!-- 10.0 -->
      <g transform="translate(20.878125 119.159901)scale(0.1 -0.1)">
       <use xlink:href="#DejaVuSans-49"/>
       <use x="63.623047" xlink:href="#DejaVuSans-48"/>
       <use x="127.246094" xlink:href="#DejaVuSans-46"/>
       <use x="159.033203" xlink:href="#DejaVuSans-48"/>
      </g>
     </g>
    </g>
    <g id="ytick_6">
     <g id="line2d_13">
      <g>
       <use style="stroke:#000000;stroke-width:0.8;" x="50.14375" xlink:href="#m8334b358eb" y="88.040853"/>
      </g>
     </g>
     <g id="text_13">
      <!-- 12.5 -->
      <g transform="translate(20.878125 91.840072)scale(0.1 -0.1)">
       <use xlink:href="#DejaVuSans-49"/>
       <use x="63.623047" xlink:href="#DejaVuSans-50"/>
       <use x="127.246094" xlink:href="#DejaVuSans-46"/>
       <use x="159.033203" xlink:href="#DejaVuSans-53"/>
      </g>
     </g>
    </g>
    <g id="ytick_7">
     <g id="line2d_14">
      <g>
       <use style="stroke:#000000;stroke-width:0.8;" x="50.14375" xlink:href="#m8334b358eb" y="60.721024"/>
      </g>
     </g>
     <g id="text_14">
      <!-- 15.0 -->
      <g transform="translate(20.878125 64.520242)scale(0.1 -0.1)">
       <use xlink:href="#DejaVuSans-49"/>
       <use x="63.623047" xlink:href="#DejaVuSans-53"/>
       <use x="127.246094" xlink:href="#DejaVuSans-46"/>
       <use x="159.033203" xlink:href="#DejaVuSans-48"/>
      </g>
     </g>
    </g>
    <g id="ytick_8">
     <g id="line2d_15">
      <g>
       <use style="stroke:#000000;stroke-width:0.8;" x="50.14375" xlink:href="#m8334b358eb" y="33.401194"/>
      </g>
     </g>
     <g id="text_15">
      <!-- 17.5 -->
      <g transform="translate(20.878125 37.200413)scale(0.1 -0.1)">
       <use xlink:href="#DejaVuSans-49"/>
       <use x="63.623047" xlink:href="#DejaVuSans-55"/>
       <use x="127.246094" xlink:href="#DejaVuSans-46"/>
       <use x="159.033203" xlink:href="#DejaVuSans-53"/>
      </g>
     </g>
    </g>
    <g id="text_16">
     <!-- Density -->
     <g transform="translate(14.798438 134.928594)rotate(-90)scale(0.1 -0.1)">
      <defs>
       <path d="M 19.671875 64.796875 
L 19.671875 8.109375 
L 31.59375 8.109375 
Q 46.6875 8.109375 53.6875 14.9375 
Q 60.6875 21.78125 60.6875 36.53125 
Q 60.6875 51.171875 53.6875 57.984375 
Q 46.6875 64.796875 31.59375 64.796875 
z
M 9.8125 72.90625 
L 30.078125 72.90625 
Q 51.265625 72.90625 61.171875 64.09375 
Q 71.09375 55.28125 71.09375 36.53125 
Q 71.09375 17.671875 61.125 8.828125 
Q 51.171875 0 30.078125 0 
L 9.8125 0 
z
" id="DejaVuSans-68"/>
       <path d="M 56.203125 29.59375 
L 56.203125 25.203125 
L 14.890625 25.203125 
Q 15.484375 15.921875 20.484375 11.0625 
Q 25.484375 6.203125 34.421875 6.203125 
Q 39.59375 6.203125 44.453125 7.46875 
Q 49.3125 8.734375 54.109375 11.28125 
L 54.109375 2.78125 
Q 49.265625 0.734375 44.1875 -0.34375 
Q 39.109375 -1.421875 33.890625 -1.421875 
Q 20.796875 -1.421875 13.15625 6.1875 
Q 5.515625 13.8125 5.515625 26.8125 
Q 5.515625 40.234375 12.765625 48.109375 
Q 20.015625 56 32.328125 56 
Q 43.359375 56 49.78125 48.890625 
Q 56.203125 41.796875 56.203125 29.59375 
z
M 47.21875 32.234375 
Q 47.125 39.59375 43.09375 43.984375 
Q 39.0625 48.390625 32.421875 48.390625 
Q 24.90625 48.390625 20.390625 44.140625 
Q 15.875 39.890625 15.1875 32.171875 
z
" id="DejaVuSans-101"/>
       <path d="M 54.890625 33.015625 
L 54.890625 0 
L 45.90625 0 
L 45.90625 32.71875 
Q 45.90625 40.484375 42.875 44.328125 
Q 39.84375 48.1875 33.796875 48.1875 
Q 26.515625 48.1875 22.3125 43.546875 
Q 18.109375 38.921875 18.109375 30.90625 
L 18.109375 0 
L 9.078125 0 
L 9.078125 54.6875 
L 18.109375 54.6875 
L 18.109375 46.1875 
Q 21.34375 51.125 25.703125 53.5625 
Q 30.078125 56 35.796875 56 
Q 45.21875 56 50.046875 50.171875 
Q 54.890625 44.34375 54.890625 33.015625 
z
" id="DejaVuSans-110"/>
       <path d="M 44.28125 53.078125 
L 44.28125 44.578125 
Q 40.484375 46.53125 36.375 47.5 
Q 32.28125 48.484375 27.875 48.484375 
Q 21.1875 48.484375 17.84375 46.4375 
Q 14.5 44.390625 14.5 40.28125 
Q 14.5 37.15625 16.890625 35.375 
Q 19.28125 33.59375 26.515625 31.984375 
L 29.59375 31.296875 
Q 39.15625 29.25 43.1875 25.515625 
Q 47.21875 21.78125 47.21875 15.09375 
Q 47.21875 7.46875 41.1875 3.015625 
Q 35.15625 -1.421875 24.609375 -1.421875 
Q 20.21875 -1.421875 15.453125 -0.5625 
Q 10.6875 0.296875 5.421875 2 
L 5.421875 11.28125 
Q 10.40625 8.6875 15.234375 7.390625 
Q 20.0625 6.109375 24.8125 6.109375 
Q 31.15625 6.109375 34.5625 8.28125 
Q 37.984375 10.453125 37.984375 14.40625 
Q 37.984375 18.0625 35.515625 20.015625 
Q 33.0625 21.96875 24.703125 23.78125 
L 21.578125 24.515625 
Q 13.234375 26.265625 9.515625 29.90625 
Q 5.8125 33.546875 5.8125 39.890625 
Q 5.8125 47.609375 11.28125 51.796875 
Q 16.75 56 26.8125 56 
Q 31.78125 56 36.171875 55.265625 
Q 40.578125 54.546875 44.28125 53.078125 
z
" id="DejaVuSans-115"/>
       <path d="M 9.421875 54.6875 
L 18.40625 54.6875 
L 18.40625 0 
L 9.421875 0 
z
M 9.421875 75.984375 
L 18.40625 75.984375 
L 18.40625 64.59375 
L 9.421875 64.59375 
z
" id="DejaVuSans-105"/>
       <path d="M 18.3125 70.21875 
L 18.3125 54.6875 
L 36.8125 54.6875 
L 36.8125 47.703125 
L 18.3125 47.703125 
L 18.3125 18.015625 
Q 18.3125 11.328125 20.140625 9.421875 
Q 21.96875 7.515625 27.59375 7.515625 
L 36.8125 7.515625 
L 36.8125 0 
L 27.59375 0 
Q 17.1875 0 13.234375 3.875 
Q 9.28125 7.765625 9.28125 18.015625 
L 9.28125 47.703125 
L 2.6875 47.703125 
L 2.6875 54.6875 
L 9.28125 54.6875 
L 9.28125 70.21875 
z
" id="DejaVuSans-116"/>
       <path d="M 32.171875 -5.078125 
Q 28.375 -14.84375 24.75 -17.8125 
Q 21.140625 -20.796875 15.09375 -20.796875 
L 7.90625 -20.796875 
L 7.90625 -13.28125 
L 13.1875 -13.28125 
Q 16.890625 -13.28125 18.9375 -11.515625 
Q 21 -9.765625 23.484375 -3.21875 
L 25.09375 0.875 
L 2.984375 54.6875 
L 12.5 54.6875 
L 29.59375 11.921875 
L 46.6875 54.6875 
L 56.203125 54.6875 
z
" id="DejaVuSans-121"/>
      </defs>
      <use xlink:href="#DejaVuSans-68"/>
      <use x="77.001953" xlink:href="#DejaVuSans-101"/>
      <use x="138.525391" xlink:href="#DejaVuSans-110"/>
      <use x="201.904297" xlink:href="#DejaVuSans-115"/>
      <use x="254.003906" xlink:href="#DejaVuSans-105"/>
      <use x="281.787109" xlink:href="#DejaVuSans-116"/>
      <use x="320.996094" xlink:href="#DejaVuSans-121"/>
     </g>
    </g>
   </g>
   <g id="patch_3">
    <path d="M 50.14375 224.64 
L 50.14375 7.2 
" style="fill:none;stroke:#000000;stroke-linecap:square;stroke-linejoin:miter;stroke-width:0.8;"/>
   </g>
   <g id="patch_4">
    <path d="M 384.94375 224.64 
L 384.94375 7.2 
" style="fill:none;stroke:#000000;stroke-linecap:square;stroke-linejoin:miter;stroke-width:0.8;"/>
   </g>
   <g id="patch_5">
    <path d="M 50.14375 224.64 
L 384.94375 224.64 
" style="fill:none;stroke:#000000;stroke-linecap:square;stroke-linejoin:miter;stroke-width:0.8;"/>
   </g>
   <g id="patch_6">
    <path d="M 50.14375 7.2 
L 384.94375 7.2 
" style="fill:none;stroke:#000000;stroke-linecap:square;stroke-linejoin:miter;stroke-width:0.8;"/>
   </g>
   <g id="legend_1">
    <g id="patch_7">
     <path d="M 314.253125 44.55625 
L 377.94375 44.55625 
Q 379.94375 44.55625 379.94375 42.55625 
L 379.94375 14.2 
Q 379.94375 12.2 377.94375 12.2 
L 314.253125 12.2 
Q 312.253125 12.2 312.253125 14.2 
L 312.253125 42.55625 
Q 312.253125 44.55625 314.253125 44.55625 
z
" style="fill:#ffffff;opacity:0.8;stroke:#cccccc;stroke-linejoin:miter;"/>
    </g>
    <g id="patch_8">
     <path d="M 316.253125 23.798437 
L 336.253125 23.798437 
L 336.253125 16.798437 
L 316.253125 16.798437 
z
" style="fill:#509e90;fill-opacity:0.5;stroke:#509e90;stroke-linejoin:miter;"/>
    </g>
    <g id="text_17">
     <!-- table1 -->
     <g transform="translate(344.253125 23.798437)scale(0.1 -0.1)">
      <defs>
       <path d="M 34.28125 27.484375 
Q 23.390625 27.484375 19.1875 25 
Q 14.984375 22.515625 14.984375 16.5 
Q 14.984375 11.71875 18.140625 8.90625 
Q 21.296875 6.109375 26.703125 6.109375 
Q 34.1875 6.109375 38.703125 11.40625 
Q 43.21875 16.703125 43.21875 25.484375 
L 43.21875 27.484375 
z
M 52.203125 31.203125 
L 52.203125 0 
L 43.21875 0 
L 43.21875 8.296875 
Q 40.140625 3.328125 35.546875 0.953125 
Q 30.953125 -1.421875 24.3125 -1.421875 
Q 15.921875 -1.421875 10.953125 3.296875 
Q 6 8.015625 6 15.921875 
Q 6 25.140625 12.171875 29.828125 
Q 18.359375 34.515625 30.609375 34.515625 
L 43.21875 34.515625 
L 43.21875 35.40625 
Q 43.21875 41.609375 39.140625 45 
Q 35.0625 48.390625 27.6875 48.390625 
Q 23 48.390625 18.546875 47.265625 
Q 14.109375 46.140625 10.015625 43.890625 
L 10.015625 52.203125 
Q 14.9375 54.109375 19.578125 55.046875 
Q 24.21875 56 28.609375 56 
Q 40.484375 56 46.34375 49.84375 
Q 52.203125 43.703125 52.203125 31.203125 
z
" id="DejaVuSans-97"/>
       <path d="M 48.6875 27.296875 
Q 48.6875 37.203125 44.609375 42.84375 
Q 40.53125 48.484375 33.40625 48.484375 
Q 26.265625 48.484375 22.1875 42.84375 
Q 18.109375 37.203125 18.109375 27.296875 
Q 18.109375 17.390625 22.1875 11.75 
Q 26.265625 6.109375 33.40625 6.109375 
Q 40.53125 6.109375 44.609375 11.75 
Q 48.6875 17.390625 48.6875 27.296875 
z
M 18.109375 46.390625 
Q 20.953125 51.265625 25.265625 53.625 
Q 29.59375 56 35.59375 56 
Q 45.5625 56 51.78125 48.09375 
Q 58.015625 40.1875 58.015625 27.296875 
Q 58.015625 14.40625 51.78125 6.484375 
Q 45.5625 -1.421875 35.59375 -1.421875 
Q 29.59375 -1.421875 25.265625 0.953125 
Q 20.953125 3.328125 18.109375 8.203125 
L 18.109375 0 
L 9.078125 0 
L 9.078125 75.984375 
L 18.109375 75.984375 
z
" id="DejaVuSans-98"/>
       <path d="M 9.421875 75.984375 
L 18.40625 75.984375 
L 18.40625 0 
L 9.421875 0 
z
" id="DejaVuSans-108"/>
      </defs>
      <use xlink:href="#DejaVuSans-116"/>
      <use x="39.208984" xlink:href="#DejaVuSans-97"/>
      <use x="100.488281" xlink:href="#DejaVuSans-98"/>
      <use x="163.964844" xlink:href="#DejaVuSans-108"/>
      <use x="191.748047" xlink:href="#DejaVuSans-101"/>
      <use x="253.271484" xlink:href="#DejaVuSans-49"/>
     </g>
    </g>
    <g id="patch_9">
     <path d="M 316.253125 38.476562 
L 336.253125 38.476562 
L 336.253125 31.476562 
L 316.253125 31.476562 
z
" style="fill:#1d6c8a;fill-opacity:0.5;stroke:#1d6c8a;stroke-linejoin:miter;"/>
    </g>
    <g id="text_18">
     <!-- table2 -->
     <g transform="translate(344.253125 38.476562)scale(0.1 -0.1)">
      <use xlink:href="#DejaVuSans-116"/>
      <use x="39.208984" xlink:href="#DejaVuSans-97"/>
      <use x="100.488281" xlink:href="#DejaVuSans-98"/>
      <use x="163.964844" xlink:href="#DejaVuSans-108"/>
      <use x="191.748047" xlink:href="#DejaVuSans-101"/>
      <use x="253.271484" xlink:href="#DejaVuSans-50"/>
     </g>
    </g>
   </g>
  </g>
 </g>
 <defs>
  <clipPath id="p32a493e1b7">
   <rect height="217.44" width="334.8" x="50.14375" y="7.2"/>
  </clipPath>
 </defs>
</svg>
