<?xml version="1.0" encoding="utf-8" standalone="no"?>
<!DOCTYPE svg PUBLIC "-//W3C//DTD SVG 1.1//EN"
  "http://www.w3.org/Graphics/SVG/1.1/DTD/svg11.dtd">
<!-- Created with matplotlib (https://matplotlib.org/) -->
<svg height="248.518125pt" version="1.1" viewBox="0 0 382.603125 248.518125" width="382.603125pt" xmlns="http://www.w3.org/2000/svg" xmlns:xlink="http://www.w3.org/1999/xlink">
 <metadata>
  <rdf:RDF xmlns:cc="http://creativecommons.org/ns#" xmlns:dc="http://purl.org/dc/elements/1.1/" xmlns:rdf="http://www.w3.org/1999/02/22-rdf-syntax-ns#">
   <cc:Work>
    <dc:type rdf:resource="http://purl.org/dc/dcmitype/StillImage"/>
    <dc:date>2020-11-27T00:02:07.028465</dc:date>
    <dc:format>image/svg+xml</dc:format>
    <dc:creator>
     <cc:Agent>
      <dc:title>Matplotlib v3.3.3, https://matplotlib.org/</dc:title>
     </cc:Agent>
    </dc:creator>
   </cc:Work>
  </rdf:RDF>
 </metadata>
 <defs>
  <style type="text/css">*{stroke-linecap:butt;stroke-linejoin:round;}</style>
 </defs>
 <g id="figure_1">
  <g id="patch_1">
   <path d="M 0 248.518125 
L 382.603125 248.518125 
L 382.603125 0 
L 0 0 
z
" style="fill:none;"/>
  </g>
  <g id="axes_1">
   <g id="patch_2">
    <path d="M 40.603125 224.64 
L 375.403125 224.64 
L 375.403125 7.2 
L 40.603125 7.2 
z
" style="fill:#ffffff;"/>
   </g>
   <g id="PolyCollection_1">
    <defs>
     <path d="M 191.142868 -23.881396 
L 191.142868 -23.878125 
L 191.98592 -23.878125 
L 192.828972 -23.878125 
L 193.672024 -23.878125 
L 194.515076 -23.878125 
L 195.358127 -23.878125 
L 196.201179 -23.878125 
L 197.044231 -23.878125 
L 197.887283 -23.878125 
L 198.730334 -23.878125 
L 199.573386 -23.878125 
L 200.416438 -23.878125 
L 201.25949 -23.878125 
L 202.102542 -23.878125 
L 202.945593 -23.878125 
L 203.788645 -23.878125 
L 204.631697 -23.878125 
L 205.474749 -23.878125 
L 206.3178 -23.878125 
L 207.160852 -23.878125 
L 208.003904 -23.878125 
L 208.846956 -23.878125 
L 209.690008 -23.878125 
L 210.533059 -23.878125 
L 211.376111 -23.878125 
L 212.219163 -23.878125 
L 213.062215 -23.878125 
L 213.905266 -23.878125 
L 214.748318 -23.878125 
L 215.59137 -23.878125 
L 216.434422 -23.878125 
L 217.277474 -23.878125 
L 218.120525 -23.878125 
L 218.963577 -23.878125 
L 219.806629 -23.878125 
L 220.649681 -23.878125 
L 221.492733 -23.878125 
L 222.335784 -23.878125 
L 223.178836 -23.878125 
L 224.021888 -23.878125 
L 224.86494 -23.878125 
L 225.707991 -23.878125 
L 226.551043 -23.878125 
L 227.394095 -23.878125 
L 228.237147 -23.878125 
L 229.080199 -23.878125 
L 229.92325 -23.878125 
L 230.766302 -23.878125 
L 231.609354 -23.878125 
L 232.452406 -23.878125 
L 233.295457 -23.878125 
L 234.138509 -23.878125 
L 234.981561 -23.878125 
L 235.824613 -23.878125 
L 236.667665 -23.878125 
L 237.510716 -23.878125 
L 238.353768 -23.878125 
L 239.19682 -23.878125 
L 240.039872 -23.878125 
L 240.882923 -23.878125 
L 241.725975 -23.878125 
L 242.569027 -23.878125 
L 243.412079 -23.878125 
L 244.255131 -23.878125 
L 245.098182 -23.878125 
L 245.941234 -23.878125 
L 246.784286 -23.878125 
L 247.627338 -23.878125 
L 248.470389 -23.878125 
L 249.313441 -23.878125 
L 250.156493 -23.878125 
L 250.999545 -23.878125 
L 251.842597 -23.878125 
L 252.685648 -23.878125 
L 253.5287 -23.878125 
L 254.371752 -23.878125 
L 255.214804 -23.878125 
L 256.057855 -23.878125 
L 256.900907 -23.878125 
L 257.743959 -23.878125 
L 258.587011 -23.878125 
L 259.430063 -23.878125 
L 260.273114 -23.878125 
L 261.116166 -23.878125 
L 261.959218 -23.878125 
L 262.80227 -23.878125 
L 263.645321 -23.878125 
L 264.488373 -23.878125 
L 265.331425 -23.878125 
L 266.174477 -23.878125 
L 267.017529 -23.878125 
L 267.86058 -23.878125 
L 268.703632 -23.878125 
L 269.546684 -23.878125 
L 270.389736 -23.878125 
L 271.232787 -23.878125 
L 272.075839 -23.878125 
L 272.918891 -23.878125 
L 273.761943 -23.878125 
L 274.604995 -23.878125 
L 275.448046 -23.878125 
L 276.291098 -23.878125 
L 277.13415 -23.878125 
L 277.977202 -23.878125 
L 278.820253 -23.878125 
L 279.663305 -23.878125 
L 280.506357 -23.878125 
L 281.349409 -23.878125 
L 282.192461 -23.878125 
L 283.035512 -23.878125 
L 283.878564 -23.878125 
L 284.721616 -23.878125 
L 285.564668 -23.878125 
L 286.407719 -23.878125 
L 287.250771 -23.878125 
L 288.093823 -23.878125 
L 288.936875 -23.878125 
L 289.779927 -23.878125 
L 290.622978 -23.878125 
L 291.46603 -23.878125 
L 292.309082 -23.878125 
L 293.152134 -23.878125 
L 293.995186 -23.878125 
L 294.838237 -23.878125 
L 295.681289 -23.878125 
L 296.524341 -23.878125 
L 297.367393 -23.878125 
L 298.210444 -23.878125 
L 299.053496 -23.878125 
L 299.896548 -23.878125 
L 300.7396 -23.878125 
L 301.582652 -23.878125 
L 302.425703 -23.878125 
L 303.268755 -23.878125 
L 304.111807 -23.878125 
L 304.954859 -23.878125 
L 305.79791 -23.878125 
L 306.640962 -23.878125 
L 307.484014 -23.878125 
L 308.327066 -23.878125 
L 309.170118 -23.878125 
L 310.013169 -23.878125 
L 310.856221 -23.878125 
L 311.699273 -23.878125 
L 312.542325 -23.878125 
L 313.385376 -23.878125 
L 314.228428 -23.878125 
L 315.07148 -23.878125 
L 315.914532 -23.878125 
L 316.757584 -23.878125 
L 317.600635 -23.878125 
L 318.443687 -23.878125 
L 319.286739 -23.878125 
L 320.129791 -23.878125 
L 320.972842 -23.878125 
L 321.815894 -23.878125 
L 322.658946 -23.878125 
L 323.501998 -23.878125 
L 324.34505 -23.878125 
L 325.188101 -23.878125 
L 326.031153 -23.878125 
L 326.874205 -23.878125 
L 327.717257 -23.878125 
L 328.560308 -23.878125 
L 329.40336 -23.878125 
L 330.246412 -23.878125 
L 331.089464 -23.878125 
L 331.932516 -23.878125 
L 332.775567 -23.878125 
L 333.618619 -23.878125 
L 334.461671 -23.878125 
L 335.304723 -23.878125 
L 336.147774 -23.878125 
L 336.990826 -23.878125 
L 337.833878 -23.878125 
L 338.67693 -23.878125 
L 339.519982 -23.878125 
L 340.363033 -23.878125 
L 341.206085 -23.878125 
L 342.049137 -23.878125 
L 342.892189 -23.878125 
L 343.73524 -23.878125 
L 344.578292 -23.878125 
L 345.421344 -23.878125 
L 346.264396 -23.878125 
L 347.107448 -23.878125 
L 347.950499 -23.878125 
L 348.793551 -23.878125 
L 349.636603 -23.878125 
L 350.479655 -23.878125 
L 351.322706 -23.878125 
L 352.165758 -23.878125 
L 353.00881 -23.878125 
L 353.851862 -23.878125 
L 354.694914 -23.878125 
L 355.537965 -23.878125 
L 356.381017 -23.878125 
L 357.224069 -23.878125 
L 358.067121 -23.878125 
L 358.910172 -23.878125 
L 358.910172 -23.890903 
L 358.910172 -23.890903 
L 358.067121 -23.9027 
L 357.224069 -23.923687 
L 356.381017 -23.959615 
L 355.537965 -24.01886 
L 354.694914 -24.113066 
L 353.851862 -24.257694 
L 353.00881 -24.472393 
L 352.165758 -24.781119 
L 351.322706 -25.211974 
L 350.479655 -25.79681 
L 349.636603 -26.570646 
L 348.793551 -27.570979 
L 347.950499 -28.836971 
L 347.107448 -30.408454 
L 346.264396 -32.324632 
L 345.421344 -34.622404 
L 344.578292 -37.334348 
L 343.73524 -40.486601 
L 342.892189 -44.097058 
L 342.049137 -48.174373 
L 341.206085 -52.718165 
L 340.363033 -57.720553 
L 339.519982 -63.1688 
L 338.67693 -69.048452 
L 337.833878 -75.346153 
L 336.990826 -82.051249 
L 336.147774 -89.155521 
L 335.304723 -96.650751 
L 334.461671 -104.524364 
L 333.618619 -112.753892 
L 332.775567 -121.301383 
L 331.932516 -130.109067 
L 331.089464 -139.097436 
L 330.246412 -148.166538 
L 329.40336 -157.200614 
L 328.560308 -166.075507 
L 327.717257 -174.667568 
L 326.874205 -182.862334 
L 326.031153 -190.561193 
L 325.188101 -197.684772 
L 324.34505 -204.172723 
L 323.501998 -209.980818 
L 322.658946 -215.077223 
L 321.815894 -219.440159 
L 320.972842 -223.058564 
L 320.129791 -225.936039 
L 319.286739 -228.096745 
L 318.443687 -229.590721 
L 317.600635 -230.495854 
L 316.757584 -230.914445 
L 315.914532 -230.963839 
L 315.07148 -230.762195 
L 314.228428 -230.411788 
L 313.385376 -229.982962 
L 312.542325 -229.501945 
L 311.699273 -228.945383 
L 310.856221 -228.243575 
L 310.013169 -227.292981 
L 309.170118 -225.976679 
L 308.327066 -224.189301 
L 307.484014 -221.861284 
L 306.640962 -218.97674 
L 305.79791 -215.58041 
L 304.954859 -211.771809 
L 304.111807 -207.68819 
L 303.268755 -203.480879 
L 302.425703 -199.291086 
L 301.582652 -195.230768 
L 300.7396 -191.37197 
L 299.896548 -187.7452 
L 299.053496 -184.34493 
L 298.210444 -181.138998 
L 297.367393 -178.078757 
L 296.524341 -175.107811 
L 295.681289 -172.168488 
L 294.838237 -169.206244 
L 293.995186 -166.172649 
L 293.152134 -163.027663 
L 292.309082 -159.741663 
L 291.46603 -156.297473 
L 290.622978 -152.692415 
L 289.779927 -148.940118 
L 288.936875 -145.071513 
L 288.093823 -141.134062 
L 287.250771 -137.18824 
L 286.407719 -133.300668 
L 285.564668 -129.5343 
L 284.721616 -125.937299 
L 283.878564 -122.533307 
L 283.035512 -119.316089 
L 282.192461 -116.250736 
L 281.349409 -113.281893 
L 280.506357 -110.347329 
L 279.663305 -107.393437 
L 278.820253 -104.388549 
L 277.977202 -101.330529 
L 277.13415 -98.246829 
L 276.291098 -95.187349 
L 275.448046 -92.212337 
L 274.604995 -89.378693 
L 273.761943 -86.728054 
L 272.918891 -84.279179 
L 272.075839 -82.025765 
L 271.232787 -79.939335 
L 270.389736 -77.975729 
L 269.546684 -76.08321 
L 268.703632 -74.210265 
L 267.86058 -72.31182 
L 267.017529 -70.353354 
L 266.174477 -68.313119 
L 265.331425 -66.183025 
L 264.488373 -63.968663 
L 263.645321 -61.688645 
L 262.80227 -59.373074 
L 261.959218 -57.060865 
L 261.116166 -54.795849 
L 260.273114 -52.622036 
L 259.430063 -50.578822 
L 258.587011 -48.697079 
L 257.743959 -46.996853 
L 256.900907 -45.486901 
L 256.057855 -44.165728 
L 255.214804 -43.023471 
L 254.371752 -42.043885 
L 253.5287 -41.206007 
L 252.685648 -40.485444 
L 251.842597 -39.855544 
L 250.999545 -39.28883 
L 250.156493 -38.758909 
L 249.313441 -38.242743 
L 248.470389 -37.722868 
L 247.627338 -37.188945 
L 246.784286 -36.638086 
L 245.941234 -36.07369 
L 245.098182 -35.502973 
L 244.255131 -34.933803 
L 243.412079 -34.37174 
L 242.569027 -33.818194 
L 241.725975 -33.27027 
L 240.882923 -32.722385 
L 240.039872 -32.169142 
L 239.19682 -31.608532 
L 238.353768 -31.044398 
L 237.510716 -30.48732 
L 236.667665 -29.953513 
L 235.824613 -29.461941 
L 234.981561 -29.030362 
L 234.138509 -28.671322 
L 233.295457 -28.38913 
L 232.452406 -28.178579 
L 231.609354 -28.025709 
L 230.766302 -27.910356 
L 229.92325 -27.80983 
L 229.080199 -27.702817 
L 228.237147 -27.572639 
L 227.394095 -27.40929 
L 226.551043 -27.21001 
L 225.707991 -26.978566 
L 224.86494 -26.723629 
L 224.021888 -26.456757 
L 223.178836 -26.190402 
L 222.335784 -25.93624 
L 221.492733 -25.703951 
L 220.649681 -25.500443 
L 219.806629 -25.329481 
L 218.963577 -25.191654 
L 218.120525 -25.084651 
L 217.277474 -25.00382 
L 216.434422 -24.942984 
L 215.59137 -24.895416 
L 214.748318 -24.854865 
L 213.905266 -24.816449 
L 213.062215 -24.777245 
L 212.219163 -24.736444 
L 211.376111 -24.695038 
L 210.533059 -24.655098 
L 209.690008 -24.618833 
L 208.846956 -24.587674 
L 208.003904 -24.561633 
L 207.160852 -24.539098 
L 206.3178 -24.51713 
L 205.474749 -24.492158 
L 204.631697 -24.460874 
L 203.788645 -24.421057 
L 202.945593 -24.372123 
L 202.102542 -24.315252 
L 201.25949 -24.253096 
L 200.416438 -24.189195 
L 199.573386 -24.127252 
L 198.730334 -24.07049 
L 197.887283 -24.021198 
L 197.044231 -23.980549 
L 196.201179 -23.948662 
L 195.358127 -23.924837 
L 194.515076 -23.90786 
L 193.672024 -23.896314 
L 192.828972 -23.888814 
L 191.98592 -23.884159 
L 191.142868 -23.881396 
z
" id="m02872bb264" style="stroke:#1d6c8a;"/>
    </defs>
    <g clip-path="url(#pae60b3890b)">
     <use style="fill:#1d6c8a;fill-opacity:0.5;stroke:#1d6c8a;" x="0" xlink:href="#m02872bb264" y="248.518125"/>
    </g>
   </g>
   <g id="PolyCollection_2">
    <defs>
     <path d="M 55.821307 -23.880058 
L 55.821307 -23.878125 
L 57.350772 -23.878125 
L 58.880238 -23.878125 
L 60.409703 -23.878125 
L 61.939169 -23.878125 
L 63.468634 -23.878125 
L 64.9981 -23.878125 
L 66.527565 -23.878125 
L 68.057031 -23.878125 
L 69.586496 -23.878125 
L 71.115962 -23.878125 
L 72.645427 -23.878125 
L 74.174893 -23.878125 
L 75.704358 -23.878125 
L 77.233824 -23.878125 
L 78.763289 -23.878125 
L 80.292755 -23.878125 
L 81.82222 -23.878125 
L 83.351686 -23.878125 
L 84.881151 -23.878125 
L 86.410617 -23.878125 
L 87.940083 -23.878125 
L 89.469548 -23.878125 
L 90.999014 -23.878125 
L 92.528479 -23.878125 
L 94.057945 -23.878125 
L 95.58741 -23.878125 
L 97.116876 -23.878125 
L 98.646341 -23.878125 
L 100.175807 -23.878125 
L 101.705272 -23.878125 
L 103.234738 -23.878125 
L 104.764203 -23.878125 
L 106.293669 -23.878125 
L 107.823134 -23.878125 
L 109.3526 -23.878125 
L 110.882065 -23.878125 
L 112.411531 -23.878125 
L 113.940996 -23.878125 
L 115.470462 -23.878125 
L 116.999927 -23.878125 
L 118.529393 -23.878125 
L 120.058858 -23.878125 
L 121.588324 -23.878125 
L 123.117789 -23.878125 
L 124.647255 -23.878125 
L 126.17672 -23.878125 
L 127.706186 -23.878125 
L 129.235651 -23.878125 
L 130.765117 -23.878125 
L 132.294582 -23.878125 
L 133.824048 -23.878125 
L 135.353513 -23.878125 
L 136.882979 -23.878125 
L 138.412444 -23.878125 
L 139.94191 -23.878125 
L 141.471375 -23.878125 
L 143.000841 -23.878125 
L 144.530306 -23.878125 
L 146.059772 -23.878125 
L 147.589237 -23.878125 
L 149.118703 -23.878125 
L 150.648168 -23.878125 
L 152.177634 -23.878125 
L 153.707099 -23.878125 
L 155.236565 -23.878125 
L 156.76603 -23.878125 
L 158.295496 -23.878125 
L 159.824961 -23.878125 
L 161.354427 -23.878125 
L 162.883892 -23.878125 
L 164.413358 -23.878125 
L 165.942823 -23.878125 
L 167.472289 -23.878125 
L 169.001755 -23.878125 
L 170.53122 -23.878125 
L 172.060686 -23.878125 
L 173.590151 -23.878125 
L 175.119617 -23.878125 
L 176.649082 -23.878125 
L 178.178548 -23.878125 
L 179.708013 -23.878125 
L 181.237479 -23.878125 
L 182.766944 -23.878125 
L 184.29641 -23.878125 
L 185.825875 -23.878125 
L 187.355341 -23.878125 
L 188.884806 -23.878125 
L 190.414272 -23.878125 
L 191.943737 -23.878125 
L 193.473203 -23.878125 
L 195.002668 -23.878125 
L 196.532134 -23.878125 
L 198.061599 -23.878125 
L 199.591065 -23.878125 
L 201.12053 -23.878125 
L 202.649996 -23.878125 
L 204.179461 -23.878125 
L 205.708927 -23.878125 
L 207.238392 -23.878125 
L 208.767858 -23.878125 
L 210.297323 -23.878125 
L 211.826789 -23.878125 
L 213.356254 -23.878125 
L 214.88572 -23.878125 
L 216.415185 -23.878125 
L 217.944651 -23.878125 
L 219.474116 -23.878125 
L 221.003582 -23.878125 
L 222.533047 -23.878125 
L 224.062513 -23.878125 
L 225.591978 -23.878125 
L 227.121444 -23.878125 
L 228.650909 -23.878125 
L 230.180375 -23.878125 
L 231.70984 -23.878125 
L 233.239306 -23.878125 
L 234.768771 -23.878125 
L 236.298237 -23.878125 
L 237.827702 -23.878125 
L 239.357168 -23.878125 
L 240.886633 -23.878125 
L 242.416099 -23.878125 
L 243.945564 -23.878125 
L 245.47503 -23.878125 
L 247.004495 -23.878125 
L 248.533961 -23.878125 
L 250.063427 -23.878125 
L 251.592892 -23.878125 
L 253.122358 -23.878125 
L 254.651823 -23.878125 
L 256.181289 -23.878125 
L 257.710754 -23.878125 
L 259.24022 -23.878125 
L 260.769685 -23.878125 
L 262.299151 -23.878125 
L 263.828616 -23.878125 
L 265.358082 -23.878125 
L 266.887547 -23.878125 
L 268.417013 -23.878125 
L 269.946478 -23.878125 
L 271.475944 -23.878125 
L 273.005409 -23.878125 
L 274.534875 -23.878125 
L 276.06434 -23.878125 
L 277.593806 -23.878125 
L 279.123271 -23.878125 
L 280.652737 -23.878125 
L 282.182202 -23.878125 
L 283.711668 -23.878125 
L 285.241133 -23.878125 
L 286.770599 -23.878125 
L 288.300064 -23.878125 
L 289.82953 -23.878125 
L 291.358995 -23.878125 
L 292.888461 -23.878125 
L 294.417926 -23.878125 
L 295.947392 -23.878125 
L 297.476857 -23.878125 
L 299.006323 -23.878125 
L 300.535788 -23.878125 
L 302.065254 -23.878125 
L 303.594719 -23.878125 
L 305.124185 -23.878125 
L 306.65365 -23.878125 
L 308.183116 -23.878125 
L 309.712581 -23.878125 
L 311.242047 -23.878125 
L 312.771512 -23.878125 
L 314.300978 -23.878125 
L 315.830443 -23.878125 
L 317.359909 -23.878125 
L 318.889374 -23.878125 
L 320.41884 -23.878125 
L 321.948305 -23.878125 
L 323.477771 -23.878125 
L 325.007236 -23.878125 
L 326.536702 -23.878125 
L 328.066167 -23.878125 
L 329.595633 -23.878125 
L 331.125099 -23.878125 
L 332.654564 -23.878125 
L 334.18403 -23.878125 
L 335.713495 -23.878125 
L 337.242961 -23.878125 
L 338.772426 -23.878125 
L 340.301892 -23.878125 
L 341.831357 -23.878125 
L 343.360823 -23.878125 
L 344.890288 -23.878125 
L 346.419754 -23.878125 
L 347.949219 -23.878125 
L 349.478685 -23.878125 
L 351.00815 -23.878125 
L 352.537616 -23.878125 
L 354.067081 -23.878125 
L 355.596547 -23.878125 
L 357.126012 -23.878125 
L 358.655478 -23.878125 
L 360.184943 -23.878125 
L 360.184943 -23.880063 
L 360.184943 -23.880063 
L 358.655478 -23.882137 
L 357.126012 -23.885925 
L 355.596547 -23.892374 
L 354.067081 -23.90261 
L 352.537616 -23.917768 
L 351.00815 -23.938772 
L 349.478685 -23.966176 
L 347.949219 -24.000279 
L 346.419754 -24.041683 
L 344.890288 -24.09234 
L 343.360823 -24.156858 
L 341.831357 -24.243575 
L 340.301892 -24.364835 
L 338.772426 -24.536099 
L 337.242961 -24.774072 
L 335.713495 -25.094637 
L 334.18403 -25.511689 
L 332.654564 -26.037744 
L 331.125099 -26.686357 
L 329.595633 -27.475331 
L 328.066167 -28.428921 
L 326.536702 -29.577347 
L 325.007236 -30.952952 
L 323.477771 -32.583938 
L 321.948305 -34.488032 
L 320.41884 -36.668888 
L 318.889374 -39.117206 
L 317.359909 -41.816785 
L 315.830443 -44.753735 
L 314.300978 -47.925824 
L 312.771512 -51.348846 
L 311.242047 -55.057873 
L 309.712581 -59.102704 
L 308.183116 -63.538105 
L 306.65365 -68.410339 
L 305.124185 -73.742112 
L 303.594719 -79.518783 
L 302.065254 -85.679386 
L 300.535788 -92.116194 
L 299.006323 -98.685234 
L 297.476857 -105.227144 
L 295.947392 -111.593718 
L 294.417926 -117.672305 
L 292.888461 -123.399984 
L 291.358995 -128.762612 
L 289.82953 -133.779475 
L 288.300064 -138.479689 
L 286.770599 -142.879327 
L 285.241133 -146.96732 
L 283.711668 -150.70421 
L 282.182202 -154.032625 
L 280.652737 -156.894216 
L 279.123271 -159.246289 
L 277.593806 -161.072747 
L 276.06434 -162.38705 
L 274.534875 -163.227793 
L 273.005409 -163.649004 
L 271.475944 -163.707598 
L 269.946478 -163.45066 
L 268.417013 -162.906209 
L 266.887547 -162.081522 
L 265.358082 -160.971533 
L 263.828616 -159.575337 
L 262.299151 -157.913556 
L 260.769685 -156.036718 
L 259.24022 -154.017562 
L 257.710754 -151.927623 
L 256.181289 -149.807058 
L 254.651823 -147.641677 
L 253.122358 -145.359784 
L 251.592892 -142.853712 
L 250.063427 -140.02009 
L 248.533961 -136.803475 
L 247.004495 -133.224762 
L 245.47503 -129.380973 
L 243.945564 -125.415075 
L 242.416099 -121.468086 
L 240.886633 -117.634017 
L 239.357168 -113.936832 
L 237.827702 -110.337986 
L 236.298237 -106.768863 
L 234.768771 -103.171636 
L 233.239306 -99.529795 
L 231.70984 -95.87607 
L 230.180375 -92.276755 
L 228.650909 -88.801856 
L 227.121444 -85.495577 
L 225.591978 -82.35987 
L 224.062513 -79.356856 
L 222.533047 -76.427429 
L 221.003582 -73.517074 
L 219.474116 -70.598167 
L 217.944651 -67.680833 
L 216.415185 -64.80986 
L 214.88572 -62.05062 
L 213.356254 -59.470217 
L 211.826789 -57.120508 
L 210.297323 -55.027758 
L 208.767858 -53.190655 
L 207.238392 -51.585535 
L 205.708927 -50.1757 
L 204.179461 -48.921029 
L 202.649996 -47.78479 
L 201.12053 -46.736218 
L 199.591065 -45.749533 
L 198.061599 -44.801649 
L 196.532134 -43.871148 
L 195.002668 -42.939941 
L 193.473203 -41.997018 
L 191.943737 -41.041967 
L 190.414272 -40.085579 
L 188.884806 -39.146134 
L 187.355341 -38.2423 
L 185.825875 -37.385555 
L 184.29641 -36.57563 
L 182.766944 -35.801225 
L 181.237479 -35.045831 
L 179.708013 -34.296124 
L 178.178548 -33.549282 
L 176.649082 -32.816209 
L 175.119617 -32.119545 
L 173.590151 -31.48753 
L 172.060686 -30.946146 
L 170.53122 -30.512158 
L 169.001755 -30.188844 
L 167.472289 -29.965024 
L 165.942823 -29.81704 
L 164.413358 -29.712793 
L 162.883892 -29.616813 
L 161.354427 -29.495408 
L 159.824961 -29.321117 
L 158.295496 -29.075917 
L 156.76603 -28.752893 
L 155.236565 -28.356353 
L 153.707099 -27.900577 
L 152.177634 -27.407484 
L 150.648168 -26.903571 
L 149.118703 -26.416453 
L 147.589237 -25.971377 
L 146.059772 -25.58811 
L 144.530306 -25.278584 
L 143.000841 -25.045678 
L 141.471375 -24.883369 
L 139.94191 -24.7783 
L 138.412444 -24.712556 
L 136.882979 -24.66717 
L 135.353513 -24.625629 
L 133.824048 -24.576595 
L 132.294582 -24.515236 
L 130.765117 -24.442921 
L 129.235651 -24.365512 
L 127.706186 -24.290825 
L 126.17672 -24.226031 
L 124.647255 -24.175665 
L 123.117789 -24.140721 
L 121.588324 -24.11894 
L 120.058858 -24.106074 
L 118.529393 -24.097598 
L 116.999927 -24.090246 
L 115.470462 -24.082806 
L 113.940996 -24.075938 
L 112.411531 -24.071175 
L 110.882065 -24.069615 
L 109.3526 -24.070923 
L 107.823134 -24.07308 
L 106.293669 -24.072989 
L 104.764203 -24.067606 
L 103.234738 -24.055087 
L 101.705272 -24.035442 
L 100.175807 -24.010481 
L 98.646341 -23.983152 
L 97.116876 -23.956607 
L 95.58741 -23.933395 
L 94.057945 -23.91505 
L 92.528479 -23.902111 
L 90.999014 -23.894465 
L 89.469548 -23.891794 
L 87.940083 -23.893929 
L 86.410617 -23.900999 
L 84.881151 -23.913306 
L 83.351686 -23.930972 
L 81.82222 -23.953471 
L 80.292755 -23.979235 
L 78.763289 -24.005533 
L 77.233824 -24.028779 
L 75.704358 -24.045261 
L 74.174893 -24.052082 
L 72.645427 -24.047984 
L 71.115962 -24.033726 
L 69.586496 -24.011849 
L 68.057031 -23.985941 
L 66.527565 -23.959676 
L 64.9981 -23.935995 
L 63.468634 -23.91665 
L 61.939169 -23.902186 
L 60.409703 -23.892223 
L 58.880238 -23.885875 
L 57.350772 -23.882121 
L 55.821307 -23.880058 
z
" id="macc719fb6a" style="stroke:#509e90;"/>
    </defs>
    <g clip-path="url(#pae60b3890b)">
     <use style="fill:#509e90;fill-opacity:0.5;stroke:#509e90;" x="0" xlink:href="#macc719fb6a" y="248.518125"/>
    </g>
   </g>
   <g id="matplotlib.axis_1">
    <g id="xtick_1">
     <g id="line2d_1">
      <defs>
       <path d="M 0 0 
L 0 3.5 
" id="m06b83d23ab" style="stroke:#000000;stroke-width:0.8;"/>
      </defs>
      <g>
       <use style="stroke:#000000;stroke-width:0.8;" x="79.705862" xlink:href="#m06b83d23ab" y="224.64"/>
      </g>
     </g>
     <g id="text_1">
      <!-- 0.65 -->
      <g transform="translate(68.57305 239.238437)scale(0.1 -0.1)">
       <defs>
        <path d="M 31.78125 66.40625 
Q 24.171875 66.40625 20.328125 58.90625 
Q 16.5 51.421875 16.5 36.375 
Q 16.5 21.390625 20.328125 13.890625 
Q 24.171875 6.390625 31.78125 6.390625 
Q 39.453125 6.390625 43.28125 13.890625 
Q 47.125 21.390625 47.125 36.375 
Q 47.125 51.421875 43.28125 58.90625 
Q 39.453125 66.40625 31.78125 66.40625 
z
M 31.78125 74.21875 
Q 44.046875 74.21875 50.515625 64.515625 
Q 56.984375 54.828125 56.984375 36.375 
Q 56.984375 17.96875 50.515625 8.265625 
Q 44.046875 -1.421875 31.78125 -1.421875 
Q 19.53125 -1.421875 13.0625 8.265625 
Q 6.59375 17.96875 6.59375 36.375 
Q 6.59375 54.828125 13.0625 64.515625 
Q 19.53125 74.21875 31.78125 74.21875 
z
" id="DejaVuSans-48"/>
        <path d="M 10.6875 12.40625 
L 21 12.40625 
L 21 0 
L 10.6875 0 
z
" id="DejaVuSans-46"/>
        <path d="M 33.015625 40.375 
Q 26.375 40.375 22.484375 35.828125 
Q 18.609375 31.296875 18.609375 23.390625 
Q 18.609375 15.53125 22.484375 10.953125 
Q 26.375 6.390625 33.015625 6.390625 
Q 39.65625 6.390625 43.53125 10.953125 
Q 47.40625 15.53125 47.40625 23.390625 
Q 47.40625 31.296875 43.53125 35.828125 
Q 39.65625 40.375 33.015625 40.375 
z
M 52.59375 71.296875 
L 52.59375 62.3125 
Q 48.875 64.0625 45.09375 64.984375 
Q 41.3125 65.921875 37.59375 65.921875 
Q 27.828125 65.921875 22.671875 59.328125 
Q 17.53125 52.734375 16.796875 39.40625 
Q 19.671875 43.65625 24.015625 45.921875 
Q 28.375 48.1875 33.59375 48.1875 
Q 44.578125 48.1875 50.953125 41.515625 
Q 57.328125 34.859375 57.328125 23.390625 
Q 57.328125 12.15625 50.6875 5.359375 
Q 44.046875 -1.421875 33.015625 -1.421875 
Q 20.359375 -1.421875 13.671875 8.265625 
Q 6.984375 17.96875 6.984375 36.375 
Q 6.984375 53.65625 15.1875 63.9375 
Q 23.390625 74.21875 37.203125 74.21875 
Q 40.921875 74.21875 44.703125 73.484375 
Q 48.484375 72.75 52.59375 71.296875 
z
" id="DejaVuSans-54"/>
        <path d="M 10.796875 72.90625 
L 49.515625 72.90625 
L 49.515625 64.59375 
L 19.828125 64.59375 
L 19.828125 46.734375 
Q 21.96875 47.46875 24.109375 47.828125 
Q 26.265625 48.1875 28.421875 48.1875 
Q 40.625 48.1875 47.75 41.5 
Q 54.890625 34.8125 54.890625 23.390625 
Q 54.890625 11.625 47.5625 5.09375 
Q 40.234375 -1.421875 26.90625 -1.421875 
Q 22.3125 -1.421875 17.546875 -0.640625 
Q 12.796875 0.140625 7.71875 1.703125 
L 7.71875 11.625 
Q 12.109375 9.234375 16.796875 8.0625 
Q 21.484375 6.890625 26.703125 6.890625 
Q 35.15625 6.890625 40.078125 11.328125 
Q 45.015625 15.765625 45.015625 23.390625 
Q 45.015625 31 40.078125 35.4375 
Q 35.15625 39.890625 26.703125 39.890625 
Q 22.75 39.890625 18.8125 39.015625 
Q 14.890625 38.140625 10.796875 36.28125 
z
" id="DejaVuSans-53"/>
       </defs>
       <use xlink:href="#DejaVuSans-48"/>
       <use x="63.623047" xlink:href="#DejaVuSans-46"/>
       <use x="95.410156" xlink:href="#DejaVuSans-54"/>
       <use x="159.033203" xlink:href="#DejaVuSans-53"/>
      </g>
     </g>
    </g>
    <g id="xtick_2">
     <g id="line2d_2">
      <g>
       <use style="stroke:#000000;stroke-width:0.8;" x="119.720415" xlink:href="#m06b83d23ab" y="224.64"/>
      </g>
     </g>
     <g id="text_2">
      <!-- 0.70 -->
      <g transform="translate(108.587602 239.238437)scale(0.1 -0.1)">
       <defs>
        <path d="M 8.203125 72.90625 
L 55.078125 72.90625 
L 55.078125 68.703125 
L 28.609375 0 
L 18.3125 0 
L 43.21875 64.59375 
L 8.203125 64.59375 
z
" id="DejaVuSans-55"/>
       </defs>
       <use xlink:href="#DejaVuSans-48"/>
       <use x="63.623047" xlink:href="#DejaVuSans-46"/>
       <use x="95.410156" xlink:href="#DejaVuSans-55"/>
       <use x="159.033203" xlink:href="#DejaVuSans-48"/>
      </g>
     </g>
    </g>
    <g id="xtick_3">
     <g id="line2d_3">
      <g>
       <use style="stroke:#000000;stroke-width:0.8;" x="159.734967" xlink:href="#m06b83d23ab" y="224.64"/>
      </g>
     </g>
     <g id="text_3">
      <!-- 0.75 -->
      <g transform="translate(148.602155 239.238437)scale(0.1 -0.1)">
       <use xlink:href="#DejaVuSans-48"/>
       <use x="63.623047" xlink:href="#DejaVuSans-46"/>
       <use x="95.410156" xlink:href="#DejaVuSans-55"/>
       <use x="159.033203" xlink:href="#DejaVuSans-53"/>
      </g>
     </g>
    </g>
    <g id="xtick_4">
     <g id="line2d_4">
      <g>
       <use style="stroke:#000000;stroke-width:0.8;" x="199.749519" xlink:href="#m06b83d23ab" y="224.64"/>
      </g>
     </g>
     <g id="text_4">
      <!-- 0.80 -->
      <g transform="translate(188.616707 239.238437)scale(0.1 -0.1)">
       <defs>
        <path d="M 31.78125 34.625 
Q 24.75 34.625 20.71875 30.859375 
Q 16.703125 27.09375 16.703125 20.515625 
Q 16.703125 13.921875 20.71875 10.15625 
Q 24.75 6.390625 31.78125 6.390625 
Q 38.8125 6.390625 42.859375 10.171875 
Q 46.921875 13.96875 46.921875 20.515625 
Q 46.921875 27.09375 42.890625 30.859375 
Q 38.875 34.625 31.78125 34.625 
z
M 21.921875 38.8125 
Q 15.578125 40.375 12.03125 44.71875 
Q 8.5 49.078125 8.5 55.328125 
Q 8.5 64.0625 14.71875 69.140625 
Q 20.953125 74.21875 31.78125 74.21875 
Q 42.671875 74.21875 48.875 69.140625 
Q 55.078125 64.0625 55.078125 55.328125 
Q 55.078125 49.078125 51.53125 44.71875 
Q 48 40.375 41.703125 38.8125 
Q 48.828125 37.15625 52.796875 32.3125 
Q 56.78125 27.484375 56.78125 20.515625 
Q 56.78125 9.90625 50.3125 4.234375 
Q 43.84375 -1.421875 31.78125 -1.421875 
Q 19.734375 -1.421875 13.25 4.234375 
Q 6.78125 9.90625 6.78125 20.515625 
Q 6.78125 27.484375 10.78125 32.3125 
Q 14.796875 37.15625 21.921875 38.8125 
z
M 18.3125 54.390625 
Q 18.3125 48.734375 21.84375 45.5625 
Q 25.390625 42.390625 31.78125 42.390625 
Q 38.140625 42.390625 41.71875 45.5625 
Q 45.3125 48.734375 45.3125 54.390625 
Q 45.3125 60.0625 41.71875 63.234375 
Q 38.140625 66.40625 31.78125 66.40625 
Q 25.390625 66.40625 21.84375 63.234375 
Q 18.3125 60.0625 18.3125 54.390625 
z
" id="DejaVuSans-56"/>
       </defs>
       <use xlink:href="#DejaVuSans-48"/>
       <use x="63.623047" xlink:href="#DejaVuSans-46"/>
       <use x="95.410156" xlink:href="#DejaVuSans-56"/>
       <use x="159.033203" xlink:href="#DejaVuSans-48"/>
      </g>
     </g>
    </g>
    <g id="xtick_5">
     <g id="line2d_5">
      <g>
       <use style="stroke:#000000;stroke-width:0.8;" x="239.764072" xlink:href="#m06b83d23ab" y="224.64"/>
      </g>
     </g>
     <g id="text_5">
      <!-- 0.85 -->
      <g transform="translate(228.631259 239.238437)scale(0.1 -0.1)">
       <use xlink:href="#DejaVuSans-48"/>
       <use x="63.623047" xlink:href="#DejaVuSans-46"/>
       <use x="95.410156" xlink:href="#DejaVuSans-56"/>
       <use x="159.033203" xlink:href="#DejaVuSans-53"/>
      </g>
     </g>
    </g>
    <g id="xtick_6">
     <g id="line2d_6">
      <g>
       <use style="stroke:#000000;stroke-width:0.8;" x="279.778624" xlink:href="#m06b83d23ab" y="224.64"/>
      </g>
     </g>
     <g id="text_6">
      <!-- 0.90 -->
      <g transform="translate(268.645812 239.238437)scale(0.1 -0.1)">
       <defs>
        <path d="M 10.984375 1.515625 
L 10.984375 10.5 
Q 14.703125 8.734375 18.5 7.8125 
Q 22.3125 6.890625 25.984375 6.890625 
Q 35.75 6.890625 40.890625 13.453125 
Q 46.046875 20.015625 46.78125 33.40625 
Q 43.953125 29.203125 39.59375 26.953125 
Q 35.25 24.703125 29.984375 24.703125 
Q 19.046875 24.703125 12.671875 31.3125 
Q 6.296875 37.9375 6.296875 49.421875 
Q 6.296875 60.640625 12.9375 67.421875 
Q 19.578125 74.21875 30.609375 74.21875 
Q 43.265625 74.21875 49.921875 64.515625 
Q 56.59375 54.828125 56.59375 36.375 
Q 56.59375 19.140625 48.40625 8.859375 
Q 40.234375 -1.421875 26.421875 -1.421875 
Q 22.703125 -1.421875 18.890625 -0.6875 
Q 15.09375 0.046875 10.984375 1.515625 
z
M 30.609375 32.421875 
Q 37.25 32.421875 41.125 36.953125 
Q 45.015625 41.5 45.015625 49.421875 
Q 45.015625 57.28125 41.125 61.84375 
Q 37.25 66.40625 30.609375 66.40625 
Q 23.96875 66.40625 20.09375 61.84375 
Q 16.21875 57.28125 16.21875 49.421875 
Q 16.21875 41.5 20.09375 36.953125 
Q 23.96875 32.421875 30.609375 32.421875 
z
" id="DejaVuSans-57"/>
       </defs>
       <use xlink:href="#DejaVuSans-48"/>
       <use x="63.623047" xlink:href="#DejaVuSans-46"/>
       <use x="95.410156" xlink:href="#DejaVuSans-57"/>
       <use x="159.033203" xlink:href="#DejaVuSans-48"/>
      </g>
     </g>
    </g>
    <g id="xtick_7">
     <g id="line2d_7">
      <g>
       <use style="stroke:#000000;stroke-width:0.8;" x="319.793177" xlink:href="#m06b83d23ab" y="224.64"/>
      </g>
     </g>
     <g id="text_7">
      <!-- 0.95 -->
      <g transform="translate(308.660364 239.238437)scale(0.1 -0.1)">
       <use xlink:href="#DejaVuSans-48"/>
       <use x="63.623047" xlink:href="#DejaVuSans-46"/>
       <use x="95.410156" xlink:href="#DejaVuSans-57"/>
       <use x="159.033203" xlink:href="#DejaVuSans-53"/>
      </g>
     </g>
    </g>
    <g id="xtick_8">
     <g id="line2d_8">
      <g>
       <use style="stroke:#000000;stroke-width:0.8;" x="359.807729" xlink:href="#m06b83d23ab" y="224.64"/>
      </g>
     </g>
     <g id="text_8">
      <!-- 1.00 -->
      <g transform="translate(348.674916 239.238437)scale(0.1 -0.1)">
       <defs>
        <path d="M 12.40625 8.296875 
L 28.515625 8.296875 
L 28.515625 63.921875 
L 10.984375 60.40625 
L 10.984375 69.390625 
L 28.421875 72.90625 
L 38.28125 72.90625 
L 38.28125 8.296875 
L 54.390625 8.296875 
L 54.390625 0 
L 12.40625 0 
z
" id="DejaVuSans-49"/>
       </defs>
       <use xlink:href="#DejaVuSans-49"/>
       <use x="63.623047" xlink:href="#DejaVuSans-46"/>
       <use x="95.410156" xlink:href="#DejaVuSans-48"/>
       <use x="159.033203" xlink:href="#DejaVuSans-48"/>
      </g>
     </g>
    </g>
   </g>
   <g id="matplotlib.axis_2">
    <g id="ytick_1">
     <g id="line2d_9">
      <defs>
       <path d="M 0 0 
L -3.5 0 
" id="m106dd14689" style="stroke:#000000;stroke-width:0.8;"/>
      </defs>
      <g>
       <use style="stroke:#000000;stroke-width:0.8;" x="40.603125" xlink:href="#m106dd14689" y="224.64"/>
      </g>
     </g>
     <g id="text_9">
      <!-- 0 -->
      <g transform="translate(27.240625 228.439219)scale(0.1 -0.1)">
       <use xlink:href="#DejaVuSans-48"/>
      </g>
     </g>
    </g>
    <g id="ytick_2">
     <g id="line2d_10">
      <g>
       <use style="stroke:#000000;stroke-width:0.8;" x="40.603125" xlink:href="#m106dd14689" y="198.241122"/>
      </g>
     </g>
     <g id="text_10">
      <!-- 2 -->
      <g transform="translate(27.240625 202.040341)scale(0.1 -0.1)">
       <defs>
        <path d="M 19.1875 8.296875 
L 53.609375 8.296875 
L 53.609375 0 
L 7.328125 0 
L 7.328125 8.296875 
Q 12.9375 14.109375 22.625 23.890625 
Q 32.328125 33.6875 34.8125 36.53125 
Q 39.546875 41.84375 41.421875 45.53125 
Q 43.3125 49.21875 43.3125 52.78125 
Q 43.3125 58.59375 39.234375 62.25 
Q 35.15625 65.921875 28.609375 65.921875 
Q 23.96875 65.921875 18.8125 64.3125 
Q 13.671875 62.703125 7.8125 59.421875 
L 7.8125 69.390625 
Q 13.765625 71.78125 18.9375 73 
Q 24.125 74.21875 28.421875 74.21875 
Q 39.75 74.21875 46.484375 68.546875 
Q 53.21875 62.890625 53.21875 53.421875 
Q 53.21875 48.921875 51.53125 44.890625 
Q 49.859375 40.875 45.40625 35.40625 
Q 44.1875 33.984375 37.640625 27.21875 
Q 31.109375 20.453125 19.1875 8.296875 
z
" id="DejaVuSans-50"/>
       </defs>
       <use xlink:href="#DejaVuSans-50"/>
      </g>
     </g>
    </g>
    <g id="ytick_3">
     <g id="line2d_11">
      <g>
       <use style="stroke:#000000;stroke-width:0.8;" x="40.603125" xlink:href="#m106dd14689" y="171.842245"/>
      </g>
     </g>
     <g id="text_11">
      <!-- 4 -->
      <g transform="translate(27.240625 175.641463)scale(0.1 -0.1)">
       <defs>
        <path d="M 37.796875 64.3125 
L 12.890625 25.390625 
L 37.796875 25.390625 
z
M 35.203125 72.90625 
L 47.609375 72.90625 
L 47.609375 25.390625 
L 58.015625 25.390625 
L 58.015625 17.1875 
L 47.609375 17.1875 
L 47.609375 0 
L 37.796875 0 
L 37.796875 17.1875 
L 4.890625 17.1875 
L 4.890625 26.703125 
z
" id="DejaVuSans-52"/>
       </defs>
       <use xlink:href="#DejaVuSans-52"/>
      </g>
     </g>
    </g>
    <g id="ytick_4">
     <g id="line2d_12">
      <g>
       <use style="stroke:#000000;stroke-width:0.8;" x="40.603125" xlink:href="#m106dd14689" y="145.443367"/>
      </g>
     </g>
     <g id="text_12">
      <!-- 6 -->
      <g transform="translate(27.240625 149.242586)scale(0.1 -0.1)">
       <use xlink:href="#DejaVuSans-54"/>
      </g>
     </g>
    </g>
    <g id="ytick_5">
     <g id="line2d_13">
      <g>
       <use style="stroke:#000000;stroke-width:0.8;" x="40.603125" xlink:href="#m106dd14689" y="119.044489"/>
      </g>
     </g>
     <g id="text_13">
      <!-- 8 -->
      <g transform="translate(27.240625 122.843708)scale(0.1 -0.1)">
       <use xlink:href="#DejaVuSans-56"/>
      </g>
     </g>
    </g>
    <g id="ytick_6">
     <g id="line2d_14">
      <g>
       <use style="stroke:#000000;stroke-width:0.8;" x="40.603125" xlink:href="#m106dd14689" y="92.645611"/>
      </g>
     </g>
     <g id="text_14">
      <!-- 10 -->
      <g transform="translate(20.878125 96.44483)scale(0.1 -0.1)">
       <use xlink:href="#DejaVuSans-49"/>
       <use x="63.623047" xlink:href="#DejaVuSans-48"/>
      </g>
     </g>
    </g>
    <g id="ytick_7">
     <g id="line2d_15">
      <g>
       <use style="stroke:#000000;stroke-width:0.8;" x="40.603125" xlink:href="#m106dd14689" y="66.246734"/>
      </g>
     </g>
     <g id="text_15">
      <!-- 12 -->
      <g transform="translate(20.878125 70.045952)scale(0.1 -0.1)">
       <use xlink:href="#DejaVuSans-49"/>
       <use x="63.623047" xlink:href="#DejaVuSans-50"/>
      </g>
     </g>
    </g>
    <g id="ytick_8">
     <g id="line2d_16">
      <g>
       <use style="stroke:#000000;stroke-width:0.8;" x="40.603125" xlink:href="#m106dd14689" y="39.847856"/>
      </g>
     </g>
     <g id="text_16">
      <!-- 14 -->
      <g transform="translate(20.878125 43.647075)scale(0.1 -0.1)">
       <use xlink:href="#DejaVuSans-49"/>
       <use x="63.623047" xlink:href="#DejaVuSans-52"/>
      </g>
     </g>
    </g>
    <g id="ytick_9">
     <g id="line2d_17">
      <g>
       <use style="stroke:#000000;stroke-width:0.8;" x="40.603125" xlink:href="#m106dd14689" y="13.448978"/>
      </g>
     </g>
     <g id="text_17">
      <!-- 16 -->
      <g transform="translate(20.878125 17.248197)scale(0.1 -0.1)">
       <use xlink:href="#DejaVuSans-49"/>
       <use x="63.623047" xlink:href="#DejaVuSans-54"/>
      </g>
     </g>
    </g>
    <g id="text_18">
     <!-- Density -->
     <g transform="translate(14.798438 134.928594)rotate(-90)scale(0.1 -0.1)">
      <defs>
       <path d="M 19.671875 64.796875 
L 19.671875 8.109375 
L 31.59375 8.109375 
Q 46.6875 8.109375 53.6875 14.9375 
Q 60.6875 21.78125 60.6875 36.53125 
Q 60.6875 51.171875 53.6875 57.984375 
Q 46.6875 64.796875 31.59375 64.796875 
z
M 9.8125 72.90625 
L 30.078125 72.90625 
Q 51.265625 72.90625 61.171875 64.09375 
Q 71.09375 55.28125 71.09375 36.53125 
Q 71.09375 17.671875 61.125 8.828125 
Q 51.171875 0 30.078125 0 
L 9.8125 0 
z
" id="DejaVuSans-68"/>
       <path d="M 56.203125 29.59375 
L 56.203125 25.203125 
L 14.890625 25.203125 
Q 15.484375 15.921875 20.484375 11.0625 
Q 25.484375 6.203125 34.421875 6.203125 
Q 39.59375 6.203125 44.453125 7.46875 
Q 49.3125 8.734375 54.109375 11.28125 
L 54.109375 2.78125 
Q 49.265625 0.734375 44.1875 -0.34375 
Q 39.109375 -1.421875 33.890625 -1.421875 
Q 20.796875 -1.421875 13.15625 6.1875 
Q 5.515625 13.8125 5.515625 26.8125 
Q 5.515625 40.234375 12.765625 48.109375 
Q 20.015625 56 32.328125 56 
Q 43.359375 56 49.78125 48.890625 
Q 56.203125 41.796875 56.203125 29.59375 
z
M 47.21875 32.234375 
Q 47.125 39.59375 43.09375 43.984375 
Q 39.0625 48.390625 32.421875 48.390625 
Q 24.90625 48.390625 20.390625 44.140625 
Q 15.875 39.890625 15.1875 32.171875 
z
" id="DejaVuSans-101"/>
       <path d="M 54.890625 33.015625 
L 54.890625 0 
L 45.90625 0 
L 45.90625 32.71875 
Q 45.90625 40.484375 42.875 44.328125 
Q 39.84375 48.1875 33.796875 48.1875 
Q 26.515625 48.1875 22.3125 43.546875 
Q 18.109375 38.921875 18.109375 30.90625 
L 18.109375 0 
L 9.078125 0 
L 9.078125 54.6875 
L 18.109375 54.6875 
L 18.109375 46.1875 
Q 21.34375 51.125 25.703125 53.5625 
Q 30.078125 56 35.796875 56 
Q 45.21875 56 50.046875 50.171875 
Q 54.890625 44.34375 54.890625 33.015625 
z
" id="DejaVuSans-110"/>
       <path d="M 44.28125 53.078125 
L 44.28125 44.578125 
Q 40.484375 46.53125 36.375 47.5 
Q 32.28125 48.484375 27.875 48.484375 
Q 21.1875 48.484375 17.84375 46.4375 
Q 14.5 44.390625 14.5 40.28125 
Q 14.5 37.15625 16.890625 35.375 
Q 19.28125 33.59375 26.515625 31.984375 
L 29.59375 31.296875 
Q 39.15625 29.25 43.1875 25.515625 
Q 47.21875 21.78125 47.21875 15.09375 
Q 47.21875 7.46875 41.1875 3.015625 
Q 35.15625 -1.421875 24.609375 -1.421875 
Q 20.21875 -1.421875 15.453125 -0.5625 
Q 10.6875 0.296875 5.421875 2 
L 5.421875 11.28125 
Q 10.40625 8.6875 15.234375 7.390625 
Q 20.0625 6.109375 24.8125 6.109375 
Q 31.15625 6.109375 34.5625 8.28125 
Q 37.984375 10.453125 37.984375 14.40625 
Q 37.984375 18.0625 35.515625 20.015625 
Q 33.0625 21.96875 24.703125 23.78125 
L 21.578125 24.515625 
Q 13.234375 26.265625 9.515625 29.90625 
Q 5.8125 33.546875 5.8125 39.890625 
Q 5.8125 47.609375 11.28125 51.796875 
Q 16.75 56 26.8125 56 
Q 31.78125 56 36.171875 55.265625 
Q 40.578125 54.546875 44.28125 53.078125 
z
" id="DejaVuSans-115"/>
       <path d="M 9.421875 54.6875 
L 18.40625 54.6875 
L 18.40625 0 
L 9.421875 0 
z
M 9.421875 75.984375 
L 18.40625 75.984375 
L 18.40625 64.59375 
L 9.421875 64.59375 
z
" id="DejaVuSans-105"/>
       <path d="M 18.3125 70.21875 
L 18.3125 54.6875 
L 36.8125 54.6875 
L 36.8125 47.703125 
L 18.3125 47.703125 
L 18.3125 18.015625 
Q 18.3125 11.328125 20.140625 9.421875 
Q 21.96875 7.515625 27.59375 7.515625 
L 36.8125 7.515625 
L 36.8125 0 
L 27.59375 0 
Q 17.1875 0 13.234375 3.875 
Q 9.28125 7.765625 9.28125 18.015625 
L 9.28125 47.703125 
L 2.6875 47.703125 
L 2.6875 54.6875 
L 9.28125 54.6875 
L 9.28125 70.21875 
z
" id="DejaVuSans-116"/>
       <path d="M 32.171875 -5.078125 
Q 28.375 -14.84375 24.75 -17.8125 
Q 21.140625 -20.796875 15.09375 -20.796875 
L 7.90625 -20.796875 
L 7.90625 -13.28125 
L 13.1875 -13.28125 
Q 16.890625 -13.28125 18.9375 -11.515625 
Q 21 -9.765625 23.484375 -3.21875 
L 25.09375 0.875 
L 2.984375 54.6875 
L 12.5 54.6875 
L 29.59375 11.921875 
L 46.6875 54.6875 
L 56.203125 54.6875 
z
" id="DejaVuSans-121"/>
      </defs>
      <use xlink:href="#DejaVuSans-68"/>
      <use x="77.001953" xlink:href="#DejaVuSans-101"/>
      <use x="138.525391" xlink:href="#DejaVuSans-110"/>
      <use x="201.904297" xlink:href="#DejaVuSans-115"/>
      <use x="254.003906" xlink:href="#DejaVuSans-105"/>
      <use x="281.787109" xlink:href="#DejaVuSans-116"/>
      <use x="320.996094" xlink:href="#DejaVuSans-121"/>
     </g>
    </g>
   </g>
   <g id="patch_3">
    <path d="M 40.603125 224.64 
L 40.603125 7.2 
" style="fill:none;stroke:#000000;stroke-linecap:square;stroke-linejoin:miter;stroke-width:0.8;"/>
   </g>
   <g id="patch_4">
    <path d="M 375.403125 224.64 
L 375.403125 7.2 
" style="fill:none;stroke:#000000;stroke-linecap:square;stroke-linejoin:miter;stroke-width:0.8;"/>
   </g>
   <g id="patch_5">
    <path d="M 40.603125 224.64 
L 375.403125 224.64 
" style="fill:none;stroke:#000000;stroke-linecap:square;stroke-linejoin:miter;stroke-width:0.8;"/>
   </g>
   <g id="patch_6">
    <path d="M 40.603125 7.2 
L 375.403125 7.2 
" style="fill:none;stroke:#000000;stroke-linecap:square;stroke-linejoin:miter;stroke-width:0.8;"/>
   </g>
   <g id="legend_1">
    <g id="patch_7">
     <path d="M 304.7125 44.55625 
L 368.403125 44.55625 
Q 370.403125 44.55625 370.403125 42.55625 
L 370.403125 14.2 
Q 370.403125 12.2 368.403125 12.2 
L 304.7125 12.2 
Q 302.7125 12.2 302.7125 14.2 
L 302.7125 42.55625 
Q 302.7125 44.55625 304.7125 44.55625 
z
" style="fill:#ffffff;opacity:0.8;stroke:#cccccc;stroke-linejoin:miter;"/>
    </g>
    <g id="patch_8">
     <path d="M 306.7125 23.798437 
L 326.7125 23.798437 
L 326.7125 16.798437 
L 306.7125 16.798437 
z
" style="fill:#509e90;fill-opacity:0.5;stroke:#509e90;stroke-linejoin:miter;"/>
    </g>
    <g id="text_19">
     <!-- table1 -->
     <g transform="translate(334.7125 23.798437)scale(0.1 -0.1)">
      <defs>
       <path d="M 34.28125 27.484375 
Q 23.390625 27.484375 19.1875 25 
Q 14.984375 22.515625 14.984375 16.5 
Q 14.984375 11.71875 18.140625 8.90625 
Q 21.296875 6.109375 26.703125 6.109375 
Q 34.1875 6.109375 38.703125 11.40625 
Q 43.21875 16.703125 43.21875 25.484375 
L 43.21875 27.484375 
z
M 52.203125 31.203125 
L 52.203125 0 
L 43.21875 0 
L 43.21875 8.296875 
Q 40.140625 3.328125 35.546875 0.953125 
Q 30.953125 -1.421875 24.3125 -1.421875 
Q 15.921875 -1.421875 10.953125 3.296875 
Q 6 8.015625 6 15.921875 
Q 6 25.140625 12.171875 29.828125 
Q 18.359375 34.515625 30.609375 34.515625 
L 43.21875 34.515625 
L 43.21875 35.40625 
Q 43.21875 41.609375 39.140625 45 
Q 35.0625 48.390625 27.6875 48.390625 
Q 23 48.390625 18.546875 47.265625 
Q 14.109375 46.140625 10.015625 43.890625 
L 10.015625 52.203125 
Q 14.9375 54.109375 19.578125 55.046875 
Q 24.21875 56 28.609375 56 
Q 40.484375 56 46.34375 49.84375 
Q 52.203125 43.703125 52.203125 31.203125 
z
" id="DejaVuSans-97"/>
       <path d="M 48.6875 27.296875 
Q 48.6875 37.203125 44.609375 42.84375 
Q 40.53125 48.484375 33.40625 48.484375 
Q 26.265625 48.484375 22.1875 42.84375 
Q 18.109375 37.203125 18.109375 27.296875 
Q 18.109375 17.390625 22.1875 11.75 
Q 26.265625 6.109375 33.40625 6.109375 
Q 40.53125 6.109375 44.609375 11.75 
Q 48.6875 17.390625 48.6875 27.296875 
z
M 18.109375 46.390625 
Q 20.953125 51.265625 25.265625 53.625 
Q 29.59375 56 35.59375 56 
Q 45.5625 56 51.78125 48.09375 
Q 58.015625 40.1875 58.015625 27.296875 
Q 58.015625 14.40625 51.78125 6.484375 
Q 45.5625 -1.421875 35.59375 -1.421875 
Q 29.59375 -1.421875 25.265625 0.953125 
Q 20.953125 3.328125 18.109375 8.203125 
L 18.109375 0 
L 9.078125 0 
L 9.078125 75.984375 
L 18.109375 75.984375 
z
" id="DejaVuSans-98"/>
       <path d="M 9.421875 75.984375 
L 18.40625 75.984375 
L 18.40625 0 
L 9.421875 0 
z
" id="DejaVuSans-108"/>
      </defs>
      <use xlink:href="#DejaVuSans-116"/>
      <use x="39.208984" xlink:href="#DejaVuSans-97"/>
      <use x="100.488281" xlink:href="#DejaVuSans-98"/>
      <use x="163.964844" xlink:href="#DejaVuSans-108"/>
      <use x="191.748047" xlink:href="#DejaVuSans-101"/>
      <use x="253.271484" xlink:href="#DejaVuSans-49"/>
     </g>
    </g>
    <g id="patch_9">
     <path d="M 306.7125 38.476562 
L 326.7125 38.476562 
L 326.7125 31.476562 
L 306.7125 31.476562 
z
" style="fill:#1d6c8a;fill-opacity:0.5;stroke:#1d6c8a;stroke-linejoin:miter;"/>
    </g>
    <g id="text_20">
     <!-- table2 -->
     <g transform="translate(334.7125 38.476562)scale(0.1 -0.1)">
      <use xlink:href="#DejaVuSans-116"/>
      <use x="39.208984" xlink:href="#DejaVuSans-97"/>
      <use x="100.488281" xlink:href="#DejaVuSans-98"/>
      <use x="163.964844" xlink:href="#DejaVuSans-108"/>
      <use x="191.748047" xlink:href="#DejaVuSans-101"/>
      <use x="253.271484" xlink:href="#DejaVuSans-50"/>
     </g>
    </g>
   </g>
  </g>
 </g>
 <defs>
  <clipPath id="pae60b3890b">
   <rect height="217.44" width="334.8" x="40.603125" y="7.2"/>
  </clipPath>
 </defs>
</svg>
