<?xml version="1.0" encoding="utf-8" standalone="no"?>
<!DOCTYPE svg PUBLIC "-//W3C//DTD SVG 1.1//EN"
  "http://www.w3.org/Graphics/SVG/1.1/DTD/svg11.dtd">
<!-- Created with matplotlib (https://matplotlib.org/) -->
<svg height="262.19625pt" version="1.1" viewBox="0 0 375.655469 262.19625" width="375.655469pt" xmlns="http://www.w3.org/2000/svg" xmlns:xlink="http://www.w3.org/1999/xlink">
 <metadata>
  <rdf:RDF xmlns:cc="http://creativecommons.org/ns#" xmlns:dc="http://purl.org/dc/elements/1.1/" xmlns:rdf="http://www.w3.org/1999/02/22-rdf-syntax-ns#">
   <cc:Work>
    <dc:type rdf:resource="http://purl.org/dc/dcmitype/StillImage"/>
    <dc:date>2020-11-27T10:47:01.623810</dc:date>
    <dc:format>image/svg+xml</dc:format>
    <dc:creator>
     <cc:Agent>
      <dc:title>Matplotlib v3.3.3, https://matplotlib.org/</dc:title>
     </cc:Agent>
    </dc:creator>
   </cc:Work>
  </rdf:RDF>
 </metadata>
 <defs>
  <style type="text/css">*{stroke-linecap:butt;stroke-linejoin:round;}</style>
 </defs>
 <g id="figure_1">
  <g id="patch_1">
   <path d="M 0 262.19625 
L 375.655469 262.19625 
L 375.655469 0 
L 0 0 
z
" style="fill:none;"/>
  </g>
  <g id="axes_1">
   <g id="patch_2">
    <path d="M 22.522656 224.64 
L 357.322656 224.64 
L 357.322656 7.2 
L 22.522656 7.2 
z
" style="fill:#ffffff;"/>
   </g>
   <g id="PolyCollection_1">
    <defs>
     <path d="M 22.453014 -37.573043 
L 22.453014 -37.55625 
L 24.136153 -37.55625 
L 25.819292 -37.55625 
L 27.502432 -37.55625 
L 29.185571 -37.55625 
L 30.868711 -37.55625 
L 32.55185 -37.55625 
L 34.23499 -37.55625 
L 35.918129 -37.55625 
L 37.601268 -37.55625 
L 39.284408 -37.55625 
L 40.967547 -37.55625 
L 42.650687 -37.55625 
L 44.333826 -37.55625 
L 46.016966 -37.55625 
L 47.700105 -37.55625 
L 49.383245 -37.55625 
L 51.066384 -37.55625 
L 52.749523 -37.55625 
L 54.432663 -37.55625 
L 56.115802 -37.55625 
L 57.798942 -37.55625 
L 59.482081 -37.55625 
L 61.165221 -37.55625 
L 62.84836 -37.55625 
L 64.531499 -37.55625 
L 66.214639 -37.55625 
L 67.897778 -37.55625 
L 69.580918 -37.55625 
L 71.264057 -37.55625 
L 72.947197 -37.55625 
L 74.630336 -37.55625 
L 76.313476 -37.55625 
L 77.996615 -37.55625 
L 79.679754 -37.55625 
L 81.362894 -37.55625 
L 83.046033 -37.55625 
L 84.729173 -37.55625 
L 86.412312 -37.55625 
L 88.095452 -37.55625 
L 89.778591 -37.55625 
L 91.461731 -37.55625 
L 93.14487 -37.55625 
L 94.828009 -37.55625 
L 96.511149 -37.55625 
L 98.194288 -37.55625 
L 99.877428 -37.55625 
L 101.560567 -37.55625 
L 103.243707 -37.55625 
L 104.926846 -37.55625 
L 106.609985 -37.55625 
L 108.293125 -37.55625 
L 109.976264 -37.55625 
L 111.659404 -37.55625 
L 113.342543 -37.55625 
L 115.025683 -37.55625 
L 116.708822 -37.55625 
L 118.391962 -37.55625 
L 120.075101 -37.55625 
L 121.75824 -37.55625 
L 123.44138 -37.55625 
L 125.124519 -37.55625 
L 126.807659 -37.55625 
L 128.490798 -37.55625 
L 130.173938 -37.55625 
L 131.857077 -37.55625 
L 133.540216 -37.55625 
L 135.223356 -37.55625 
L 136.906495 -37.55625 
L 138.589635 -37.55625 
L 140.272774 -37.55625 
L 141.955914 -37.55625 
L 143.639053 -37.55625 
L 145.322193 -37.55625 
L 147.005332 -37.55625 
L 148.688471 -37.55625 
L 150.371611 -37.55625 
L 152.05475 -37.55625 
L 153.73789 -37.55625 
L 155.421029 -37.55625 
L 157.104169 -37.55625 
L 158.787308 -37.55625 
L 160.470447 -37.55625 
L 162.153587 -37.55625 
L 163.836726 -37.55625 
L 165.519866 -37.55625 
L 167.203005 -37.55625 
L 168.886145 -37.55625 
L 170.569284 -37.55625 
L 172.252424 -37.55625 
L 173.935563 -37.55625 
L 175.618702 -37.55625 
L 177.301842 -37.55625 
L 178.984981 -37.55625 
L 180.668121 -37.55625 
L 182.35126 -37.55625 
L 184.0344 -37.55625 
L 185.717539 -37.55625 
L 187.400679 -37.55625 
L 189.083818 -37.55625 
L 190.766957 -37.55625 
L 192.450097 -37.55625 
L 194.133236 -37.55625 
L 195.816376 -37.55625 
L 197.499515 -37.55625 
L 199.182655 -37.55625 
L 200.865794 -37.55625 
L 202.548933 -37.55625 
L 204.232073 -37.55625 
L 205.915212 -37.55625 
L 207.598352 -37.55625 
L 209.281491 -37.55625 
L 210.964631 -37.55625 
L 212.64777 -37.55625 
L 214.33091 -37.55625 
L 216.014049 -37.55625 
L 217.697188 -37.55625 
L 219.380328 -37.55625 
L 221.063467 -37.55625 
L 222.746607 -37.55625 
L 224.429746 -37.55625 
L 226.112886 -37.55625 
L 227.796025 -37.55625 
L 229.479164 -37.55625 
L 231.162304 -37.55625 
L 232.845443 -37.55625 
L 234.528583 -37.55625 
L 236.211722 -37.55625 
L 237.894862 -37.55625 
L 239.578001 -37.55625 
L 241.261141 -37.55625 
L 242.94428 -37.55625 
L 244.627419 -37.55625 
L 246.310559 -37.55625 
L 247.993698 -37.55625 
L 249.676838 -37.55625 
L 251.359977 -37.55625 
L 253.043117 -37.55625 
L 254.726256 -37.55625 
L 256.409395 -37.55625 
L 258.092535 -37.55625 
L 259.775674 -37.55625 
L 261.458814 -37.55625 
L 263.141953 -37.55625 
L 264.825093 -37.55625 
L 266.508232 -37.55625 
L 268.191372 -37.55625 
L 269.874511 -37.55625 
L 271.55765 -37.55625 
L 273.24079 -37.55625 
L 274.923929 -37.55625 
L 276.607069 -37.55625 
L 278.290208 -37.55625 
L 279.973348 -37.55625 
L 281.656487 -37.55625 
L 283.339626 -37.55625 
L 285.022766 -37.55625 
L 286.705905 -37.55625 
L 288.389045 -37.55625 
L 290.072184 -37.55625 
L 291.755324 -37.55625 
L 293.438463 -37.55625 
L 295.121603 -37.55625 
L 296.804742 -37.55625 
L 298.487881 -37.55625 
L 300.171021 -37.55625 
L 301.85416 -37.55625 
L 303.5373 -37.55625 
L 305.220439 -37.55625 
L 306.903579 -37.55625 
L 308.586718 -37.55625 
L 310.269858 -37.55625 
L 311.952997 -37.55625 
L 313.636136 -37.55625 
L 315.319276 -37.55625 
L 317.002415 -37.55625 
L 318.685555 -37.55625 
L 320.368694 -37.55625 
L 322.051834 -37.55625 
L 323.734973 -37.55625 
L 325.418112 -37.55625 
L 327.101252 -37.55625 
L 328.784391 -37.55625 
L 330.467531 -37.55625 
L 332.15067 -37.55625 
L 333.83381 -37.55625 
L 335.516949 -37.55625 
L 337.200089 -37.55625 
L 338.883228 -37.55625 
L 340.566367 -37.55625 
L 342.249507 -37.55625 
L 343.932646 -37.55625 
L 345.615786 -37.55625 
L 347.298925 -37.55625 
L 348.982065 -37.55625 
L 350.665204 -37.55625 
L 352.348343 -37.55625 
L 354.031483 -37.55625 
L 355.714622 -37.55625 
L 357.397762 -37.55625 
L 357.397762 -52.646616 
L 357.397762 -52.646616 
L 355.714622 -149.835254 
L 354.031483 -109.52473 
L 352.348343 -89.388824 
L 350.665204 -82.504065 
L 348.982065 -82.057497 
L 347.298925 -80.069874 
L 345.615786 -77.390509 
L 343.932646 -76.18057 
L 342.249507 -75.20817 
L 340.566367 -70.126476 
L 338.883228 -67.368127 
L 337.200089 -70.524849 
L 335.516949 -75.491505 
L 333.83381 -69.206337 
L 332.15067 -69.143527 
L 330.467531 -64.657069 
L 328.784391 -68.407492 
L 327.101252 -66.538045 
L 325.418112 -70.329281 
L 323.734973 -74.54909 
L 322.051834 -79.313114 
L 320.368694 -72.913591 
L 318.685555 -70.749648 
L 317.002415 -69.593844 
L 315.319276 -70.722987 
L 313.636136 -70.147497 
L 311.952997 -67.650644 
L 310.269858 -72.52986 
L 308.586718 -74.350995 
L 306.903579 -74.845173 
L 305.220439 -73.754116 
L 303.5373 -74.131723 
L 301.85416 -71.004845 
L 300.171021 -70.588957 
L 298.487881 -78.21763 
L 296.804742 -76.673028 
L 295.121603 -72.737446 
L 293.438463 -73.58801 
L 291.755324 -78.650496 
L 290.072184 -72.219597 
L 288.389045 -73.362044 
L 286.705905 -83.807879 
L 285.022766 -77.21389 
L 283.339626 -80.924862 
L 281.656487 -76.526514 
L 279.973348 -85.629038 
L 278.290208 -74.436828 
L 276.607069 -74.742779 
L 274.923929 -84.887477 
L 273.24079 -76.816345 
L 271.55765 -82.633939 
L 269.874511 -81.571891 
L 268.191372 -80.204509 
L 266.508232 -79.493642 
L 264.825093 -91.310975 
L 263.141953 -96.337138 
L 261.458814 -79.957844 
L 259.775674 -83.583513 
L 258.092535 -87.63519 
L 256.409395 -87.880196 
L 254.726256 -94.102081 
L 253.043117 -89.384125 
L 251.359977 -92.944049 
L 249.676838 -89.262035 
L 247.993698 -94.320007 
L 246.310559 -87.072522 
L 244.627419 -99.376845 
L 242.94428 -92.621889 
L 241.261141 -88.544867 
L 239.578001 -104.083814 
L 237.894862 -99.510844 
L 236.211722 -103.127222 
L 234.528583 -105.285148 
L 232.845443 -102.169429 
L 231.162304 -103.783561 
L 229.479164 -114.569546 
L 227.796025 -109.473048 
L 226.112886 -108.754537 
L 224.429746 -118.050601 
L 222.746607 -111.251254 
L 221.063467 -117.87199 
L 219.380328 -116.254479 
L 217.697188 -111.820306 
L 216.014049 -118.165633 
L 214.33091 -112.231299 
L 212.64777 -120.02047 
L 210.964631 -116.993378 
L 209.281491 -125.563699 
L 207.598352 -135.036793 
L 205.915212 -138.479805 
L 204.232073 -141.237538 
L 202.548933 -142.94055 
L 200.865794 -147.734032 
L 199.182655 -154.654801 
L 197.499515 -167.273708 
L 195.816376 -166.417353 
L 194.133236 -200.043823 
L 192.450097 -191.58624 
L 190.766957 -244.641964 
L 189.083818 -240.337744 
L 187.400679 -193.642264 
L 185.717539 -174.391772 
L 184.0344 -160.941523 
L 182.35126 -159.817185 
L 180.668121 -142.476752 
L 178.984981 -139.983966 
L 177.301842 -132.367652 
L 175.618702 -127.677453 
L 173.935563 -116.926006 
L 172.252424 -118.433818 
L 170.569284 -114.145276 
L 168.886145 -109.751184 
L 167.203005 -107.026801 
L 165.519866 -106.741613 
L 163.836726 -100.207125 
L 162.153587 -99.116781 
L 160.470447 -96.059088 
L 158.787308 -94.046811 
L 157.104169 -93.119285 
L 155.421029 -92.515592 
L 153.73789 -94.367252 
L 152.05475 -88.903348 
L 150.371611 -89.773913 
L 148.688471 -87.179416 
L 147.005332 -79.716016 
L 145.322193 -81.833826 
L 143.639053 -76.980977 
L 141.955914 -82.622938 
L 140.272774 -78.240967 
L 138.589635 -74.859674 
L 136.906495 -74.157862 
L 135.223356 -73.503862 
L 133.540216 -76.938816 
L 131.857077 -71.044543 
L 130.173938 -76.210865 
L 128.490798 -73.324216 
L 126.807659 -69.936113 
L 125.124519 -71.416041 
L 123.44138 -69.776015 
L 121.75824 -66.786948 
L 120.075101 -71.932908 
L 118.391962 -65.129279 
L 116.708822 -62.586129 
L 115.025683 -68.825675 
L 113.342543 -58.608913 
L 111.659404 -64.579954 
L 109.976264 -65.926933 
L 108.293125 -65.718962 
L 106.609985 -61.4299 
L 104.926846 -66.303592 
L 103.243707 -61.550551 
L 101.560567 -61.270824 
L 99.877428 -62.767953 
L 98.194288 -62.067913 
L 96.511149 -57.124003 
L 94.828009 -56.254502 
L 93.14487 -58.686778 
L 91.461731 -57.692157 
L 89.778591 -57.593393 
L 88.095452 -56.543487 
L 86.412312 -55.954182 
L 84.729173 -57.229585 
L 83.046033 -53.562437 
L 81.362894 -53.676639 
L 79.679754 -56.157965 
L 77.996615 -55.832262 
L 76.313476 -57.480597 
L 74.630336 -58.390968 
L 72.947197 -55.115731 
L 71.264057 -52.637482 
L 69.580918 -53.226231 
L 67.897778 -50.480819 
L 66.214639 -56.005917 
L 64.531499 -53.79725 
L 62.84836 -50.954098 
L 61.165221 -54.853278 
L 59.482081 -55.049095 
L 57.798942 -52.283434 
L 56.115802 -54.398224 
L 54.432663 -53.864475 
L 52.749523 -50.440844 
L 51.066384 -55.322622 
L 49.383245 -48.608852 
L 47.700105 -51.543929 
L 46.016966 -50.511338 
L 44.333826 -49.5753 
L 42.650687 -49.615575 
L 40.967547 -46.695286 
L 39.284408 -51.599614 
L 37.601268 -51.336037 
L 35.918129 -49.825888 
L 34.23499 -49.210569 
L 32.55185 -50.765818 
L 30.868711 -48.619761 
L 29.185571 -48.221952 
L 27.502432 -49.875279 
L 25.819292 -50.756307 
L 24.136153 -45.821942 
L 22.453014 -37.573043 
z
" id="mf05c7ccb20" style="stroke:#1f77b4;"/>
    </defs>
    <g clip-path="url(#p654bcc8ee9)">
     <use style="fill:#1f77b4;fill-opacity:0.25;stroke:#1f77b4;" x="0" xlink:href="#mf05c7ccb20" y="262.19625"/>
    </g>
   </g>
   <g id="matplotlib.axis_1">
    <g id="xtick_1">
     <g id="line2d_1">
      <defs>
       <path d="M 0 0 
L 0 3.5 
" id="m953f8b3038" style="stroke:#000000;stroke-width:0.8;"/>
      </defs>
      <g>
       <use style="stroke:#000000;stroke-width:0.8;" x="22.522656" xlink:href="#m953f8b3038" y="224.64"/>
      </g>
     </g>
     <g id="text_1">
      <!-- −1.00 -->
      <g transform="translate(7.2 239.238437)scale(0.1 -0.1)">
       <defs>
        <path d="M 10.59375 35.5 
L 73.1875 35.5 
L 73.1875 27.203125 
L 10.59375 27.203125 
z
" id="DejaVuSans-8722"/>
        <path d="M 12.40625 8.296875 
L 28.515625 8.296875 
L 28.515625 63.921875 
L 10.984375 60.40625 
L 10.984375 69.390625 
L 28.421875 72.90625 
L 38.28125 72.90625 
L 38.28125 8.296875 
L 54.390625 8.296875 
L 54.390625 0 
L 12.40625 0 
z
" id="DejaVuSans-49"/>
        <path d="M 10.6875 12.40625 
L 21 12.40625 
L 21 0 
L 10.6875 0 
z
" id="DejaVuSans-46"/>
        <path d="M 31.78125 66.40625 
Q 24.171875 66.40625 20.328125 58.90625 
Q 16.5 51.421875 16.5 36.375 
Q 16.5 21.390625 20.328125 13.890625 
Q 24.171875 6.390625 31.78125 6.390625 
Q 39.453125 6.390625 43.28125 13.890625 
Q 47.125 21.390625 47.125 36.375 
Q 47.125 51.421875 43.28125 58.90625 
Q 39.453125 66.40625 31.78125 66.40625 
z
M 31.78125 74.21875 
Q 44.046875 74.21875 50.515625 64.515625 
Q 56.984375 54.828125 56.984375 36.375 
Q 56.984375 17.96875 50.515625 8.265625 
Q 44.046875 -1.421875 31.78125 -1.421875 
Q 19.53125 -1.421875 13.0625 8.265625 
Q 6.59375 17.96875 6.59375 36.375 
Q 6.59375 54.828125 13.0625 64.515625 
Q 19.53125 74.21875 31.78125 74.21875 
z
" id="DejaVuSans-48"/>
       </defs>
       <use xlink:href="#DejaVuSans-8722"/>
       <use x="83.789062" xlink:href="#DejaVuSans-49"/>
       <use x="147.412109" xlink:href="#DejaVuSans-46"/>
       <use x="179.199219" xlink:href="#DejaVuSans-48"/>
       <use x="242.822266" xlink:href="#DejaVuSans-48"/>
      </g>
     </g>
    </g>
    <g id="xtick_2">
     <g id="line2d_2">
      <g>
       <use style="stroke:#000000;stroke-width:0.8;" x="64.372656" xlink:href="#m953f8b3038" y="224.64"/>
      </g>
     </g>
     <g id="text_2">
      <!-- −0.75 -->
      <g transform="translate(49.05 239.238437)scale(0.1 -0.1)">
       <defs>
        <path d="M 8.203125 72.90625 
L 55.078125 72.90625 
L 55.078125 68.703125 
L 28.609375 0 
L 18.3125 0 
L 43.21875 64.59375 
L 8.203125 64.59375 
z
" id="DejaVuSans-55"/>
        <path d="M 10.796875 72.90625 
L 49.515625 72.90625 
L 49.515625 64.59375 
L 19.828125 64.59375 
L 19.828125 46.734375 
Q 21.96875 47.46875 24.109375 47.828125 
Q 26.265625 48.1875 28.421875 48.1875 
Q 40.625 48.1875 47.75 41.5 
Q 54.890625 34.8125 54.890625 23.390625 
Q 54.890625 11.625 47.5625 5.09375 
Q 40.234375 -1.421875 26.90625 -1.421875 
Q 22.3125 -1.421875 17.546875 -0.640625 
Q 12.796875 0.140625 7.71875 1.703125 
L 7.71875 11.625 
Q 12.109375 9.234375 16.796875 8.0625 
Q 21.484375 6.890625 26.703125 6.890625 
Q 35.15625 6.890625 40.078125 11.328125 
Q 45.015625 15.765625 45.015625 23.390625 
Q 45.015625 31 40.078125 35.4375 
Q 35.15625 39.890625 26.703125 39.890625 
Q 22.75 39.890625 18.8125 39.015625 
Q 14.890625 38.140625 10.796875 36.28125 
z
" id="DejaVuSans-53"/>
       </defs>
       <use xlink:href="#DejaVuSans-8722"/>
       <use x="83.789062" xlink:href="#DejaVuSans-48"/>
       <use x="147.412109" xlink:href="#DejaVuSans-46"/>
       <use x="179.199219" xlink:href="#DejaVuSans-55"/>
       <use x="242.822266" xlink:href="#DejaVuSans-53"/>
      </g>
     </g>
    </g>
    <g id="xtick_3">
     <g id="line2d_3">
      <g>
       <use style="stroke:#000000;stroke-width:0.8;" x="106.222656" xlink:href="#m953f8b3038" y="224.64"/>
      </g>
     </g>
     <g id="text_3">
      <!-- −0.50 -->
      <g transform="translate(90.9 239.238437)scale(0.1 -0.1)">
       <use xlink:href="#DejaVuSans-8722"/>
       <use x="83.789062" xlink:href="#DejaVuSans-48"/>
       <use x="147.412109" xlink:href="#DejaVuSans-46"/>
       <use x="179.199219" xlink:href="#DejaVuSans-53"/>
       <use x="242.822266" xlink:href="#DejaVuSans-48"/>
      </g>
     </g>
    </g>
    <g id="xtick_4">
     <g id="line2d_4">
      <g>
       <use style="stroke:#000000;stroke-width:0.8;" x="148.072656" xlink:href="#m953f8b3038" y="224.64"/>
      </g>
     </g>
     <g id="text_4">
      <!-- −0.25 -->
      <g transform="translate(132.75 239.238437)scale(0.1 -0.1)">
       <defs>
        <path d="M 19.1875 8.296875 
L 53.609375 8.296875 
L 53.609375 0 
L 7.328125 0 
L 7.328125 8.296875 
Q 12.9375 14.109375 22.625 23.890625 
Q 32.328125 33.6875 34.8125 36.53125 
Q 39.546875 41.84375 41.421875 45.53125 
Q 43.3125 49.21875 43.3125 52.78125 
Q 43.3125 58.59375 39.234375 62.25 
Q 35.15625 65.921875 28.609375 65.921875 
Q 23.96875 65.921875 18.8125 64.3125 
Q 13.671875 62.703125 7.8125 59.421875 
L 7.8125 69.390625 
Q 13.765625 71.78125 18.9375 73 
Q 24.125 74.21875 28.421875 74.21875 
Q 39.75 74.21875 46.484375 68.546875 
Q 53.21875 62.890625 53.21875 53.421875 
Q 53.21875 48.921875 51.53125 44.890625 
Q 49.859375 40.875 45.40625 35.40625 
Q 44.1875 33.984375 37.640625 27.21875 
Q 31.109375 20.453125 19.1875 8.296875 
z
" id="DejaVuSans-50"/>
       </defs>
       <use xlink:href="#DejaVuSans-8722"/>
       <use x="83.789062" xlink:href="#DejaVuSans-48"/>
       <use x="147.412109" xlink:href="#DejaVuSans-46"/>
       <use x="179.199219" xlink:href="#DejaVuSans-50"/>
       <use x="242.822266" xlink:href="#DejaVuSans-53"/>
      </g>
     </g>
    </g>
    <g id="xtick_5">
     <g id="line2d_5">
      <g>
       <use style="stroke:#000000;stroke-width:0.8;" x="189.922656" xlink:href="#m953f8b3038" y="224.64"/>
      </g>
     </g>
     <g id="text_5">
      <!-- 0.00 -->
      <g transform="translate(178.789844 239.238437)scale(0.1 -0.1)">
       <use xlink:href="#DejaVuSans-48"/>
       <use x="63.623047" xlink:href="#DejaVuSans-46"/>
       <use x="95.410156" xlink:href="#DejaVuSans-48"/>
       <use x="159.033203" xlink:href="#DejaVuSans-48"/>
      </g>
     </g>
    </g>
    <g id="xtick_6">
     <g id="line2d_6">
      <g>
       <use style="stroke:#000000;stroke-width:0.8;" x="231.772656" xlink:href="#m953f8b3038" y="224.64"/>
      </g>
     </g>
     <g id="text_6">
      <!-- 0.25 -->
      <g transform="translate(220.639844 239.238437)scale(0.1 -0.1)">
       <use xlink:href="#DejaVuSans-48"/>
       <use x="63.623047" xlink:href="#DejaVuSans-46"/>
       <use x="95.410156" xlink:href="#DejaVuSans-50"/>
       <use x="159.033203" xlink:href="#DejaVuSans-53"/>
      </g>
     </g>
    </g>
    <g id="xtick_7">
     <g id="line2d_7">
      <g>
       <use style="stroke:#000000;stroke-width:0.8;" x="273.622656" xlink:href="#m953f8b3038" y="224.64"/>
      </g>
     </g>
     <g id="text_7">
      <!-- 0.50 -->
      <g transform="translate(262.489844 239.238437)scale(0.1 -0.1)">
       <use xlink:href="#DejaVuSans-48"/>
       <use x="63.623047" xlink:href="#DejaVuSans-46"/>
       <use x="95.410156" xlink:href="#DejaVuSans-53"/>
       <use x="159.033203" xlink:href="#DejaVuSans-48"/>
      </g>
     </g>
    </g>
    <g id="xtick_8">
     <g id="line2d_8">
      <g>
       <use style="stroke:#000000;stroke-width:0.8;" x="315.472656" xlink:href="#m953f8b3038" y="224.64"/>
      </g>
     </g>
     <g id="text_8">
      <!-- 0.75 -->
      <g transform="translate(304.339844 239.238437)scale(0.1 -0.1)">
       <use xlink:href="#DejaVuSans-48"/>
       <use x="63.623047" xlink:href="#DejaVuSans-46"/>
       <use x="95.410156" xlink:href="#DejaVuSans-55"/>
       <use x="159.033203" xlink:href="#DejaVuSans-53"/>
      </g>
     </g>
    </g>
    <g id="xtick_9">
     <g id="line2d_9">
      <g>
       <use style="stroke:#000000;stroke-width:0.8;" x="357.322656" xlink:href="#m953f8b3038" y="224.64"/>
      </g>
     </g>
     <g id="text_9">
      <!-- 1.00 -->
      <g transform="translate(346.189844 239.238437)scale(0.1 -0.1)">
       <use xlink:href="#DejaVuSans-49"/>
       <use x="63.623047" xlink:href="#DejaVuSans-46"/>
       <use x="95.410156" xlink:href="#DejaVuSans-48"/>
       <use x="159.033203" xlink:href="#DejaVuSans-48"/>
      </g>
     </g>
    </g>
    <g id="text_10">
     <!-- VE -->
     <g transform="translate(183.342969 252.916562)scale(0.1 -0.1)">
      <defs>
       <path d="M 28.609375 0 
L 0.78125 72.90625 
L 11.078125 72.90625 
L 34.1875 11.53125 
L 57.328125 72.90625 
L 67.578125 72.90625 
L 39.796875 0 
z
" id="DejaVuSans-86"/>
       <path d="M 9.8125 72.90625 
L 55.90625 72.90625 
L 55.90625 64.59375 
L 19.671875 64.59375 
L 19.671875 43.015625 
L 54.390625 43.015625 
L 54.390625 34.71875 
L 19.671875 34.71875 
L 19.671875 8.296875 
L 56.78125 8.296875 
L 56.78125 0 
L 9.8125 0 
z
" id="DejaVuSans-69"/>
      </defs>
      <use xlink:href="#DejaVuSans-86"/>
      <use x="68.408203" xlink:href="#DejaVuSans-69"/>
     </g>
    </g>
   </g>
   <g id="matplotlib.axis_2">
    <g id="text_11">
     <!-- Density -->
     <g transform="translate(16.442969 134.928594)rotate(-90)scale(0.1 -0.1)">
      <defs>
       <path d="M 19.671875 64.796875 
L 19.671875 8.109375 
L 31.59375 8.109375 
Q 46.6875 8.109375 53.6875 14.9375 
Q 60.6875 21.78125 60.6875 36.53125 
Q 60.6875 51.171875 53.6875 57.984375 
Q 46.6875 64.796875 31.59375 64.796875 
z
M 9.8125 72.90625 
L 30.078125 72.90625 
Q 51.265625 72.90625 61.171875 64.09375 
Q 71.09375 55.28125 71.09375 36.53125 
Q 71.09375 17.671875 61.125 8.828125 
Q 51.171875 0 30.078125 0 
L 9.8125 0 
z
" id="DejaVuSans-68"/>
       <path d="M 56.203125 29.59375 
L 56.203125 25.203125 
L 14.890625 25.203125 
Q 15.484375 15.921875 20.484375 11.0625 
Q 25.484375 6.203125 34.421875 6.203125 
Q 39.59375 6.203125 44.453125 7.46875 
Q 49.3125 8.734375 54.109375 11.28125 
L 54.109375 2.78125 
Q 49.265625 0.734375 44.1875 -0.34375 
Q 39.109375 -1.421875 33.890625 -1.421875 
Q 20.796875 -1.421875 13.15625 6.1875 
Q 5.515625 13.8125 5.515625 26.8125 
Q 5.515625 40.234375 12.765625 48.109375 
Q 20.015625 56 32.328125 56 
Q 43.359375 56 49.78125 48.890625 
Q 56.203125 41.796875 56.203125 29.59375 
z
M 47.21875 32.234375 
Q 47.125 39.59375 43.09375 43.984375 
Q 39.0625 48.390625 32.421875 48.390625 
Q 24.90625 48.390625 20.390625 44.140625 
Q 15.875 39.890625 15.1875 32.171875 
z
" id="DejaVuSans-101"/>
       <path d="M 54.890625 33.015625 
L 54.890625 0 
L 45.90625 0 
L 45.90625 32.71875 
Q 45.90625 40.484375 42.875 44.328125 
Q 39.84375 48.1875 33.796875 48.1875 
Q 26.515625 48.1875 22.3125 43.546875 
Q 18.109375 38.921875 18.109375 30.90625 
L 18.109375 0 
L 9.078125 0 
L 9.078125 54.6875 
L 18.109375 54.6875 
L 18.109375 46.1875 
Q 21.34375 51.125 25.703125 53.5625 
Q 30.078125 56 35.796875 56 
Q 45.21875 56 50.046875 50.171875 
Q 54.890625 44.34375 54.890625 33.015625 
z
" id="DejaVuSans-110"/>
       <path d="M 44.28125 53.078125 
L 44.28125 44.578125 
Q 40.484375 46.53125 36.375 47.5 
Q 32.28125 48.484375 27.875 48.484375 
Q 21.1875 48.484375 17.84375 46.4375 
Q 14.5 44.390625 14.5 40.28125 
Q 14.5 37.15625 16.890625 35.375 
Q 19.28125 33.59375 26.515625 31.984375 
L 29.59375 31.296875 
Q 39.15625 29.25 43.1875 25.515625 
Q 47.21875 21.78125 47.21875 15.09375 
Q 47.21875 7.46875 41.1875 3.015625 
Q 35.15625 -1.421875 24.609375 -1.421875 
Q 20.21875 -1.421875 15.453125 -0.5625 
Q 10.6875 0.296875 5.421875 2 
L 5.421875 11.28125 
Q 10.40625 8.6875 15.234375 7.390625 
Q 20.0625 6.109375 24.8125 6.109375 
Q 31.15625 6.109375 34.5625 8.28125 
Q 37.984375 10.453125 37.984375 14.40625 
Q 37.984375 18.0625 35.515625 20.015625 
Q 33.0625 21.96875 24.703125 23.78125 
L 21.578125 24.515625 
Q 13.234375 26.265625 9.515625 29.90625 
Q 5.8125 33.546875 5.8125 39.890625 
Q 5.8125 47.609375 11.28125 51.796875 
Q 16.75 56 26.8125 56 
Q 31.78125 56 36.171875 55.265625 
Q 40.578125 54.546875 44.28125 53.078125 
z
" id="DejaVuSans-115"/>
       <path d="M 9.421875 54.6875 
L 18.40625 54.6875 
L 18.40625 0 
L 9.421875 0 
z
M 9.421875 75.984375 
L 18.40625 75.984375 
L 18.40625 64.59375 
L 9.421875 64.59375 
z
" id="DejaVuSans-105"/>
       <path d="M 18.3125 70.21875 
L 18.3125 54.6875 
L 36.8125 54.6875 
L 36.8125 47.703125 
L 18.3125 47.703125 
L 18.3125 18.015625 
Q 18.3125 11.328125 20.140625 9.421875 
Q 21.96875 7.515625 27.59375 7.515625 
L 36.8125 7.515625 
L 36.8125 0 
L 27.59375 0 
Q 17.1875 0 13.234375 3.875 
Q 9.28125 7.765625 9.28125 18.015625 
L 9.28125 47.703125 
L 2.6875 47.703125 
L 2.6875 54.6875 
L 9.28125 54.6875 
L 9.28125 70.21875 
z
" id="DejaVuSans-116"/>
       <path d="M 32.171875 -5.078125 
Q 28.375 -14.84375 24.75 -17.8125 
Q 21.140625 -20.796875 15.09375 -20.796875 
L 7.90625 -20.796875 
L 7.90625 -13.28125 
L 13.1875 -13.28125 
Q 16.890625 -13.28125 18.9375 -11.515625 
Q 21 -9.765625 23.484375 -3.21875 
L 25.09375 0.875 
L 2.984375 54.6875 
L 12.5 54.6875 
L 29.59375 11.921875 
L 46.6875 54.6875 
L 56.203125 54.6875 
z
" id="DejaVuSans-121"/>
      </defs>
      <use xlink:href="#DejaVuSans-68"/>
      <use x="77.001953" xlink:href="#DejaVuSans-101"/>
      <use x="138.525391" xlink:href="#DejaVuSans-110"/>
      <use x="201.904297" xlink:href="#DejaVuSans-115"/>
      <use x="254.003906" xlink:href="#DejaVuSans-105"/>
      <use x="281.787109" xlink:href="#DejaVuSans-116"/>
      <use x="320.996094" xlink:href="#DejaVuSans-121"/>
     </g>
    </g>
   </g>
   <g id="patch_3">
    <path d="M 22.522656 224.64 
L 22.522656 7.2 
" style="fill:none;stroke:#000000;stroke-linecap:square;stroke-linejoin:miter;stroke-width:0.8;"/>
   </g>
   <g id="patch_4">
    <path d="M 357.322656 224.64 
L 357.322656 7.2 
" style="fill:none;stroke:#000000;stroke-linecap:square;stroke-linejoin:miter;stroke-width:0.8;"/>
   </g>
   <g id="patch_5">
    <path d="M 22.522656 224.64 
L 357.322656 224.64 
" style="fill:none;stroke:#000000;stroke-linecap:square;stroke-linejoin:miter;stroke-width:0.8;"/>
   </g>
   <g id="patch_6">
    <path d="M 22.522656 7.2 
L 357.322656 7.2 
" style="fill:none;stroke:#000000;stroke-linecap:square;stroke-linejoin:miter;stroke-width:0.8;"/>
   </g>
  </g>
 </g>
 <defs>
  <clipPath id="p654bcc8ee9">
   <rect height="217.44" width="334.8" x="22.522656" y="7.2"/>
  </clipPath>
 </defs>
</svg>
